STARTFONT 2.1
FONT -molarmanful-kirsch-Medium-R-Normal--16-150-75-75-M-60-ISO10646-1
SIZE 15 75 75
FONTBOUNDINGBOX 12 17 -3 -5
STARTPROPERTIES 25
FOUNDRY "molarmanful"
FAMILY_NAME "kirsch"
WEIGHT_NAME "Medium"
SLANT "R"
SETWIDTH_NAME "Normal"
ADD_STYLE_NAME ""
PIXEL_SIZE 16
POINT_SIZE 150
RESOLUTION_X 75
RESOLUTION_Y 75
SPACING "M"
AVERAGE_WIDTH 60
CHARSET_REGISTRY "ISO10646"
CHARSET_ENCODING "1"
FONT_ASCENT 12
FONT_DESCENT 4
CAP_HEIGHT 9
X_HEIGHT 5
COPYRIGHT "Copyright 2024 The kirsch Project Authors (https://github.com/molarmanful/kirsch)"
BITED_DWIDTH 6
BITED_TABLE_WIDTH -16
BITED_TABLE_CELL_SCALE 2
BITED_EDITOR_GRID_SIZE 32
BITED_EDITOR_CELL_SIZE 12
FONT_VERSION "Version 1.0"
ENDPROPERTIES
CHARS 7572
STARTCHAR .notdef
ENCODING -1
SWIDTH 480 0
DWIDTH 6 0
BBX 5 15 1 -3
BITMAP
F8
F8
F8
98
A8
E8
E8
D8
D8
D8
F8
D8
F8
F8
F8
ENDCHAR
STARTCHAR U+0020
ENCODING 32
SWIDTH 480 0
DWIDTH 6 0
BBX 0 0 0 0
BITMAP
ENDCHAR
STARTCHAR U+0021
ENCODING 33
SWIDTH 480 0
DWIDTH 6 0
BBX 1 9 3 0
BITMAP
80
80
80
80
80
80
80
00
80
ENDCHAR
STARTCHAR U+0022
ENCODING 34
SWIDTH 480 0
DWIDTH 6 0
BBX 3 3 2 6
BITMAP
A0
A0
A0
ENDCHAR
STARTCHAR U+0023
ENCODING 35
SWIDTH 480 0
DWIDTH 6 0
BBX 5 7 1 0
BITMAP
50
50
F8
50
F8
50
50
ENDCHAR
STARTCHAR U+0024
ENCODING 36
SWIDTH 480 0
DWIDTH 6 0
BBX 5 11 1 -2
BITMAP
20
20
70
A0
A0
70
28
28
70
20
20
ENDCHAR
STARTCHAR U+0025
ENCODING 37
SWIDTH 480 0
DWIDTH 6 0
BBX 5 7 1 0
BITMAP
C0
C8
10
20
40
98
18
ENDCHAR
STARTCHAR U+0026
ENCODING 38
SWIDTH 480 0
DWIDTH 6 0
BBX 5 8 1 0
BITMAP
60
A0
80
58
A0
90
90
68
ENDCHAR
STARTCHAR U+0027
ENCODING 39
SWIDTH 480 0
DWIDTH 6 0
BBX 1 3 3 6
BITMAP
80
80
80
ENDCHAR
STARTCHAR U+0028
ENCODING 40
SWIDTH 480 0
DWIDTH 6 0
BBX 3 11 2 -2
BITMAP
20
40
40
80
80
80
80
80
40
40
20
ENDCHAR
STARTCHAR U+0029
ENCODING 41
SWIDTH 480 0
DWIDTH 6 0
BBX 3 11 2 -2
BITMAP
80
40
40
20
20
20
20
20
40
40
80
ENDCHAR
STARTCHAR U+002A
ENCODING 42
SWIDTH 480 0
DWIDTH 6 0
BBX 5 5 1 1
BITMAP
20
A8
70
A8
20
ENDCHAR
STARTCHAR U+002B
ENCODING 43
SWIDTH 480 0
DWIDTH 6 0
BBX 5 5 1 1
BITMAP
20
20
F8
20
20
ENDCHAR
STARTCHAR U+002C
ENCODING 44
SWIDTH 480 0
DWIDTH 6 0
BBX 2 3 2 -2
BITMAP
40
40
80
ENDCHAR
STARTCHAR U+002D
ENCODING 45
SWIDTH 480 0
DWIDTH 6 0
BBX 5 1 1 3
BITMAP
F8
ENDCHAR
STARTCHAR U+002E
ENCODING 46
SWIDTH 480 0
DWIDTH 6 0
BBX 1 1 3 0
BITMAP
80
ENDCHAR
STARTCHAR U+002F
ENCODING 47
SWIDTH 480 0
DWIDTH 6 0
BBX 5 11 1 -2
BITMAP
08
10
10
10
20
20
20
40
40
40
80
ENDCHAR
STARTCHAR U+0030
ENCODING 48
SWIDTH 480 0
DWIDTH 6 0
BBX 5 8 1 0
BITMAP
70
88
88
A8
A8
88
88
70
ENDCHAR
STARTCHAR U+0031
ENCODING 49
SWIDTH 480 0
DWIDTH 6 0
BBX 5 8 1 0
BITMAP
20
E0
20
20
20
20
20
F8
ENDCHAR
STARTCHAR U+0032
ENCODING 50
SWIDTH 480 0
DWIDTH 6 0
BBX 5 8 1 0
BITMAP
70
88
08
08
10
20
40
F8
ENDCHAR
STARTCHAR U+0033
ENCODING 51
SWIDTH 480 0
DWIDTH 6 0
BBX 5 8 1 0
BITMAP
F8
10
20
70
08
08
88
70
ENDCHAR
STARTCHAR U+0034
ENCODING 52
SWIDTH 480 0
DWIDTH 6 0
BBX 5 8 1 0
BITMAP
10
30
50
F8
10
10
10
10
ENDCHAR
STARTCHAR U+0035
ENCODING 53
SWIDTH 480 0
DWIDTH 6 0
BBX 5 8 1 0
BITMAP
F8
88
80
F0
08
08
88
70
ENDCHAR
STARTCHAR U+0036
ENCODING 54
SWIDTH 480 0
DWIDTH 6 0
BBX 5 8 1 0
BITMAP
70
88
80
B0
88
88
88
70
ENDCHAR
STARTCHAR U+0037
ENCODING 55
SWIDTH 480 0
DWIDTH 6 0
BBX 5 8 1 0
BITMAP
F8
88
10
10
20
20
40
40
ENDCHAR
STARTCHAR U+0038
ENCODING 56
SWIDTH 480 0
DWIDTH 6 0
BBX 5 8 1 0
BITMAP
70
88
88
70
88
88
88
70
ENDCHAR
STARTCHAR U+0039
ENCODING 57
SWIDTH 480 0
DWIDTH 6 0
BBX 5 8 1 0
BITMAP
70
88
88
88
68
08
88
70
ENDCHAR
STARTCHAR U+003A
ENCODING 58
SWIDTH 480 0
DWIDTH 6 0
BBX 1 5 3 0
BITMAP
80
00
00
00
80
ENDCHAR
STARTCHAR U+003B
ENCODING 59
SWIDTH 480 0
DWIDTH 6 0
BBX 2 7 2 -2
BITMAP
40
00
00
00
40
40
80
ENDCHAR
STARTCHAR U+003C
ENCODING 60
SWIDTH 480 0
DWIDTH 6 0
BBX 4 7 1 0
BITMAP
10
20
40
80
40
20
10
ENDCHAR
STARTCHAR U+003D
ENCODING 61
SWIDTH 480 0
DWIDTH 6 0
BBX 5 3 1 2
BITMAP
F8
00
F8
ENDCHAR
STARTCHAR U+003E
ENCODING 62
SWIDTH 480 0
DWIDTH 6 0
BBX 4 7 2 0
BITMAP
80
40
20
10
20
40
80
ENDCHAR
STARTCHAR U+003F
ENCODING 63
SWIDTH 480 0
DWIDTH 6 0
BBX 4 9 2 0
BITMAP
E0
90
10
10
60
40
40
00
40
ENDCHAR
STARTCHAR U+0040
ENCODING 64
SWIDTH 480 0
DWIDTH 6 0
BBX 5 7 1 0
BITMAP
70
88
B8
A8
B8
80
78
ENDCHAR
STARTCHAR U+0041
ENCODING 65
SWIDTH 480 0
DWIDTH 6 0
BBX 5 9 1 0
BITMAP
08
18
28
48
F8
88
88
88
88
ENDCHAR
STARTCHAR U+0042
ENCODING 66
SWIDTH 480 0
DWIDTH 6 0
BBX 5 9 1 0
BITMAP
70
88
88
90
B0
88
88
90
E0
ENDCHAR
STARTCHAR U+0043
ENCODING 67
SWIDTH 480 0
DWIDTH 6 0
BBX 5 9 1 0
BITMAP
70
90
80
80
80
80
80
88
70
ENDCHAR
STARTCHAR U+0044
ENCODING 68
SWIDTH 480 0
DWIDTH 6 0
BBX 5 9 1 0
BITMAP
70
88
88
88
88
90
A0
C0
80
ENDCHAR
STARTCHAR U+0045
ENCODING 69
SWIDTH 480 0
DWIDTH 6 0
BBX 5 9 1 0
BITMAP
70
90
80
80
60
80
80
88
70
ENDCHAR
STARTCHAR U+0046
ENCODING 70
SWIDTH 480 0
DWIDTH 6 0
BBX 5 9 1 0
BITMAP
78
88
80
80
F0
80
80
80
80
ENDCHAR
STARTCHAR U+0047
ENCODING 71
SWIDTH 480 0
DWIDTH 6 0
BBX 5 12 1 -3
BITMAP
70
90
80
80
98
88
88
98
68
08
08
10
ENDCHAR
STARTCHAR U+0048
ENCODING 72
SWIDTH 480 0
DWIDTH 6 0
BBX 5 9 1 0
BITMAP
88
88
88
88
F8
88
88
88
88
ENDCHAR
STARTCHAR U+0049
ENCODING 73
SWIDTH 480 0
DWIDTH 6 0
BBX 5 9 1 0
BITMAP
F8
20
20
20
20
20
20
20
F8
ENDCHAR
STARTCHAR U+004A
ENCODING 74
SWIDTH 480 0
DWIDTH 6 0
BBX 5 12 1 -3
BITMAP
78
10
10
10
10
10
10
10
10
10
90
60
ENDCHAR
STARTCHAR U+004B
ENCODING 75
SWIDTH 480 0
DWIDTH 6 0
BBX 5 9 1 0
BITMAP
88
90
90
90
E0
90
90
90
88
ENDCHAR
STARTCHAR U+004C
ENCODING 76
SWIDTH 480 0
DWIDTH 6 0
BBX 5 9 1 0
BITMAP
80
80
80
80
80
80
80
88
70
ENDCHAR
STARTCHAR U+004D
ENCODING 77
SWIDTH 480 0
DWIDTH 6 0
BBX 5 9 1 0
BITMAP
88
88
D8
A8
A8
A8
A8
88
88
ENDCHAR
STARTCHAR U+004E
ENCODING 78
SWIDTH 480 0
DWIDTH 6 0
BBX 5 9 1 0
BITMAP
88
88
C8
A8
A8
A8
98
88
88
ENDCHAR
STARTCHAR U+004F
ENCODING 79
SWIDTH 480 0
DWIDTH 6 0
BBX 5 9 1 0
BITMAP
70
88
88
88
88
88
88
90
60
ENDCHAR
STARTCHAR U+0050
ENCODING 80
SWIDTH 480 0
DWIDTH 6 0
BBX 5 9 1 0
BITMAP
70
88
88
90
A0
80
80
80
80
ENDCHAR
STARTCHAR U+0051
ENCODING 81
SWIDTH 480 0
DWIDTH 6 0
BBX 5 12 1 -3
BITMAP
70
88
88
88
88
88
88
90
60
10
10
08
ENDCHAR
STARTCHAR U+0052
ENCODING 82
SWIDTH 480 0
DWIDTH 6 0
BBX 5 9 1 0
BITMAP
70
88
88
90
A0
90
90
90
88
ENDCHAR
STARTCHAR U+0053
ENCODING 83
SWIDTH 480 0
DWIDTH 6 0
BBX 5 9 1 0
BITMAP
70
90
80
80
70
08
08
88
70
ENDCHAR
STARTCHAR U+0054
ENCODING 84
SWIDTH 480 0
DWIDTH 6 0
BBX 5 9 1 0
BITMAP
F8
20
20
20
20
20
20
20
20
ENDCHAR
STARTCHAR U+0055
ENCODING 85
SWIDTH 480 0
DWIDTH 6 0
BBX 5 9 1 0
BITMAP
88
88
88
88
88
88
88
90
60
ENDCHAR
STARTCHAR U+0056
ENCODING 86
SWIDTH 480 0
DWIDTH 6 0
BBX 5 9 1 0
BITMAP
88
50
50
50
50
50
50
20
20
ENDCHAR
STARTCHAR U+0057
ENCODING 87
SWIDTH 480 0
DWIDTH 6 0
BBX 5 9 1 0
BITMAP
88
88
A8
A8
A8
A8
A8
50
50
ENDCHAR
STARTCHAR U+0058
ENCODING 88
SWIDTH 480 0
DWIDTH 6 0
BBX 5 9 1 0
BITMAP
88
50
50
50
20
50
50
50
88
ENDCHAR
STARTCHAR U+0059
ENCODING 89
SWIDTH 480 0
DWIDTH 6 0
BBX 5 12 1 -3
BITMAP
88
50
50
50
30
10
10
10
10
10
90
60
ENDCHAR
STARTCHAR U+005A
ENCODING 90
SWIDTH 480 0
DWIDTH 6 0
BBX 5 9 1 0
BITMAP
F8
90
10
20
20
20
40
48
F8
ENDCHAR
STARTCHAR U+005B
ENCODING 91
SWIDTH 480 0
DWIDTH 6 0
BBX 3 11 2 -2
BITMAP
E0
80
80
80
80
80
80
80
80
80
E0
ENDCHAR
STARTCHAR U+005C
ENCODING 92
SWIDTH 480 0
DWIDTH 6 0
BBX 5 11 1 -2
BITMAP
80
40
40
40
20
20
20
10
10
10
08
ENDCHAR
STARTCHAR U+005D
ENCODING 93
SWIDTH 480 0
DWIDTH 6 0
BBX 3 11 2 -2
BITMAP
E0
20
20
20
20
20
20
20
20
20
E0
ENDCHAR
STARTCHAR U+005E
ENCODING 94
SWIDTH 480 0
DWIDTH 6 0
BBX 5 3 1 6
BITMAP
20
50
88
ENDCHAR
STARTCHAR U+005F
ENCODING 95
SWIDTH 480 0
DWIDTH 6 0
BBX 5 1 1 -2
BITMAP
F8
ENDCHAR
STARTCHAR U+0060
ENCODING 96
SWIDTH 480 0
DWIDTH 6 0
BBX 3 3 2 6
BITMAP
80
40
20
ENDCHAR
STARTCHAR U+0061
ENCODING 97
SWIDTH 480 0
DWIDTH 6 0
BBX 5 5 1 0
BITMAP
70
08
78
88
68
ENDCHAR
STARTCHAR U+0062
ENCODING 98
SWIDTH 480 0
DWIDTH 6 0
BBX 5 9 1 0
BITMAP
80
80
80
80
B0
C8
88
88
B0
ENDCHAR
STARTCHAR U+0063
ENCODING 99
SWIDTH 480 0
DWIDTH 6 0
BBX 5 5 1 0
BITMAP
70
80
80
88
70
ENDCHAR
STARTCHAR U+0064
ENCODING 100
SWIDTH 480 0
DWIDTH 6 0
BBX 5 9 1 0
BITMAP
08
08
08
08
68
98
88
88
68
ENDCHAR
STARTCHAR U+0065
ENCODING 101
SWIDTH 480 0
DWIDTH 6 0
BBX 5 5 1 0
BITMAP
70
88
B0
80
70
ENDCHAR
STARTCHAR U+0066
ENCODING 102
SWIDTH 480 0
DWIDTH 6 0
BBX 5 12 1 -3
BITMAP
18
20
20
20
F8
20
20
20
20
20
20
C0
ENDCHAR
STARTCHAR U+0067
ENCODING 103
SWIDTH 480 0
DWIDTH 6 0
BBX 5 9 1 -3
BITMAP
08
70
88
88
70
80
70
08
70
ENDCHAR
STARTCHAR U+0068
ENCODING 104
SWIDTH 480 0
DWIDTH 6 0
BBX 5 9 1 0
BITMAP
80
80
80
80
B0
C8
88
88
88
ENDCHAR
STARTCHAR U+0069
ENCODING 105
SWIDTH 480 0
DWIDTH 6 0
BBX 5 7 1 0
BITMAP
20
00
20
E0
20
20
18
ENDCHAR
STARTCHAR U+006A
ENCODING 106
SWIDTH 480 0
DWIDTH 6 0
BBX 4 10 1 -3
BITMAP
10
00
10
70
10
10
10
10
90
60
ENDCHAR
STARTCHAR U+006B
ENCODING 107
SWIDTH 480 0
DWIDTH 6 0
BBX 5 9 1 0
BITMAP
80
80
80
80
90
A0
C0
A0
98
ENDCHAR
STARTCHAR U+006C
ENCODING 108
SWIDTH 480 0
DWIDTH 6 0
BBX 5 9 1 0
BITMAP
20
E0
20
20
20
20
20
20
18
ENDCHAR
STARTCHAR U+006D
ENCODING 109
SWIDTH 480 0
DWIDTH 6 0
BBX 5 5 1 0
BITMAP
D0
A8
A8
A8
A8
ENDCHAR
STARTCHAR U+006E
ENCODING 110
SWIDTH 480 0
DWIDTH 6 0
BBX 5 5 1 0
BITMAP
B0
C8
88
88
88
ENDCHAR
STARTCHAR U+006F
ENCODING 111
SWIDTH 480 0
DWIDTH 6 0
BBX 5 5 1 0
BITMAP
70
88
88
88
70
ENDCHAR
STARTCHAR U+0070
ENCODING 112
SWIDTH 480 0
DWIDTH 6 0
BBX 5 8 1 -3
BITMAP
B0
C8
88
88
B0
80
80
80
ENDCHAR
STARTCHAR U+0071
ENCODING 113
SWIDTH 480 0
DWIDTH 6 0
BBX 5 8 1 -3
BITMAP
68
98
88
88
68
08
08
08
ENDCHAR
STARTCHAR U+0072
ENCODING 114
SWIDTH 480 0
DWIDTH 6 0
BBX 5 5 1 0
BITMAP
D8
60
40
40
40
ENDCHAR
STARTCHAR U+0073
ENCODING 115
SWIDTH 480 0
DWIDTH 6 0
BBX 5 5 1 0
BITMAP
70
80
70
08
70
ENDCHAR
STARTCHAR U+0074
ENCODING 116
SWIDTH 480 0
DWIDTH 6 0
BBX 5 6 1 0
BITMAP
40
F0
40
40
48
30
ENDCHAR
STARTCHAR U+0075
ENCODING 117
SWIDTH 480 0
DWIDTH 6 0
BBX 5 5 1 0
BITMAP
88
88
88
98
68
ENDCHAR
STARTCHAR U+0076
ENCODING 118
SWIDTH 480 0
DWIDTH 6 0
BBX 5 5 1 0
BITMAP
88
50
50
20
20
ENDCHAR
STARTCHAR U+0077
ENCODING 119
SWIDTH 480 0
DWIDTH 6 0
BBX 5 5 1 0
BITMAP
A8
A8
A8
50
50
ENDCHAR
STARTCHAR U+0078
ENCODING 120
SWIDTH 480 0
DWIDTH 6 0
BBX 5 5 1 0
BITMAP
C8
30
20
60
98
ENDCHAR
STARTCHAR U+0079
ENCODING 121
SWIDTH 480 0
DWIDTH 6 0
BBX 5 8 1 -3
BITMAP
88
50
50
50
20
20
20
40
ENDCHAR
STARTCHAR U+007A
ENCODING 122
SWIDTH 480 0
DWIDTH 6 0
BBX 5 5 1 0
BITMAP
F8
10
20
40
F8
ENDCHAR
STARTCHAR U+007B
ENCODING 123
SWIDTH 480 0
DWIDTH 6 0
BBX 5 11 1 -2
BITMAP
18
20
20
20
20
C0
20
20
20
20
18
ENDCHAR
STARTCHAR U+007C
ENCODING 124
SWIDTH 480 0
DWIDTH 6 0
BBX 1 11 3 -2
BITMAP
80
80
80
80
80
80
80
80
80
80
80
ENDCHAR
STARTCHAR U+007D
ENCODING 125
SWIDTH 480 0
DWIDTH 6 0
BBX 5 11 1 -2
BITMAP
C0
20
20
20
20
18
20
20
20
20
C0
ENDCHAR
STARTCHAR U+007E
ENCODING 126
SWIDTH 480 0
DWIDTH 6 0
BBX 5 3 1 2
BITMAP
48
A8
90
ENDCHAR
STARTCHAR U+00A0
ENCODING 160
SWIDTH 480 0
DWIDTH 6 0
BBX 0 0 0 0
BITMAP
ENDCHAR
STARTCHAR U+00A1
ENCODING 161
SWIDTH 480 0
DWIDTH 6 0
BBX 1 9 3 -2
BITMAP
80
00
80
80
80
80
80
80
80
ENDCHAR
STARTCHAR U+00A2
ENCODING 162
SWIDTH 480 0
DWIDTH 6 0
BBX 5 9 1 -1
BITMAP
20
20
70
A0
A0
A8
70
20
20
ENDCHAR
STARTCHAR U+00A3
ENCODING 163
SWIDTH 480 0
DWIDTH 6 0
BBX 5 8 1 0
BITMAP
20
50
40
40
E0
40
48
B0
ENDCHAR
STARTCHAR U+00A4
ENCODING 164
SWIDTH 480 0
DWIDTH 6 0
BBX 5 5 1 1
BITMAP
88
70
50
70
88
ENDCHAR
STARTCHAR U+00A5
ENCODING 165
SWIDTH 480 0
DWIDTH 6 0
BBX 5 8 1 0
BITMAP
88
50
20
F8
20
F8
20
20
ENDCHAR
STARTCHAR U+00A6
ENCODING 166
SWIDTH 480 0
DWIDTH 6 0
BBX 1 11 3 -2
BITMAP
80
80
80
80
00
00
00
80
80
80
80
ENDCHAR
STARTCHAR U+00A7
ENCODING 167
SWIDTH 480 0
DWIDTH 6 0
BBX 5 9 1 0
BITMAP
78
88
80
70
88
70
08
88
F0
ENDCHAR
STARTCHAR U+00A8
ENCODING 168
SWIDTH 480 0
DWIDTH 6 0
BBX 3 1 2 8
BITMAP
A0
ENDCHAR
STARTCHAR U+00A9
ENCODING 169
SWIDTH 480 0
DWIDTH 6 0
BBX 7 8 0 0
BITMAP
38
44
9A
AA
A2
9A
44
38
ENDCHAR
STARTCHAR U+00AA
ENCODING 170
SWIDTH 480 0
DWIDTH 6 0
BBX 3 6 2 3
BITMAP
60
A0
A0
60
00
E0
ENDCHAR
STARTCHAR U+00AB
ENCODING 171
SWIDTH 480 0
DWIDTH 6 0
BBX 5 5 1 1
BITMAP
28
50
A0
50
28
ENDCHAR
STARTCHAR U+00AC
ENCODING 172
SWIDTH 480 0
DWIDTH 6 0
BBX 5 3 1 1
BITMAP
F8
08
08
ENDCHAR
STARTCHAR U+00AE
ENCODING 174
SWIDTH 480 0
DWIDTH 6 0
BBX 7 8 0 0
BITMAP
38
44
B2
AA
B2
AA
44
38
ENDCHAR
STARTCHAR U+00AF
ENCODING 175
SWIDTH 480 0
DWIDTH 6 0
BBX 5 1 1 8
BITMAP
F8
ENDCHAR
STARTCHAR U+00B0
ENCODING 176
SWIDTH 480 0
DWIDTH 6 0
BBX 3 3 2 6
BITMAP
40
A0
40
ENDCHAR
STARTCHAR U+00B1
ENCODING 177
SWIDTH 480 0
DWIDTH 6 0
BBX 5 7 1 0
BITMAP
20
20
F8
20
20
00
F8
ENDCHAR
STARTCHAR U+00B2
ENCODING 178
SWIDTH 480 0
DWIDTH 6 0
BBX 3 5 2 5
BITMAP
40
A0
20
40
E0
ENDCHAR
STARTCHAR U+00B3
ENCODING 179
SWIDTH 480 0
DWIDTH 6 0
BBX 3 5 2 5
BITMAP
C0
20
40
20
C0
ENDCHAR
STARTCHAR U+00B4
ENCODING 180
SWIDTH 480 0
DWIDTH 6 0
BBX 3 3 2 6
BITMAP
20
40
80
ENDCHAR
STARTCHAR U+00B5
ENCODING 181
SWIDTH 480 0
DWIDTH 6 0
BBX 5 8 1 -3
BITMAP
88
88
88
D8
A8
80
80
80
ENDCHAR
STARTCHAR U+00B6
ENCODING 182
SWIDTH 480 0
DWIDTH 6 0
BBX 5 9 1 0
BITMAP
78
E8
E8
E8
68
28
28
28
28
ENDCHAR
STARTCHAR U+00B7
ENCODING 183
SWIDTH 480 0
DWIDTH 6 0
BBX 1 1 3 3
BITMAP
80
ENDCHAR
STARTCHAR U+00B8
ENCODING 184
SWIDTH 480 0
DWIDTH 6 0
BBX 3 3 2 -2
BITMAP
40
20
C0
ENDCHAR
STARTCHAR U+00B9
ENCODING 185
SWIDTH 480 0
DWIDTH 6 0
BBX 3 5 2 5
BITMAP
40
C0
40
40
E0
ENDCHAR
STARTCHAR U+00BA
ENCODING 186
SWIDTH 480 0
DWIDTH 6 0
BBX 3 6 2 3
BITMAP
40
A0
A0
40
00
E0
ENDCHAR
STARTCHAR U+00BB
ENCODING 187
SWIDTH 480 0
DWIDTH 6 0
BBX 5 5 1 1
BITMAP
A0
50
28
50
A0
ENDCHAR
STARTCHAR U+00BC
ENCODING 188
SWIDTH 480 0
DWIDTH 6 0
BBX 5 11 1 -1
BITMAP
40
C0
40
40
E0
00
08
18
38
08
08
ENDCHAR
STARTCHAR U+00BD
ENCODING 189
SWIDTH 480 0
DWIDTH 6 0
BBX 5 11 1 -1
BITMAP
40
C0
40
40
E0
00
10
28
08
10
38
ENDCHAR
STARTCHAR U+00BE
ENCODING 190
SWIDTH 480 0
DWIDTH 6 0
BBX 5 11 1 -1
BITMAP
C0
20
40
20
C0
00
08
18
38
08
08
ENDCHAR
STARTCHAR U+00BF
ENCODING 191
SWIDTH 480 0
DWIDTH 6 0
BBX 4 9 1 -2
BITMAP
20
00
20
20
60
80
80
90
70
ENDCHAR
STARTCHAR U+00C0
ENCODING 192
SWIDTH 480 0
DWIDTH 6 0
BBX 5 12 1 0
BITMAP
10
08
00
08
18
28
48
F8
88
88
88
88
ENDCHAR
STARTCHAR U+00C1
ENCODING 193
SWIDTH 480 0
DWIDTH 6 0
BBX 5 12 1 0
BITMAP
08
10
00
08
18
28
48
F8
88
88
88
88
ENDCHAR
STARTCHAR U+00C2
ENCODING 194
SWIDTH 480 0
DWIDTH 6 0
BBX 5 12 1 0
BITMAP
10
28
00
08
18
28
48
F8
88
88
88
88
ENDCHAR
STARTCHAR U+00C3
ENCODING 195
SWIDTH 480 0
DWIDTH 6 0
BBX 5 12 1 0
BITMAP
68
58
00
08
18
28
48
F8
88
88
88
88
ENDCHAR
STARTCHAR U+00C4
ENCODING 196
SWIDTH 480 0
DWIDTH 6 0
BBX 5 11 1 0
BITMAP
28
00
08
18
28
48
F8
88
88
88
88
ENDCHAR
STARTCHAR U+00C5
ENCODING 197
SWIDTH 480 0
DWIDTH 6 0
BBX 5 12 1 0
BITMAP
20
50
20
08
18
28
48
F8
88
88
88
88
ENDCHAR
STARTCHAR U+00C6
ENCODING 198
SWIDTH 480 0
DWIDTH 6 0
BBX 5 9 1 0
BITMAP
78
A0
A0
A0
F8
A0
A0
A0
B8
ENDCHAR
STARTCHAR U+00C7
ENCODING 199
SWIDTH 480 0
DWIDTH 6 0
BBX 5 12 1 -3
BITMAP
70
90
80
80
80
80
80
88
70
20
10
60
ENDCHAR
STARTCHAR U+00C8
ENCODING 200
SWIDTH 480 0
DWIDTH 6 0
BBX 5 12 1 0
BITMAP
40
20
00
70
90
80
80
60
80
80
88
70
ENDCHAR
STARTCHAR U+00C9
ENCODING 201
SWIDTH 480 0
DWIDTH 6 0
BBX 5 12 1 0
BITMAP
10
20
00
70
90
80
80
60
80
80
88
70
ENDCHAR
STARTCHAR U+00CA
ENCODING 202
SWIDTH 480 0
DWIDTH 6 0
BBX 5 12 1 0
BITMAP
20
50
00
70
90
80
80
60
80
80
88
70
ENDCHAR
STARTCHAR U+00CB
ENCODING 203
SWIDTH 480 0
DWIDTH 6 0
BBX 5 11 1 0
BITMAP
50
00
70
90
80
80
60
80
80
88
70
ENDCHAR
STARTCHAR U+00CC
ENCODING 204
SWIDTH 480 0
DWIDTH 6 0
BBX 5 12 1 0
BITMAP
40
20
00
F8
20
20
20
20
20
20
20
F8
ENDCHAR
STARTCHAR U+00CD
ENCODING 205
SWIDTH 480 0
DWIDTH 6 0
BBX 5 12 1 0
BITMAP
10
20
00
F8
20
20
20
20
20
20
20
F8
ENDCHAR
STARTCHAR U+00CE
ENCODING 206
SWIDTH 480 0
DWIDTH 6 0
BBX 5 12 1 0
BITMAP
20
50
00
F8
20
20
20
20
20
20
20
F8
ENDCHAR
STARTCHAR U+00CF
ENCODING 207
SWIDTH 480 0
DWIDTH 6 0
BBX 5 11 1 0
BITMAP
50
00
F8
20
20
20
20
20
20
20
F8
ENDCHAR
STARTCHAR U+00D0
ENCODING 208
SWIDTH 480 0
DWIDTH 6 0
BBX 6 9 0 0
BITMAP
38
44
44
44
E4
48
50
60
40
ENDCHAR
STARTCHAR U+00D1
ENCODING 209
SWIDTH 480 0
DWIDTH 6 0
BBX 5 12 1 0
BITMAP
68
58
00
88
88
C8
A8
A8
A8
98
88
88
ENDCHAR
STARTCHAR U+00D2
ENCODING 210
SWIDTH 480 0
DWIDTH 6 0
BBX 5 12 1 0
BITMAP
40
20
00
70
88
88
88
88
88
88
90
60
ENDCHAR
STARTCHAR U+00D3
ENCODING 211
SWIDTH 480 0
DWIDTH 6 0
BBX 5 12 1 0
BITMAP
10
20
00
70
88
88
88
88
88
88
90
60
ENDCHAR
STARTCHAR U+00D4
ENCODING 212
SWIDTH 480 0
DWIDTH 6 0
BBX 5 12 1 0
BITMAP
20
50
00
70
88
88
88
88
88
88
90
60
ENDCHAR
STARTCHAR U+00D5
ENCODING 213
SWIDTH 480 0
DWIDTH 6 0
BBX 5 12 1 0
BITMAP
68
58
00
70
88
88
88
88
88
88
90
60
ENDCHAR
STARTCHAR U+00D6
ENCODING 214
SWIDTH 480 0
DWIDTH 6 0
BBX 5 11 1 0
BITMAP
50
00
70
88
88
88
88
88
88
90
60
ENDCHAR
STARTCHAR U+00D7
ENCODING 215
SWIDTH 480 0
DWIDTH 6 0
BBX 5 5 1 1
BITMAP
88
50
20
50
88
ENDCHAR
STARTCHAR U+00D8
ENCODING 216
SWIDTH 480 0
DWIDTH 6 0
BBX 5 11 1 -1
BITMAP
08
70
98
98
A8
A8
A8
C8
D0
60
80
ENDCHAR
STARTCHAR U+00D9
ENCODING 217
SWIDTH 480 0
DWIDTH 6 0
BBX 5 12 1 0
BITMAP
40
20
00
88
88
88
88
88
88
88
90
60
ENDCHAR
STARTCHAR U+00DA
ENCODING 218
SWIDTH 480 0
DWIDTH 6 0
BBX 5 12 1 0
BITMAP
10
20
00
88
88
88
88
88
88
88
90
60
ENDCHAR
STARTCHAR U+00DB
ENCODING 219
SWIDTH 480 0
DWIDTH 6 0
BBX 5 12 1 0
BITMAP
20
50
00
88
88
88
88
88
88
88
90
60
ENDCHAR
STARTCHAR U+00DC
ENCODING 220
SWIDTH 480 0
DWIDTH 6 0
BBX 5 11 1 0
BITMAP
50
00
88
88
88
88
88
88
88
90
60
ENDCHAR
STARTCHAR U+00DD
ENCODING 221
SWIDTH 480 0
DWIDTH 6 0
BBX 5 15 1 -3
BITMAP
10
20
00
88
50
50
50
30
10
10
10
10
10
90
60
ENDCHAR
STARTCHAR U+00DE
ENCODING 222
SWIDTH 480 0
DWIDTH 6 0
BBX 5 9 1 0
BITMAP
80
80
F0
88
88
88
B0
80
80
ENDCHAR
STARTCHAR U+00DF
ENCODING 223
SWIDTH 480 0
DWIDTH 6 0
BBX 5 9 1 0
BITMAP
60
90
90
A0
A0
90
88
88
B0
ENDCHAR
STARTCHAR U+00E0
ENCODING 224
SWIDTH 480 0
DWIDTH 6 0
BBX 5 8 1 0
BITMAP
40
20
00
70
08
78
88
68
ENDCHAR
STARTCHAR U+00E1
ENCODING 225
SWIDTH 480 0
DWIDTH 6 0
BBX 5 8 1 0
BITMAP
10
20
00
70
08
78
88
68
ENDCHAR
STARTCHAR U+00E2
ENCODING 226
SWIDTH 480 0
DWIDTH 6 0
BBX 5 8 1 0
BITMAP
20
50
00
70
08
78
88
68
ENDCHAR
STARTCHAR U+00E3
ENCODING 227
SWIDTH 480 0
DWIDTH 6 0
BBX 5 8 1 0
BITMAP
68
58
00
70
08
78
88
68
ENDCHAR
STARTCHAR U+00E4
ENCODING 228
SWIDTH 480 0
DWIDTH 6 0
BBX 5 7 1 0
BITMAP
50
00
70
08
78
88
68
ENDCHAR
STARTCHAR U+00E5
ENCODING 229
SWIDTH 480 0
DWIDTH 6 0
BBX 5 9 1 0
BITMAP
20
50
20
00
70
08
78
88
68
ENDCHAR
STARTCHAR U+00E6
ENCODING 230
SWIDTH 480 0
DWIDTH 6 0
BBX 5 5 1 0
BITMAP
50
28
70
A0
58
ENDCHAR
STARTCHAR U+00E7
ENCODING 231
SWIDTH 480 0
DWIDTH 6 0
BBX 5 8 1 -3
BITMAP
70
80
80
88
70
20
10
60
ENDCHAR
STARTCHAR U+00E8
ENCODING 232
SWIDTH 480 0
DWIDTH 6 0
BBX 5 8 1 0
BITMAP
40
20
00
70
88
B0
80
70
ENDCHAR
STARTCHAR U+00E9
ENCODING 233
SWIDTH 480 0
DWIDTH 6 0
BBX 5 8 1 0
BITMAP
10
20
00
70
88
B0
80
70
ENDCHAR
STARTCHAR U+00EA
ENCODING 234
SWIDTH 480 0
DWIDTH 6 0
BBX 5 8 1 0
BITMAP
20
50
00
70
88
B0
80
70
ENDCHAR
STARTCHAR U+00EB
ENCODING 235
SWIDTH 480 0
DWIDTH 6 0
BBX 5 7 1 0
BITMAP
50
00
70
88
B0
80
70
ENDCHAR
STARTCHAR U+00EC
ENCODING 236
SWIDTH 480 0
DWIDTH 6 0
BBX 5 8 1 0
BITMAP
40
20
00
20
E0
20
20
18
ENDCHAR
STARTCHAR U+00ED
ENCODING 237
SWIDTH 480 0
DWIDTH 6 0
BBX 5 8 1 0
BITMAP
10
20
00
20
E0
20
20
18
ENDCHAR
STARTCHAR U+00EE
ENCODING 238
SWIDTH 480 0
DWIDTH 6 0
BBX 5 8 1 0
BITMAP
20
50
00
20
E0
20
20
18
ENDCHAR
STARTCHAR U+00EF
ENCODING 239
SWIDTH 480 0
DWIDTH 6 0
BBX 5 7 1 0
BITMAP
50
00
20
E0
20
20
18
ENDCHAR
STARTCHAR U+00F0
ENCODING 240
SWIDTH 480 0
DWIDTH 6 0
BBX 5 9 1 0
BITMAP
50
20
50
08
68
88
88
88
70
ENDCHAR
STARTCHAR U+00F1
ENCODING 241
SWIDTH 480 0
DWIDTH 6 0
BBX 5 8 1 0
BITMAP
68
58
00
B0
C8
88
88
88
ENDCHAR
STARTCHAR U+00F2
ENCODING 242
SWIDTH 480 0
DWIDTH 6 0
BBX 5 8 1 0
BITMAP
40
20
00
70
88
88
88
70
ENDCHAR
STARTCHAR U+00F3
ENCODING 243
SWIDTH 480 0
DWIDTH 6 0
BBX 5 8 1 0
BITMAP
10
20
00
70
88
88
88
70
ENDCHAR
STARTCHAR U+00F4
ENCODING 244
SWIDTH 480 0
DWIDTH 6 0
BBX 5 8 1 0
BITMAP
20
50
00
70
88
88
88
70
ENDCHAR
STARTCHAR U+00F5
ENCODING 245
SWIDTH 480 0
DWIDTH 6 0
BBX 5 8 1 0
BITMAP
68
58
00
70
88
88
88
70
ENDCHAR
STARTCHAR U+00F6
ENCODING 246
SWIDTH 480 0
DWIDTH 6 0
BBX 5 7 1 0
BITMAP
50
00
70
88
88
88
70
ENDCHAR
STARTCHAR U+00F7
ENCODING 247
SWIDTH 480 0
DWIDTH 6 0
BBX 5 5 1 1
BITMAP
20
00
F8
00
20
ENDCHAR
STARTCHAR U+00F8
ENCODING 248
SWIDTH 480 0
DWIDTH 6 0
BBX 5 7 1 -1
BITMAP
10
70
A8
A8
A8
70
40
ENDCHAR
STARTCHAR U+00F9
ENCODING 249
SWIDTH 480 0
DWIDTH 6 0
BBX 5 8 1 0
BITMAP
40
20
00
88
88
88
98
68
ENDCHAR
STARTCHAR U+00FA
ENCODING 250
SWIDTH 480 0
DWIDTH 6 0
BBX 5 8 1 0
BITMAP
10
20
00
88
88
88
98
68
ENDCHAR
STARTCHAR U+00FB
ENCODING 251
SWIDTH 480 0
DWIDTH 6 0
BBX 5 8 1 0
BITMAP
20
50
00
88
88
88
98
68
ENDCHAR
STARTCHAR U+00FC
ENCODING 252
SWIDTH 480 0
DWIDTH 6 0
BBX 5 7 1 0
BITMAP
50
00
88
88
88
98
68
ENDCHAR
STARTCHAR U+00FD
ENCODING 253
SWIDTH 480 0
DWIDTH 6 0
BBX 5 11 1 -3
BITMAP
10
20
00
88
50
50
50
20
20
20
40
ENDCHAR
STARTCHAR U+00FE
ENCODING 254
SWIDTH 480 0
DWIDTH 6 0
BBX 5 12 1 -3
BITMAP
80
80
80
80
B0
C8
88
88
B0
80
80
80
ENDCHAR
STARTCHAR U+00FF
ENCODING 255
SWIDTH 480 0
DWIDTH 6 0
BBX 5 10 1 -3
BITMAP
50
00
88
50
50
50
20
20
20
40
ENDCHAR
STARTCHAR U+0100
ENCODING 256
SWIDTH 480 0
DWIDTH 6 0
BBX 5 11 1 0
BITMAP
38
00
08
18
28
48
F8
88
88
88
88
ENDCHAR
STARTCHAR U+0101
ENCODING 257
SWIDTH 480 0
DWIDTH 6 0
BBX 5 7 1 0
BITMAP
70
00
70
08
78
88
68
ENDCHAR
STARTCHAR U+0102
ENCODING 258
SWIDTH 480 0
DWIDTH 6 0
BBX 5 12 1 0
BITMAP
28
38
00
08
18
28
48
F8
88
88
88
88
ENDCHAR
STARTCHAR U+0103
ENCODING 259
SWIDTH 480 0
DWIDTH 6 0
BBX 5 8 1 0
BITMAP
50
70
00
70
08
78
88
68
ENDCHAR
STARTCHAR U+0104
ENCODING 260
SWIDTH 480 0
DWIDTH 6 0
BBX 5 12 1 -3
BITMAP
08
18
28
48
F8
88
88
88
88
08
10
18
ENDCHAR
STARTCHAR U+0105
ENCODING 261
SWIDTH 480 0
DWIDTH 6 0
BBX 5 8 1 -3
BITMAP
70
08
78
88
68
08
10
18
ENDCHAR
STARTCHAR U+0106
ENCODING 262
SWIDTH 480 0
DWIDTH 6 0
BBX 5 12 1 0
BITMAP
10
20
00
70
90
80
80
80
80
80
88
70
ENDCHAR
STARTCHAR U+0107
ENCODING 263
SWIDTH 480 0
DWIDTH 6 0
BBX 5 8 1 0
BITMAP
10
20
00
70
80
80
88
70
ENDCHAR
STARTCHAR U+0108
ENCODING 264
SWIDTH 480 0
DWIDTH 6 0
BBX 5 12 1 0
BITMAP
20
50
00
70
90
80
80
80
80
80
88
70
ENDCHAR
STARTCHAR U+0109
ENCODING 265
SWIDTH 480 0
DWIDTH 6 0
BBX 5 8 1 0
BITMAP
20
50
00
70
80
80
88
70
ENDCHAR
STARTCHAR U+010A
ENCODING 266
SWIDTH 480 0
DWIDTH 6 0
BBX 5 11 1 0
BITMAP
20
00
70
90
80
80
80
80
80
88
70
ENDCHAR
STARTCHAR U+010B
ENCODING 267
SWIDTH 480 0
DWIDTH 6 0
BBX 5 7 1 0
BITMAP
20
00
70
80
80
88
70
ENDCHAR
STARTCHAR U+010C
ENCODING 268
SWIDTH 480 0
DWIDTH 6 0
BBX 5 12 1 0
BITMAP
50
20
00
70
90
80
80
80
80
80
88
70
ENDCHAR
STARTCHAR U+010D
ENCODING 269
SWIDTH 480 0
DWIDTH 6 0
BBX 5 8 1 0
BITMAP
50
20
00
70
80
80
88
70
ENDCHAR
STARTCHAR U+010E
ENCODING 270
SWIDTH 480 0
DWIDTH 6 0
BBX 5 12 1 0
BITMAP
50
20
00
70
88
88
88
88
90
A0
C0
80
ENDCHAR
STARTCHAR U+010F
ENCODING 271
SWIDTH 480 0
DWIDTH 6 0
BBX 6 10 1 0
BITMAP
04
24
28
20
20
60
A0
A0
A0
60
ENDCHAR
STARTCHAR U+0110
ENCODING 272
SWIDTH 480 0
DWIDTH 6 0
BBX 6 9 0 0
BITMAP
38
44
44
44
E4
48
50
60
40
ENDCHAR
STARTCHAR U+0111
ENCODING 273
SWIDTH 480 0
DWIDTH 6 0
BBX 6 9 1 0
BITMAP
08
08
3C
08
68
98
88
88
68
ENDCHAR
STARTCHAR U+0112
ENCODING 274
SWIDTH 480 0
DWIDTH 6 0
BBX 5 11 1 0
BITMAP
70
00
70
90
80
80
60
80
80
88
70
ENDCHAR
STARTCHAR U+0113
ENCODING 275
SWIDTH 480 0
DWIDTH 6 0
BBX 5 7 1 0
BITMAP
70
00
70
88
B0
80
70
ENDCHAR
STARTCHAR U+0114
ENCODING 276
SWIDTH 480 0
DWIDTH 6 0
BBX 5 12 1 0
BITMAP
50
70
00
70
90
80
80
60
80
80
88
70
ENDCHAR
STARTCHAR U+0115
ENCODING 277
SWIDTH 480 0
DWIDTH 6 0
BBX 5 8 1 0
BITMAP
50
70
00
70
88
B0
80
70
ENDCHAR
STARTCHAR U+0116
ENCODING 278
SWIDTH 480 0
DWIDTH 6 0
BBX 5 11 1 0
BITMAP
20
00
70
90
80
80
60
80
80
88
70
ENDCHAR
STARTCHAR U+0117
ENCODING 279
SWIDTH 480 0
DWIDTH 6 0
BBX 5 7 1 0
BITMAP
20
00
70
88
B0
80
70
ENDCHAR
STARTCHAR U+0118
ENCODING 280
SWIDTH 480 0
DWIDTH 6 0
BBX 5 12 1 -3
BITMAP
70
90
80
80
60
80
80
88
78
08
10
18
ENDCHAR
STARTCHAR U+0119
ENCODING 281
SWIDTH 480 0
DWIDTH 6 0
BBX 5 8 1 -3
BITMAP
70
88
B0
80
78
08
10
18
ENDCHAR
STARTCHAR U+011A
ENCODING 282
SWIDTH 480 0
DWIDTH 6 0
BBX 5 12 1 0
BITMAP
50
20
00
70
90
80
80
60
80
80
88
70
ENDCHAR
STARTCHAR U+011B
ENCODING 283
SWIDTH 480 0
DWIDTH 6 0
BBX 5 8 1 0
BITMAP
50
20
00
70
88
B0
80
70
ENDCHAR
STARTCHAR U+011C
ENCODING 284
SWIDTH 480 0
DWIDTH 6 0
BBX 5 15 1 -3
BITMAP
20
50
00
70
90
80
80
98
88
88
98
68
08
08
10
ENDCHAR
STARTCHAR U+011D
ENCODING 285
SWIDTH 480 0
DWIDTH 6 0
BBX 5 11 1 -3
BITMAP
20
50
00
70
88
88
70
80
70
08
70
ENDCHAR
STARTCHAR U+011E
ENCODING 286
SWIDTH 480 0
DWIDTH 6 0
BBX 5 15 1 -3
BITMAP
50
70
00
70
90
80
80
98
88
88
98
68
08
08
10
ENDCHAR
STARTCHAR U+011F
ENCODING 287
SWIDTH 480 0
DWIDTH 6 0
BBX 5 11 1 -3
BITMAP
50
70
00
70
88
88
70
80
70
08
70
ENDCHAR
STARTCHAR U+0120
ENCODING 288
SWIDTH 480 0
DWIDTH 6 0
BBX 5 14 1 -3
BITMAP
20
00
70
90
80
80
98
88
88
98
68
08
08
10
ENDCHAR
STARTCHAR U+0121
ENCODING 289
SWIDTH 480 0
DWIDTH 6 0
BBX 5 10 1 -3
BITMAP
20
00
70
88
88
70
80
70
08
70
ENDCHAR
STARTCHAR U+0122
ENCODING 290
SWIDTH 480 0
DWIDTH 6 0
BBX 5 12 1 -3
BITMAP
70
90
80
80
98
88
88
98
68
00
20
60
ENDCHAR
STARTCHAR U+0123
ENCODING 291
SWIDTH 480 0
DWIDTH 6 0
BBX 5 11 1 -3
BITMAP
30
20
00
70
88
88
70
80
70
08
70
ENDCHAR
STARTCHAR U+0124
ENCODING 292
SWIDTH 480 0
DWIDTH 6 0
BBX 5 12 1 0
BITMAP
20
50
00
88
88
88
88
F8
88
88
88
88
ENDCHAR
STARTCHAR U+0125
ENCODING 293
SWIDTH 480 0
DWIDTH 6 0
BBX 5 12 1 0
BITMAP
40
A0
00
80
80
80
80
B0
C8
88
88
88
ENDCHAR
STARTCHAR U+0126
ENCODING 294
SWIDTH 480 0
DWIDTH 6 0
BBX 7 9 0 0
BITMAP
44
44
FE
44
7C
44
44
44
44
ENDCHAR
STARTCHAR U+0127
ENCODING 295
SWIDTH 480 0
DWIDTH 6 0
BBX 6 9 0 0
BITMAP
40
40
F0
40
58
64
44
44
44
ENDCHAR
STARTCHAR U+0128
ENCODING 296
SWIDTH 480 0
DWIDTH 6 0
BBX 5 12 1 0
BITMAP
68
58
00
F8
20
20
20
20
20
20
20
F8
ENDCHAR
STARTCHAR U+0129
ENCODING 297
SWIDTH 480 0
DWIDTH 6 0
BBX 5 8 1 0
BITMAP
68
58
00
20
E0
20
20
18
ENDCHAR
STARTCHAR U+012A
ENCODING 298
SWIDTH 480 0
DWIDTH 6 0
BBX 5 11 1 0
BITMAP
70
00
F8
20
20
20
20
20
20
20
F8
ENDCHAR
STARTCHAR U+012B
ENCODING 299
SWIDTH 480 0
DWIDTH 6 0
BBX 5 7 1 0
BITMAP
70
00
20
E0
20
20
18
ENDCHAR
STARTCHAR U+012C
ENCODING 300
SWIDTH 480 0
DWIDTH 6 0
BBX 5 12 1 0
BITMAP
50
70
00
F8
20
20
20
20
20
20
20
F8
ENDCHAR
STARTCHAR U+012D
ENCODING 301
SWIDTH 480 0
DWIDTH 6 0
BBX 5 8 1 0
BITMAP
50
70
00
20
E0
20
20
18
ENDCHAR
STARTCHAR U+012E
ENCODING 302
SWIDTH 480 0
DWIDTH 6 0
BBX 5 12 1 -3
BITMAP
F8
20
20
20
20
20
20
20
F8
20
40
60
ENDCHAR
STARTCHAR U+012F
ENCODING 303
SWIDTH 480 0
DWIDTH 6 0
BBX 5 10 1 -3
BITMAP
20
00
20
E0
20
20
18
20
40
60
ENDCHAR
STARTCHAR U+0130
ENCODING 304
SWIDTH 480 0
DWIDTH 6 0
BBX 5 11 1 0
BITMAP
20
00
F8
20
20
20
20
20
20
20
F8
ENDCHAR
STARTCHAR U+0131
ENCODING 305
SWIDTH 480 0
DWIDTH 6 0
BBX 5 5 1 0
BITMAP
20
E0
20
20
18
ENDCHAR
STARTCHAR U+0132
ENCODING 306
SWIDTH 480 0
DWIDTH 6 0
BBX 5 12 1 -3
BITMAP
E8
48
48
48
48
48
48
48
E8
08
48
30
ENDCHAR
STARTCHAR U+0133
ENCODING 307
SWIDTH 480 0
DWIDTH 6 0
BBX 5 10 1 -3
BITMAP
48
00
48
D8
48
48
28
08
48
30
ENDCHAR
STARTCHAR U+0134
ENCODING 308
SWIDTH 480 0
DWIDTH 6 0
BBX 5 15 1 -3
BITMAP
10
28
00
78
10
10
10
10
10
10
10
10
10
90
60
ENDCHAR
STARTCHAR U+0135
ENCODING 309
SWIDTH 480 0
DWIDTH 6 0
BBX 5 11 1 -3
BITMAP
10
28
00
10
70
10
10
10
10
90
60
ENDCHAR
STARTCHAR U+0136
ENCODING 310
SWIDTH 480 0
DWIDTH 6 0
BBX 5 12 1 -3
BITMAP
88
90
90
90
E0
90
90
90
88
00
20
60
ENDCHAR
STARTCHAR U+0137
ENCODING 311
SWIDTH 480 0
DWIDTH 6 0
BBX 5 12 1 -3
BITMAP
80
80
80
80
90
A0
C0
A0
98
00
20
60
ENDCHAR
STARTCHAR U+0138
ENCODING 312
SWIDTH 480 0
DWIDTH 6 0
BBX 5 5 1 0
BITMAP
90
A0
C0
A0
98
ENDCHAR
STARTCHAR U+0139
ENCODING 313
SWIDTH 480 0
DWIDTH 6 0
BBX 5 12 1 0
BITMAP
40
80
00
80
80
80
80
80
80
80
88
70
ENDCHAR
STARTCHAR U+013A
ENCODING 314
SWIDTH 480 0
DWIDTH 6 0
BBX 5 12 1 0
BITMAP
10
20
00
20
E0
20
20
20
20
20
20
18
ENDCHAR
STARTCHAR U+013B
ENCODING 315
SWIDTH 480 0
DWIDTH 6 0
BBX 5 12 1 -3
BITMAP
80
80
80
80
80
80
80
88
70
00
20
60
ENDCHAR
STARTCHAR U+013C
ENCODING 316
SWIDTH 480 0
DWIDTH 6 0
BBX 5 12 1 -3
BITMAP
20
E0
20
20
20
20
20
20
18
00
20
60
ENDCHAR
STARTCHAR U+013D
ENCODING 317
SWIDTH 480 0
DWIDTH 6 0
BBX 5 10 1 0
BITMAP
10
90
A0
80
80
80
80
80
88
70
ENDCHAR
STARTCHAR U+013E
ENCODING 318
SWIDTH 480 0
DWIDTH 6 0
BBX 6 10 1 0
BITMAP
04
24
E8
20
20
20
20
20
20
18
ENDCHAR
STARTCHAR U+013F
ENCODING 319
SWIDTH 480 0
DWIDTH 6 0
BBX 5 9 1 0
BITMAP
80
80
80
80
A0
80
80
88
70
ENDCHAR
STARTCHAR U+0140
ENCODING 320
SWIDTH 480 0
DWIDTH 6 0
BBX 5 9 1 0
BITMAP
20
E0
20
20
28
20
20
20
18
ENDCHAR
STARTCHAR U+0141
ENCODING 321
SWIDTH 480 0
DWIDTH 6 0
BBX 6 9 0 0
BITMAP
40
40
40
40
60
C0
40
44
38
ENDCHAR
STARTCHAR U+0142
ENCODING 322
SWIDTH 480 0
DWIDTH 6 0
BBX 5 9 1 0
BITMAP
20
E0
20
20
30
60
20
20
18
ENDCHAR
STARTCHAR U+0143
ENCODING 323
SWIDTH 480 0
DWIDTH 6 0
BBX 5 12 1 0
BITMAP
10
20
00
88
88
C8
A8
A8
A8
98
88
88
ENDCHAR
STARTCHAR U+0144
ENCODING 324
SWIDTH 480 0
DWIDTH 6 0
BBX 5 8 1 0
BITMAP
10
20
00
B0
C8
88
88
88
ENDCHAR
STARTCHAR U+0145
ENCODING 325
SWIDTH 480 0
DWIDTH 6 0
BBX 5 12 1 -3
BITMAP
88
88
C8
A8
A8
A8
98
88
88
00
20
60
ENDCHAR
STARTCHAR U+0146
ENCODING 326
SWIDTH 480 0
DWIDTH 6 0
BBX 5 8 1 -3
BITMAP
B0
C8
88
88
88
00
20
60
ENDCHAR
STARTCHAR U+0147
ENCODING 327
SWIDTH 480 0
DWIDTH 6 0
BBX 5 12 1 0
BITMAP
50
20
00
88
88
C8
A8
A8
A8
98
88
88
ENDCHAR
STARTCHAR U+0148
ENCODING 328
SWIDTH 480 0
DWIDTH 6 0
BBX 5 8 1 0
BITMAP
50
20
00
B0
C8
88
88
88
ENDCHAR
STARTCHAR U+0149
ENCODING 329
SWIDTH 480 0
DWIDTH 6 0
BBX 6 9 0 0
BITMAP
40
40
80
00
58
64
44
44
44
ENDCHAR
STARTCHAR U+014A
ENCODING 330
SWIDTH 480 0
DWIDTH 6 0
BBX 5 12 1 -3
BITMAP
88
88
C8
A8
A8
A8
98
88
88
08
08
30
ENDCHAR
STARTCHAR U+014B
ENCODING 331
SWIDTH 480 0
DWIDTH 6 0
BBX 5 8 1 -3
BITMAP
B0
C8
88
88
88
08
08
30
ENDCHAR
STARTCHAR U+014C
ENCODING 332
SWIDTH 480 0
DWIDTH 6 0
BBX 5 11 1 0
BITMAP
70
00
70
88
88
88
88
88
88
90
60
ENDCHAR
STARTCHAR U+014D
ENCODING 333
SWIDTH 480 0
DWIDTH 6 0
BBX 5 7 1 0
BITMAP
70
00
70
88
88
88
70
ENDCHAR
STARTCHAR U+014E
ENCODING 334
SWIDTH 480 0
DWIDTH 6 0
BBX 5 12 1 0
BITMAP
50
70
00
70
88
88
88
88
88
88
90
60
ENDCHAR
STARTCHAR U+014F
ENCODING 335
SWIDTH 480 0
DWIDTH 6 0
BBX 5 8 1 0
BITMAP
50
70
00
70
88
88
88
70
ENDCHAR
STARTCHAR U+0150
ENCODING 336
SWIDTH 480 0
DWIDTH 6 0
BBX 5 12 1 0
BITMAP
28
50
00
70
88
88
88
88
88
88
90
60
ENDCHAR
STARTCHAR U+0151
ENCODING 337
SWIDTH 480 0
DWIDTH 6 0
BBX 5 8 1 0
BITMAP
28
50
00
70
88
88
88
70
ENDCHAR
STARTCHAR U+0152
ENCODING 338
SWIDTH 480 0
DWIDTH 6 0
BBX 5 9 1 0
BITMAP
78
A0
A0
A0
B8
A0
A0
A0
78
ENDCHAR
STARTCHAR U+0153
ENCODING 339
SWIDTH 480 0
DWIDTH 6 0
BBX 5 5 1 0
BITMAP
50
A8
B0
A0
58
ENDCHAR
STARTCHAR U+0154
ENCODING 340
SWIDTH 480 0
DWIDTH 6 0
BBX 5 12 1 0
BITMAP
10
20
00
70
88
88
90
A0
90
90
90
88
ENDCHAR
STARTCHAR U+0155
ENCODING 341
SWIDTH 480 0
DWIDTH 6 0
BBX 5 8 1 0
BITMAP
10
20
00
D8
60
40
40
40
ENDCHAR
STARTCHAR U+0156
ENCODING 342
SWIDTH 480 0
DWIDTH 6 0
BBX 5 12 1 -3
BITMAP
70
88
88
90
A0
90
90
90
88
00
20
60
ENDCHAR
STARTCHAR U+0157
ENCODING 343
SWIDTH 480 0
DWIDTH 6 0
BBX 5 8 1 -3
BITMAP
D8
60
40
40
40
00
20
60
ENDCHAR
STARTCHAR U+0158
ENCODING 344
SWIDTH 480 0
DWIDTH 6 0
BBX 5 12 1 0
BITMAP
50
20
00
70
88
88
90
A0
90
90
90
88
ENDCHAR
STARTCHAR U+0159
ENCODING 345
SWIDTH 480 0
DWIDTH 6 0
BBX 5 8 1 0
BITMAP
50
20
00
D8
60
40
40
40
ENDCHAR
STARTCHAR U+015A
ENCODING 346
SWIDTH 480 0
DWIDTH 6 0
BBX 5 12 1 0
BITMAP
10
20
00
70
90
80
80
70
08
08
88
70
ENDCHAR
STARTCHAR U+015B
ENCODING 347
SWIDTH 480 0
DWIDTH 6 0
BBX 5 8 1 0
BITMAP
10
20
00
70
80
70
08
70
ENDCHAR
STARTCHAR U+015C
ENCODING 348
SWIDTH 480 0
DWIDTH 6 0
BBX 5 12 1 0
BITMAP
20
50
00
70
90
80
80
70
08
08
88
70
ENDCHAR
STARTCHAR U+015D
ENCODING 349
SWIDTH 480 0
DWIDTH 6 0
BBX 5 8 1 0
BITMAP
20
50
00
70
80
70
08
70
ENDCHAR
STARTCHAR U+015E
ENCODING 350
SWIDTH 480 0
DWIDTH 6 0
BBX 5 12 1 -3
BITMAP
70
90
80
80
70
08
08
88
70
20
10
60
ENDCHAR
STARTCHAR U+015F
ENCODING 351
SWIDTH 480 0
DWIDTH 6 0
BBX 5 8 1 -3
BITMAP
70
80
70
08
70
20
10
60
ENDCHAR
STARTCHAR U+0160
ENCODING 352
SWIDTH 480 0
DWIDTH 6 0
BBX 5 12 1 0
BITMAP
50
20
00
70
90
80
80
70
08
08
88
70
ENDCHAR
STARTCHAR U+0161
ENCODING 353
SWIDTH 480 0
DWIDTH 6 0
BBX 5 8 1 0
BITMAP
50
20
00
70
80
70
08
70
ENDCHAR
STARTCHAR U+0162
ENCODING 354
SWIDTH 480 0
DWIDTH 6 0
BBX 5 12 1 -3
BITMAP
F8
20
20
20
20
20
20
20
20
20
10
60
ENDCHAR
STARTCHAR U+0163
ENCODING 355
SWIDTH 480 0
DWIDTH 6 0
BBX 5 9 1 -3
BITMAP
40
F0
40
40
48
30
20
10
60
ENDCHAR
STARTCHAR U+0164
ENCODING 356
SWIDTH 480 0
DWIDTH 6 0
BBX 5 12 1 0
BITMAP
50
20
00
F8
20
20
20
20
20
20
20
20
ENDCHAR
STARTCHAR U+0165
ENCODING 357
SWIDTH 480 0
DWIDTH 6 0
BBX 5 9 1 0
BITMAP
08
08
10
40
F0
40
40
48
30
ENDCHAR
STARTCHAR U+0166
ENCODING 358
SWIDTH 480 0
DWIDTH 6 0
BBX 5 9 1 0
BITMAP
F8
20
20
20
70
20
20
20
20
ENDCHAR
STARTCHAR U+0167
ENCODING 359
SWIDTH 480 0
DWIDTH 6 0
BBX 5 7 1 0
BITMAP
40
F0
40
F0
40
48
30
ENDCHAR
STARTCHAR U+0168
ENCODING 360
SWIDTH 480 0
DWIDTH 6 0
BBX 5 12 1 0
BITMAP
68
58
00
88
88
88
88
88
88
88
90
60
ENDCHAR
STARTCHAR U+0169
ENCODING 361
SWIDTH 480 0
DWIDTH 6 0
BBX 5 8 1 0
BITMAP
68
58
00
88
88
88
98
68
ENDCHAR
STARTCHAR U+016A
ENCODING 362
SWIDTH 480 0
DWIDTH 6 0
BBX 5 11 1 0
BITMAP
70
00
88
88
88
88
88
88
88
90
60
ENDCHAR
STARTCHAR U+016B
ENCODING 363
SWIDTH 480 0
DWIDTH 6 0
BBX 5 7 1 0
BITMAP
70
00
88
88
88
98
68
ENDCHAR
STARTCHAR U+016C
ENCODING 364
SWIDTH 480 0
DWIDTH 6 0
BBX 5 12 1 0
BITMAP
50
70
00
88
88
88
88
88
88
88
90
60
ENDCHAR
STARTCHAR U+016D
ENCODING 365
SWIDTH 480 0
DWIDTH 6 0
BBX 5 8 1 0
BITMAP
50
70
00
88
88
88
98
68
ENDCHAR
STARTCHAR U+016E
ENCODING 366
SWIDTH 480 0
DWIDTH 6 0
BBX 5 12 1 0
BITMAP
20
50
20
88
88
88
88
88
88
88
90
60
ENDCHAR
STARTCHAR U+016F
ENCODING 367
SWIDTH 480 0
DWIDTH 6 0
BBX 5 9 1 0
BITMAP
20
50
20
00
88
88
88
98
68
ENDCHAR
STARTCHAR U+0170
ENCODING 368
SWIDTH 480 0
DWIDTH 6 0
BBX 5 12 1 0
BITMAP
28
50
00
88
88
88
88
88
88
88
90
60
ENDCHAR
STARTCHAR U+0171
ENCODING 369
SWIDTH 480 0
DWIDTH 6 0
BBX 5 8 1 0
BITMAP
28
50
00
88
88
88
98
68
ENDCHAR
STARTCHAR U+0172
ENCODING 370
SWIDTH 480 0
DWIDTH 6 0
BBX 5 12 1 -3
BITMAP
88
88
88
88
88
88
88
90
60
20
40
60
ENDCHAR
STARTCHAR U+0173
ENCODING 371
SWIDTH 480 0
DWIDTH 6 0
BBX 5 8 1 -3
BITMAP
88
88
88
98
68
08
10
18
ENDCHAR
STARTCHAR U+0174
ENCODING 372
SWIDTH 480 0
DWIDTH 6 0
BBX 5 12 1 0
BITMAP
20
50
00
88
88
A8
A8
A8
A8
A8
50
50
ENDCHAR
STARTCHAR U+0175
ENCODING 373
SWIDTH 480 0
DWIDTH 6 0
BBX 5 8 1 0
BITMAP
20
50
00
A8
A8
A8
50
50
ENDCHAR
STARTCHAR U+0176
ENCODING 374
SWIDTH 480 0
DWIDTH 6 0
BBX 5 15 1 -3
BITMAP
20
50
00
88
50
50
50
30
10
10
10
10
10
90
60
ENDCHAR
STARTCHAR U+0177
ENCODING 375
SWIDTH 480 0
DWIDTH 6 0
BBX 5 11 1 -3
BITMAP
20
50
00
88
50
50
50
20
20
20
40
ENDCHAR
STARTCHAR U+0178
ENCODING 376
SWIDTH 480 0
DWIDTH 6 0
BBX 5 14 1 -3
BITMAP
50
00
88
50
50
50
30
10
10
10
10
10
90
60
ENDCHAR
STARTCHAR U+0179
ENCODING 377
SWIDTH 480 0
DWIDTH 6 0
BBX 5 12 1 0
BITMAP
10
20
00
F8
90
10
20
20
20
40
48
F8
ENDCHAR
STARTCHAR U+017A
ENCODING 378
SWIDTH 480 0
DWIDTH 6 0
BBX 5 8 1 0
BITMAP
10
20
00
F8
10
20
40
F8
ENDCHAR
STARTCHAR U+017B
ENCODING 379
SWIDTH 480 0
DWIDTH 6 0
BBX 5 11 1 0
BITMAP
20
00
F8
90
10
20
20
20
40
48
F8
ENDCHAR
STARTCHAR U+017C
ENCODING 380
SWIDTH 480 0
DWIDTH 6 0
BBX 5 7 1 0
BITMAP
20
00
F8
10
20
40
F8
ENDCHAR
STARTCHAR U+017D
ENCODING 381
SWIDTH 480 0
DWIDTH 6 0
BBX 5 12 1 0
BITMAP
50
20
00
F8
90
10
20
20
20
40
48
F8
ENDCHAR
STARTCHAR U+017E
ENCODING 382
SWIDTH 480 0
DWIDTH 6 0
BBX 5 8 1 0
BITMAP
50
20
00
F8
10
20
40
F8
ENDCHAR
STARTCHAR U+017F
ENCODING 383
SWIDTH 480 0
DWIDTH 6 0
BBX 4 9 2 0
BITMAP
60
90
80
80
80
80
80
80
80
ENDCHAR
STARTCHAR U+0180
ENCODING 384
SWIDTH 480 0
DWIDTH 6 0
BBX 6 9 0 0
BITMAP
40
40
F0
40
58
64
44
44
58
ENDCHAR
STARTCHAR U+0181
ENCODING 385
SWIDTH 480 0
DWIDTH 6 0
BBX 6 9 0 0
BITMAP
78
84
24
28
24
24
24
28
30
ENDCHAR
STARTCHAR U+0182
ENCODING 386
SWIDTH 480 0
DWIDTH 6 0
BBX 5 9 1 0
BITMAP
F0
90
80
80
80
B0
88
88
F0
ENDCHAR
STARTCHAR U+0183
ENCODING 387
SWIDTH 480 0
DWIDTH 6 0
BBX 5 9 1 0
BITMAP
F0
90
80
80
B0
C8
88
88
B0
ENDCHAR
STARTCHAR U+0184
ENCODING 388
SWIDTH 480 0
DWIDTH 6 0
BBX 6 8 0 0
BITMAP
40
C0
40
40
58
44
44
78
ENDCHAR
STARTCHAR U+0185
ENCODING 389
SWIDTH 480 0
DWIDTH 6 0
BBX 6 9 0 0
BITMAP
40
C0
40
40
58
64
44
44
58
ENDCHAR
STARTCHAR U+0186
ENCODING 390
SWIDTH 480 0
DWIDTH 6 0
BBX 5 9 1 0
BITMAP
70
88
08
08
08
08
08
90
60
ENDCHAR
STARTCHAR U+0187
ENCODING 391
SWIDTH 480 0
DWIDTH 6 0
BBX 6 12 1 0
BITMAP
08
14
10
70
90
80
80
80
80
80
88
70
ENDCHAR
STARTCHAR U+0188
ENCODING 392
SWIDTH 480 0
DWIDTH 6 0
BBX 6 8 1 0
BITMAP
08
14
10
70
80
80
88
70
ENDCHAR
STARTCHAR U+0189
ENCODING 393
SWIDTH 480 0
DWIDTH 6 0
BBX 6 9 0 0
BITMAP
38
44
44
44
E4
48
50
60
40
ENDCHAR
STARTCHAR U+018A
ENCODING 394
SWIDTH 480 0
DWIDTH 6 0
BBX 6 9 0 0
BITMAP
78
84
24
24
24
24
28
30
20
ENDCHAR
STARTCHAR U+018B
ENCODING 395
SWIDTH 480 0
DWIDTH 6 0
BBX 5 9 1 0
BITMAP
78
48
08
08
08
68
88
88
78
ENDCHAR
STARTCHAR U+018C
ENCODING 396
SWIDTH 480 0
DWIDTH 6 0
BBX 5 9 1 0
BITMAP
78
48
08
08
68
98
88
88
68
ENDCHAR
STARTCHAR U+018D
ENCODING 397
SWIDTH 480 0
DWIDTH 6 0
BBX 5 8 1 -3
BITMAP
70
88
88
88
50
20
10
60
ENDCHAR
STARTCHAR U+018E
ENCODING 398
SWIDTH 480 0
DWIDTH 6 0
BBX 5 9 1 0
BITMAP
70
48
08
08
30
08
08
88
70
ENDCHAR
STARTCHAR U+018F
ENCODING 399
SWIDTH 480 0
DWIDTH 6 0
BBX 5 9 1 0
BITMAP
70
48
08
08
E8
88
88
88
70
ENDCHAR
STARTCHAR U+0190
ENCODING 400
SWIDTH 480 0
DWIDTH 6 0
BBX 5 9 1 0
BITMAP
70
90
80
80
60
80
80
88
70
ENDCHAR
STARTCHAR U+0191
ENCODING 401
SWIDTH 480 0
DWIDTH 6 0
BBX 7 12 -1 -3
BITMAP
1E
22
20
20
3C
20
20
20
20
20
A0
40
ENDCHAR
STARTCHAR U+0192
ENCODING 402
SWIDTH 480 0
DWIDTH 6 0
BBX 5 12 1 -3
BITMAP
18
20
20
20
F8
20
20
20
20
20
A0
40
ENDCHAR
STARTCHAR U+0193
ENCODING 403
SWIDTH 480 0
DWIDTH 6 0
BBX 6 15 1 -3
BITMAP
08
14
10
70
90
80
80
98
88
88
98
68
08
08
10
ENDCHAR
STARTCHAR U+0194
ENCODING 404
SWIDTH 480 0
DWIDTH 6 0
BBX 5 12 1 -3
BITMAP
88
50
50
50
50
50
50
20
20
50
50
20
ENDCHAR
STARTCHAR U+0195
ENCODING 405
SWIDTH 480 0
DWIDTH 6 0
BBX 5 9 1 0
BITMAP
80
80
80
80
C8
A8
A8
A8
90
ENDCHAR
STARTCHAR U+0196
ENCODING 406
SWIDTH 480 0
DWIDTH 6 0
BBX 4 9 2 0
BITMAP
40
C0
40
40
40
40
40
50
20
ENDCHAR
STARTCHAR U+0197
ENCODING 407
SWIDTH 480 0
DWIDTH 6 0
BBX 5 9 1 0
BITMAP
F8
20
20
20
70
20
20
20
F8
ENDCHAR
STARTCHAR U+0198
ENCODING 408
SWIDTH 480 0
DWIDTH 6 0
BBX 6 9 1 0
BITMAP
88
94
90
90
E0
90
90
90
88
ENDCHAR
STARTCHAR U+0199
ENCODING 409
SWIDTH 480 0
DWIDTH 6 0
BBX 5 9 1 0
BITMAP
40
A0
80
80
90
A0
C0
A0
98
ENDCHAR
STARTCHAR U+019A
ENCODING 410
SWIDTH 480 0
DWIDTH 6 0
BBX 5 9 1 0
BITMAP
20
E0
20
20
70
20
20
20
18
ENDCHAR
STARTCHAR U+019B
ENCODING 411
SWIDTH 480 0
DWIDTH 6 0
BBX 5 8 1 0
BITMAP
40
20
F8
20
50
50
90
88
ENDCHAR
STARTCHAR U+019C
ENCODING 412
SWIDTH 480 0
DWIDTH 6 0
BBX 5 9 1 0
BITMAP
A8
A8
A8
A8
A8
A8
A8
A8
58
ENDCHAR
STARTCHAR U+019D
ENCODING 413
SWIDTH 480 0
DWIDTH 6 0
BBX 6 12 0 -3
BITMAP
24
24
24
34
34
2C
2C
24
24
20
A0
40
ENDCHAR
STARTCHAR U+019E
ENCODING 414
SWIDTH 480 0
DWIDTH 6 0
BBX 5 8 1 -3
BITMAP
B0
C8
88
88
88
08
08
08
ENDCHAR
STARTCHAR U+019F
ENCODING 415
SWIDTH 480 0
DWIDTH 6 0
BBX 5 9 1 0
BITMAP
70
88
88
88
F8
88
88
88
70
ENDCHAR
STARTCHAR U+01A0
ENCODING 416
SWIDTH 480 0
DWIDTH 6 0
BBX 6 10 1 0
BITMAP
04
74
88
88
88
88
88
88
90
60
ENDCHAR
STARTCHAR U+01A1
ENCODING 417
SWIDTH 480 0
DWIDTH 6 0
BBX 6 6 1 0
BITMAP
04
74
88
88
88
70
ENDCHAR
STARTCHAR U+01A2
ENCODING 418
SWIDTH 480 0
DWIDTH 6 0
BBX 5 12 1 -3
BITMAP
50
A8
A8
A8
A8
A8
A8
A8
68
08
08
08
ENDCHAR
STARTCHAR U+01A3
ENCODING 419
SWIDTH 480 0
DWIDTH 6 0
BBX 5 8 1 -3
BITMAP
50
A8
A8
A8
68
08
08
08
ENDCHAR
STARTCHAR U+01A4
ENCODING 420
SWIDTH 480 0
DWIDTH 6 0
BBX 6 9 0 0
BITMAP
78
84
24
28
30
20
20
20
20
ENDCHAR
STARTCHAR U+01A5
ENCODING 421
SWIDTH 480 0
DWIDTH 6 0
BBX 5 12 1 -3
BITMAP
40
A0
80
80
B0
C8
88
88
B0
80
80
80
ENDCHAR
STARTCHAR U+01A6
ENCODING 422
SWIDTH 480 0
DWIDTH 6 0
BBX 5 11 1 -2
BITMAP
80
80
F0
88
90
A0
90
90
90
10
08
ENDCHAR
STARTCHAR U+01A7
ENCODING 423
SWIDTH 480 0
DWIDTH 6 0
BBX 5 9 1 0
BITMAP
70
48
08
08
70
80
80
88
70
ENDCHAR
STARTCHAR U+01A8
ENCODING 424
SWIDTH 480 0
DWIDTH 6 0
BBX 5 5 1 0
BITMAP
70
08
70
80
70
ENDCHAR
STARTCHAR U+01A9
ENCODING 425
SWIDTH 480 0
DWIDTH 6 0
BBX 5 9 1 0
BITMAP
F8
48
20
20
10
20
20
48
F8
ENDCHAR
STARTCHAR U+01AA
ENCODING 426
SWIDTH 480 0
DWIDTH 6 0
BBX 5 12 1 -3
BITMAP
40
A0
60
20
20
20
20
20
20
20
20
18
ENDCHAR
STARTCHAR U+01AB
ENCODING 427
SWIDTH 480 0
DWIDTH 6 0
BBX 5 9 1 -3
BITMAP
40
F0
40
40
48
38
08
28
10
ENDCHAR
STARTCHAR U+01AC
ENCODING 428
SWIDTH 480 0
DWIDTH 6 0
BBX 6 9 0 0
BITMAP
7C
90
10
10
10
10
10
10
10
ENDCHAR
STARTCHAR U+01AD
ENCODING 429
SWIDTH 480 0
DWIDTH 6 0
BBX 5 9 1 0
BITMAP
20
50
40
40
F0
40
40
48
30
ENDCHAR
STARTCHAR U+01AE
ENCODING 430
SWIDTH 480 0
DWIDTH 6 0
BBX 5 12 1 -3
BITMAP
F8
20
20
20
20
20
20
20
20
20
28
10
ENDCHAR
STARTCHAR U+01AF
ENCODING 431
SWIDTH 480 0
DWIDTH 6 0
BBX 6 10 1 0
BITMAP
04
84
88
88
88
88
88
88
90
60
ENDCHAR
STARTCHAR U+01B0
ENCODING 432
SWIDTH 480 0
DWIDTH 6 0
BBX 6 6 1 0
BITMAP
04
84
88
88
98
68
ENDCHAR
STARTCHAR U+01B1
ENCODING 433
SWIDTH 480 0
DWIDTH 6 0
BBX 5 9 1 0
BITMAP
D8
50
88
88
88
88
88
88
70
ENDCHAR
STARTCHAR U+01B2
ENCODING 434
SWIDTH 480 0
DWIDTH 6 0
BBX 5 9 1 0
BITMAP
90
A8
88
88
88
88
88
90
60
ENDCHAR
STARTCHAR U+01B3
ENCODING 435
SWIDTH 480 0
DWIDTH 6 0
BBX 6 12 1 -3
BITMAP
88
54
50
50
30
10
10
10
10
10
90
60
ENDCHAR
STARTCHAR U+01B4
ENCODING 436
SWIDTH 480 0
DWIDTH 6 0
BBX 6 10 1 -3
BITMAP
08
14
90
50
50
50
20
20
20
40
ENDCHAR
STARTCHAR U+01B5
ENCODING 437
SWIDTH 480 0
DWIDTH 6 0
BBX 5 9 1 0
BITMAP
F8
90
10
20
F8
20
40
48
F8
ENDCHAR
STARTCHAR U+01B6
ENCODING 438
SWIDTH 480 0
DWIDTH 6 0
BBX 5 5 1 0
BITMAP
F8
10
F8
40
F8
ENDCHAR
STARTCHAR U+01B7
ENCODING 439
SWIDTH 480 0
DWIDTH 6 0
BBX 5 12 1 -3
BITMAP
F8
90
10
20
20
70
08
08
08
08
88
70
ENDCHAR
STARTCHAR U+01B8
ENCODING 440
SWIDTH 480 0
DWIDTH 6 0
BBX 5 12 1 -3
BITMAP
F8
48
40
20
20
70
80
80
80
80
88
70
ENDCHAR
STARTCHAR U+01B9
ENCODING 441
SWIDTH 480 0
DWIDTH 6 0
BBX 5 8 1 -3
BITMAP
F8
40
20
70
80
80
88
70
ENDCHAR
STARTCHAR U+01BA
ENCODING 442
SWIDTH 480 0
DWIDTH 6 0
BBX 5 8 1 -3
BITMAP
F8
10
20
70
08
70
80
70
ENDCHAR
STARTCHAR U+01BB
ENCODING 443
SWIDTH 480 0
DWIDTH 6 0
BBX 5 8 1 0
BITMAP
70
88
08
F8
10
20
40
F8
ENDCHAR
STARTCHAR U+01BC
ENCODING 444
SWIDTH 480 0
DWIDTH 6 0
BBX 5 8 1 0
BITMAP
F8
48
40
70
08
08
88
70
ENDCHAR
STARTCHAR U+01BD
ENCODING 445
SWIDTH 480 0
DWIDTH 6 0
BBX 5 5 1 0
BITMAP
F8
40
70
08
F0
ENDCHAR
STARTCHAR U+01BE
ENCODING 446
SWIDTH 480 0
DWIDTH 6 0
BBX 5 7 1 0
BITMAP
40
40
F0
40
70
08
F0
ENDCHAR
STARTCHAR U+01BF
ENCODING 447
SWIDTH 480 0
DWIDTH 6 0
BBX 5 8 1 -3
BITMAP
B0
C8
88
88
90
A0
80
80
ENDCHAR
STARTCHAR U+01C0
ENCODING 448
SWIDTH 480 0
DWIDTH 6 0
BBX 1 9 3 0
BITMAP
80
80
80
80
80
80
80
80
80
ENDCHAR
STARTCHAR U+01C1
ENCODING 449
SWIDTH 480 0
DWIDTH 6 0
BBX 3 9 2 0
BITMAP
A0
A0
A0
A0
A0
A0
A0
A0
A0
ENDCHAR
STARTCHAR U+01C2
ENCODING 450
SWIDTH 480 0
DWIDTH 6 0
BBX 5 9 1 0
BITMAP
20
20
20
F8
20
F8
20
20
20
ENDCHAR
STARTCHAR U+01C3
ENCODING 451
SWIDTH 480 0
DWIDTH 6 0
BBX 1 9 3 0
BITMAP
80
80
80
80
80
80
80
00
80
ENDCHAR
STARTCHAR U+01C4
ENCODING 452
SWIDTH 480 0
DWIDTH 6 0
BBX 6 12 0 0
BITMAP
14
08
00
DC
A4
A4
A8
A8
A8
B0
B0
DC
ENDCHAR
STARTCHAR U+01C5
ENCODING 453
SWIDTH 480 0
DWIDTH 6 0
BBX 6 9 0 0
BITMAP
C0
B4
A8
A0
BC
A4
A8
B0
DC
ENDCHAR
STARTCHAR U+01C6
ENCODING 454
SWIDTH 480 0
DWIDTH 6 0
BBX 6 9 0 0
BITMAP
20
34
28
20
7C
A4
A8
B0
5C
ENDCHAR
STARTCHAR U+01C7
ENCODING 455
SWIDTH 480 0
DWIDTH 6 0
BBX 5 12 1 -3
BITMAP
98
88
88
88
88
88
88
88
E8
08
08
30
ENDCHAR
STARTCHAR U+01C8
ENCODING 456
SWIDTH 480 0
DWIDTH 6 0
BBX 5 12 1 -3
BITMAP
80
80
88
80
88
98
88
88
E8
08
08
30
ENDCHAR
STARTCHAR U+01C9
ENCODING 457
SWIDTH 480 0
DWIDTH 6 0
BBX 5 12 1 -3
BITMAP
40
C0
48
40
48
58
48
48
28
08
08
30
ENDCHAR
STARTCHAR U+01CA
ENCODING 458
SWIDTH 480 0
DWIDTH 6 0
BBX 5 12 1 -3
BITMAP
C8
A8
A8
A8
A8
A8
A8
A8
A8
08
08
30
ENDCHAR
STARTCHAR U+01CB
ENCODING 459
SWIDTH 480 0
DWIDTH 6 0
BBX 5 12 1 -3
BITMAP
C0
A0
A8
A0
A8
A8
A8
A8
A8
08
08
30
ENDCHAR
STARTCHAR U+01CC
ENCODING 460
SWIDTH 480 0
DWIDTH 6 0
BBX 5 10 1 -3
BITMAP
08
00
C8
A8
A8
A8
A8
08
08
30
ENDCHAR
STARTCHAR U+01CD
ENCODING 461
SWIDTH 480 0
DWIDTH 6 0
BBX 5 12 1 0
BITMAP
28
10
00
08
18
28
48
F8
88
88
88
88
ENDCHAR
STARTCHAR U+01CE
ENCODING 462
SWIDTH 480 0
DWIDTH 6 0
BBX 5 8 1 0
BITMAP
50
20
00
70
08
78
88
68
ENDCHAR
STARTCHAR U+01CF
ENCODING 463
SWIDTH 480 0
DWIDTH 6 0
BBX 5 12 1 0
BITMAP
50
20
00
F8
20
20
20
20
20
20
20
F8
ENDCHAR
STARTCHAR U+01D0
ENCODING 464
SWIDTH 480 0
DWIDTH 6 0
BBX 5 8 1 0
BITMAP
50
20
00
20
E0
20
20
18
ENDCHAR
STARTCHAR U+01D1
ENCODING 465
SWIDTH 480 0
DWIDTH 6 0
BBX 5 12 1 0
BITMAP
50
20
00
70
88
88
88
88
88
88
90
60
ENDCHAR
STARTCHAR U+01D2
ENCODING 466
SWIDTH 480 0
DWIDTH 6 0
BBX 5 8 1 0
BITMAP
50
20
00
70
88
88
88
70
ENDCHAR
STARTCHAR U+01D3
ENCODING 467
SWIDTH 480 0
DWIDTH 6 0
BBX 5 12 1 0
BITMAP
50
20
00
88
88
88
88
88
88
88
90
60
ENDCHAR
STARTCHAR U+01D4
ENCODING 468
SWIDTH 480 0
DWIDTH 6 0
BBX 5 8 1 0
BITMAP
50
20
00
88
88
88
98
68
ENDCHAR
STARTCHAR U+01D5
ENCODING 469
SWIDTH 480 0
DWIDTH 6 0
BBX 5 12 1 0
BITMAP
70
00
50
00
88
88
88
88
88
88
90
60
ENDCHAR
STARTCHAR U+01D6
ENCODING 470
SWIDTH 480 0
DWIDTH 6 0
BBX 5 9 1 0
BITMAP
70
00
50
00
88
88
88
98
68
ENDCHAR
STARTCHAR U+01D7
ENCODING 471
SWIDTH 480 0
DWIDTH 6 0
BBX 5 12 1 0
BITMAP
10
20
00
50
00
88
88
88
88
88
90
60
ENDCHAR
STARTCHAR U+01D8
ENCODING 472
SWIDTH 480 0
DWIDTH 6 0
BBX 5 10 1 0
BITMAP
10
20
00
50
00
88
88
88
98
68
ENDCHAR
STARTCHAR U+01D9
ENCODING 473
SWIDTH 480 0
DWIDTH 6 0
BBX 5 12 1 0
BITMAP
50
20
00
50
00
88
88
88
88
88
90
60
ENDCHAR
STARTCHAR U+01DA
ENCODING 474
SWIDTH 480 0
DWIDTH 6 0
BBX 5 10 1 0
BITMAP
50
20
00
50
00
88
88
88
98
68
ENDCHAR
STARTCHAR U+01DB
ENCODING 475
SWIDTH 480 0
DWIDTH 6 0
BBX 5 12 1 0
BITMAP
40
20
00
88
88
88
88
88
88
88
90
60
ENDCHAR
STARTCHAR U+01DC
ENCODING 476
SWIDTH 480 0
DWIDTH 6 0
BBX 5 8 1 0
BITMAP
40
20
00
88
88
88
98
68
ENDCHAR
STARTCHAR U+01DD
ENCODING 477
SWIDTH 480 0
DWIDTH 6 0
BBX 5 5 1 0
BITMAP
70
08
68
88
70
ENDCHAR
STARTCHAR U+01DE
ENCODING 478
SWIDTH 480 0
DWIDTH 6 0
BBX 5 12 1 0
BITMAP
38
00
28
00
08
18
28
48
F8
88
88
88
ENDCHAR
STARTCHAR U+01DF
ENCODING 479
SWIDTH 480 0
DWIDTH 6 0
BBX 5 9 1 0
BITMAP
70
00
50
00
70
08
78
88
68
ENDCHAR
STARTCHAR U+01E0
ENCODING 480
SWIDTH 480 0
DWIDTH 6 0
BBX 5 12 1 0
BITMAP
38
00
10
00
08
18
28
48
F8
88
88
88
ENDCHAR
STARTCHAR U+01E1
ENCODING 481
SWIDTH 480 0
DWIDTH 6 0
BBX 5 9 1 0
BITMAP
70
00
20
00
70
08
78
88
68
ENDCHAR
STARTCHAR U+01E2
ENCODING 482
SWIDTH 480 0
DWIDTH 6 0
BBX 5 11 1 0
BITMAP
70
00
78
A0
A0
A0
F8
A0
A0
A0
B8
ENDCHAR
STARTCHAR U+01E3
ENCODING 483
SWIDTH 480 0
DWIDTH 6 0
BBX 5 7 1 0
BITMAP
70
00
50
28
70
A0
58
ENDCHAR
STARTCHAR U+01E4
ENCODING 484
SWIDTH 480 0
DWIDTH 6 0
BBX 6 12 1 -3
BITMAP
70
90
80
80
98
88
BC
88
78
08
08
10
ENDCHAR
STARTCHAR U+01E5
ENCODING 485
SWIDTH 480 0
DWIDTH 6 0
BBX 7 9 0 -3
BITMAP
04
38
44
44
38
40
FE
04
38
ENDCHAR
STARTCHAR U+01E6
ENCODING 486
SWIDTH 480 0
DWIDTH 6 0
BBX 5 15 1 -3
BITMAP
50
20
00
70
90
80
80
98
88
88
98
68
08
08
10
ENDCHAR
STARTCHAR U+01E7
ENCODING 487
SWIDTH 480 0
DWIDTH 6 0
BBX 5 11 1 -3
BITMAP
50
20
00
70
88
88
70
80
70
08
70
ENDCHAR
STARTCHAR U+01E8
ENCODING 488
SWIDTH 480 0
DWIDTH 6 0
BBX 5 12 1 0
BITMAP
50
20
00
88
90
90
90
E0
90
90
90
88
ENDCHAR
STARTCHAR U+01E9
ENCODING 489
SWIDTH 480 0
DWIDTH 6 0
BBX 5 11 1 0
BITMAP
50
20
80
80
80
80
90
A0
C0
A0
98
ENDCHAR
STARTCHAR U+01EA
ENCODING 490
SWIDTH 480 0
DWIDTH 6 0
BBX 5 12 1 -3
BITMAP
70
88
88
88
88
88
88
90
60
20
40
60
ENDCHAR
STARTCHAR U+01EB
ENCODING 491
SWIDTH 480 0
DWIDTH 6 0
BBX 5 8 1 -3
BITMAP
70
88
88
88
70
20
40
60
ENDCHAR
STARTCHAR U+01EC
ENCODING 492
SWIDTH 480 0
DWIDTH 6 0
BBX 5 14 1 -3
BITMAP
70
00
70
88
88
88
88
88
88
90
60
20
40
60
ENDCHAR
STARTCHAR U+01ED
ENCODING 493
SWIDTH 480 0
DWIDTH 6 0
BBX 5 10 1 -3
BITMAP
70
00
70
88
88
88
70
20
40
60
ENDCHAR
STARTCHAR U+01EE
ENCODING 494
SWIDTH 480 0
DWIDTH 6 0
BBX 5 15 1 -3
BITMAP
50
20
00
F8
90
10
20
20
70
08
08
08
08
88
70
ENDCHAR
STARTCHAR U+01EF
ENCODING 495
SWIDTH 480 0
DWIDTH 6 0
BBX 5 11 1 -3
BITMAP
50
20
00
F8
10
20
70
08
08
88
70
ENDCHAR
STARTCHAR U+01F0
ENCODING 496
SWIDTH 480 0
DWIDTH 6 0
BBX 5 11 1 -3
BITMAP
28
10
00
10
70
10
10
10
10
90
60
ENDCHAR
STARTCHAR U+01F1
ENCODING 497
SWIDTH 480 0
DWIDTH 6 0
BBX 6 9 0 0
BITMAP
DC
A4
A4
A8
A8
A8
B0
B0
DC
ENDCHAR
STARTCHAR U+01F2
ENCODING 498
SWIDTH 480 0
DWIDTH 6 0
BBX 6 9 0 0
BITMAP
C0
A0
A0
A0
BC
A4
A8
B0
DC
ENDCHAR
STARTCHAR U+01F3
ENCODING 499
SWIDTH 480 0
DWIDTH 6 0
BBX 6 9 0 0
BITMAP
20
20
20
20
7C
A4
A8
B0
5C
ENDCHAR
STARTCHAR U+01F4
ENCODING 500
SWIDTH 480 0
DWIDTH 6 0
BBX 5 15 1 -3
BITMAP
10
20
00
70
90
80
80
98
88
88
98
68
08
08
10
ENDCHAR
STARTCHAR U+01F5
ENCODING 501
SWIDTH 480 0
DWIDTH 6 0
BBX 5 11 1 -3
BITMAP
10
20
00
70
88
88
70
80
70
08
70
ENDCHAR
STARTCHAR U+01F6
ENCODING 502
SWIDTH 480 0
DWIDTH 6 0
BBX 5 9 1 0
BITMAP
A0
A0
A0
A0
E8
A8
A8
A8
90
ENDCHAR
STARTCHAR U+01F7
ENCODING 503
SWIDTH 480 0
DWIDTH 6 0
BBX 5 12 1 -3
BITMAP
B0
C8
88
88
88
88
88
90
90
A0
80
80
ENDCHAR
STARTCHAR U+01F8
ENCODING 504
SWIDTH 480 0
DWIDTH 6 0
BBX 5 12 1 0
BITMAP
40
20
00
88
88
C8
A8
A8
A8
98
88
88
ENDCHAR
STARTCHAR U+01F9
ENCODING 505
SWIDTH 480 0
DWIDTH 6 0
BBX 5 8 1 0
BITMAP
40
20
00
B0
C8
88
88
88
ENDCHAR
STARTCHAR U+01FA
ENCODING 506
SWIDTH 480 0
DWIDTH 6 0
BBX 5 12 1 0
BITMAP
10
20
50
20
08
18
28
48
F8
88
88
88
ENDCHAR
STARTCHAR U+01FB
ENCODING 507
SWIDTH 480 0
DWIDTH 6 0
BBX 5 10 1 0
BITMAP
10
20
50
20
00
70
08
78
88
68
ENDCHAR
STARTCHAR U+01FC
ENCODING 508
SWIDTH 480 0
DWIDTH 6 0
BBX 5 12 1 0
BITMAP
10
20
00
78
A0
A0
A0
F8
A0
A0
A0
B8
ENDCHAR
STARTCHAR U+01FD
ENCODING 509
SWIDTH 480 0
DWIDTH 6 0
BBX 5 8 1 0
BITMAP
10
20
00
50
28
70
A0
58
ENDCHAR
STARTCHAR U+01FE
ENCODING 510
SWIDTH 480 0
DWIDTH 6 0
BBX 5 13 1 -1
BITMAP
10
20
08
70
98
98
A8
A8
A8
C8
D0
60
80
ENDCHAR
STARTCHAR U+01FF
ENCODING 511
SWIDTH 480 0
DWIDTH 6 0
BBX 5 9 1 -1
BITMAP
20
40
10
70
A8
A8
A8
70
40
ENDCHAR
STARTCHAR U+0200
ENCODING 512
SWIDTH 480 0
DWIDTH 6 0
BBX 5 12 1 0
BITMAP
50
28
00
08
18
28
48
F8
88
88
88
88
ENDCHAR
STARTCHAR U+0201
ENCODING 513
SWIDTH 480 0
DWIDTH 6 0
BBX 5 8 1 0
BITMAP
A0
50
00
70
08
78
88
68
ENDCHAR
STARTCHAR U+0202
ENCODING 514
SWIDTH 480 0
DWIDTH 6 0
BBX 5 12 1 0
BITMAP
38
28
00
08
18
28
48
F8
88
88
88
88
ENDCHAR
STARTCHAR U+0203
ENCODING 515
SWIDTH 480 0
DWIDTH 6 0
BBX 5 8 1 0
BITMAP
70
50
00
70
08
78
88
68
ENDCHAR
STARTCHAR U+0204
ENCODING 516
SWIDTH 480 0
DWIDTH 6 0
BBX 5 12 1 0
BITMAP
A0
50
00
70
90
80
80
60
80
80
88
70
ENDCHAR
STARTCHAR U+0205
ENCODING 517
SWIDTH 480 0
DWIDTH 6 0
BBX 5 8 1 0
BITMAP
A0
50
00
70
88
B0
80
70
ENDCHAR
STARTCHAR U+0206
ENCODING 518
SWIDTH 480 0
DWIDTH 6 0
BBX 5 12 1 0
BITMAP
70
50
00
70
90
80
80
60
80
80
88
70
ENDCHAR
STARTCHAR U+0207
ENCODING 519
SWIDTH 480 0
DWIDTH 6 0
BBX 5 8 1 0
BITMAP
70
50
00
70
88
B0
80
70
ENDCHAR
STARTCHAR U+0208
ENCODING 520
SWIDTH 480 0
DWIDTH 6 0
BBX 5 12 1 0
BITMAP
A0
50
00
F8
20
20
20
20
20
20
20
F8
ENDCHAR
STARTCHAR U+0209
ENCODING 521
SWIDTH 480 0
DWIDTH 6 0
BBX 5 8 1 0
BITMAP
A0
50
00
20
E0
20
20
18
ENDCHAR
STARTCHAR U+020A
ENCODING 522
SWIDTH 480 0
DWIDTH 6 0
BBX 5 12 1 0
BITMAP
70
50
00
F8
20
20
20
20
20
20
20
F8
ENDCHAR
STARTCHAR U+020B
ENCODING 523
SWIDTH 480 0
DWIDTH 6 0
BBX 5 8 1 0
BITMAP
70
50
00
20
E0
20
20
18
ENDCHAR
STARTCHAR U+020C
ENCODING 524
SWIDTH 480 0
DWIDTH 6 0
BBX 5 12 1 0
BITMAP
A0
50
00
70
88
88
88
88
88
88
90
60
ENDCHAR
STARTCHAR U+020D
ENCODING 525
SWIDTH 480 0
DWIDTH 6 0
BBX 5 8 1 0
BITMAP
A0
50
00
70
88
88
88
70
ENDCHAR
STARTCHAR U+020E
ENCODING 526
SWIDTH 480 0
DWIDTH 6 0
BBX 5 12 1 0
BITMAP
70
50
00
70
88
88
88
88
88
88
90
60
ENDCHAR
STARTCHAR U+020F
ENCODING 527
SWIDTH 480 0
DWIDTH 6 0
BBX 5 8 1 0
BITMAP
70
50
00
70
88
88
88
70
ENDCHAR
STARTCHAR U+0210
ENCODING 528
SWIDTH 480 0
DWIDTH 6 0
BBX 5 12 1 0
BITMAP
A0
50
00
70
88
88
90
A0
90
90
90
88
ENDCHAR
STARTCHAR U+0211
ENCODING 529
SWIDTH 480 0
DWIDTH 6 0
BBX 5 8 1 0
BITMAP
A0
50
00
D8
60
40
40
40
ENDCHAR
STARTCHAR U+0212
ENCODING 530
SWIDTH 480 0
DWIDTH 6 0
BBX 5 12 1 0
BITMAP
70
50
00
70
88
88
90
A0
90
90
90
88
ENDCHAR
STARTCHAR U+0213
ENCODING 531
SWIDTH 480 0
DWIDTH 6 0
BBX 5 8 1 0
BITMAP
70
50
00
D8
60
40
40
40
ENDCHAR
STARTCHAR U+0214
ENCODING 532
SWIDTH 480 0
DWIDTH 6 0
BBX 5 12 1 0
BITMAP
A0
50
00
88
88
88
88
88
88
88
90
60
ENDCHAR
STARTCHAR U+0215
ENCODING 533
SWIDTH 480 0
DWIDTH 6 0
BBX 5 8 1 0
BITMAP
A0
50
00
88
88
88
98
68
ENDCHAR
STARTCHAR U+0216
ENCODING 534
SWIDTH 480 0
DWIDTH 6 0
BBX 5 12 1 0
BITMAP
70
50
00
88
88
88
88
88
88
88
90
60
ENDCHAR
STARTCHAR U+0217
ENCODING 535
SWIDTH 480 0
DWIDTH 6 0
BBX 5 8 1 0
BITMAP
70
50
00
88
88
88
98
68
ENDCHAR
STARTCHAR U+0218
ENCODING 536
SWIDTH 480 0
DWIDTH 6 0
BBX 5 12 1 -3
BITMAP
70
90
80
80
70
08
08
88
70
00
20
40
ENDCHAR
STARTCHAR U+0219
ENCODING 537
SWIDTH 480 0
DWIDTH 6 0
BBX 5 8 1 -3
BITMAP
70
80
70
08
70
00
20
40
ENDCHAR
STARTCHAR U+021A
ENCODING 538
SWIDTH 480 0
DWIDTH 6 0
BBX 5 12 1 -3
BITMAP
F8
20
20
20
20
20
20
20
20
00
20
40
ENDCHAR
STARTCHAR U+021B
ENCODING 539
SWIDTH 480 0
DWIDTH 6 0
BBX 5 9 1 -3
BITMAP
40
F0
40
40
48
30
00
20
40
ENDCHAR
STARTCHAR U+021C
ENCODING 540
SWIDTH 480 0
DWIDTH 6 0
BBX 5 12 1 -3
BITMAP
70
88
08
08
10
28
48
08
08
10
20
40
ENDCHAR
STARTCHAR U+021D
ENCODING 541
SWIDTH 480 0
DWIDTH 6 0
BBX 5 8 1 -3
BITMAP
70
88
10
28
08
10
20
40
ENDCHAR
STARTCHAR U+021E
ENCODING 542
SWIDTH 480 0
DWIDTH 6 0
BBX 5 12 1 0
BITMAP
50
20
00
88
88
88
88
F8
88
88
88
88
ENDCHAR
STARTCHAR U+021F
ENCODING 543
SWIDTH 480 0
DWIDTH 6 0
BBX 5 11 1 0
BITMAP
50
20
80
80
80
80
B0
C8
88
88
88
ENDCHAR
STARTCHAR U+0220
ENCODING 544
SWIDTH 480 0
DWIDTH 6 0
BBX 5 12 1 -3
BITMAP
B0
C8
88
88
88
88
88
88
88
08
08
08
ENDCHAR
STARTCHAR U+0221
ENCODING 545
SWIDTH 480 0
DWIDTH 6 0
BBX 6 12 1 -3
BITMAP
10
10
10
10
50
B0
90
90
50
18
14
28
ENDCHAR
STARTCHAR U+0222
ENCODING 546
SWIDTH 480 0
DWIDTH 6 0
BBX 5 9 1 0
BITMAP
10
48
88
88
70
88
88
88
70
ENDCHAR
STARTCHAR U+0223
ENCODING 547
SWIDTH 480 0
DWIDTH 6 0
BBX 5 8 1 0
BITMAP
10
88
88
70
88
88
88
70
ENDCHAR
STARTCHAR U+0224
ENCODING 548
SWIDTH 480 0
DWIDTH 6 0
BBX 5 12 1 -3
BITMAP
F8
90
10
20
20
20
40
48
F8
08
28
10
ENDCHAR
STARTCHAR U+0225
ENCODING 549
SWIDTH 480 0
DWIDTH 6 0
BBX 5 8 1 -3
BITMAP
F8
10
20
40
F8
08
28
10
ENDCHAR
STARTCHAR U+0226
ENCODING 550
SWIDTH 480 0
DWIDTH 6 0
BBX 5 11 1 0
BITMAP
10
00
08
18
28
48
F8
88
88
88
88
ENDCHAR
STARTCHAR U+0227
ENCODING 551
SWIDTH 480 0
DWIDTH 6 0
BBX 5 7 1 0
BITMAP
20
00
70
08
78
88
68
ENDCHAR
STARTCHAR U+0228
ENCODING 552
SWIDTH 480 0
DWIDTH 6 0
BBX 5 12 1 -3
BITMAP
70
90
80
80
60
80
80
88
70
20
10
60
ENDCHAR
STARTCHAR U+0229
ENCODING 553
SWIDTH 480 0
DWIDTH 6 0
BBX 5 8 1 -3
BITMAP
70
88
B0
80
70
20
10
60
ENDCHAR
STARTCHAR U+022A
ENCODING 554
SWIDTH 480 0
DWIDTH 6 0
BBX 5 12 1 0
BITMAP
70
00
50
00
70
88
88
88
88
88
90
60
ENDCHAR
STARTCHAR U+022B
ENCODING 555
SWIDTH 480 0
DWIDTH 6 0
BBX 5 9 1 0
BITMAP
70
00
50
00
70
88
88
88
70
ENDCHAR
STARTCHAR U+022C
ENCODING 556
SWIDTH 480 0
DWIDTH 6 0
BBX 5 12 1 0
BITMAP
78
00
68
58
00
70
88
88
88
88
90
60
ENDCHAR
STARTCHAR U+022D
ENCODING 557
SWIDTH 480 0
DWIDTH 6 0
BBX 5 10 1 0
BITMAP
78
00
68
58
00
70
88
88
88
70
ENDCHAR
STARTCHAR U+022E
ENCODING 558
SWIDTH 480 0
DWIDTH 6 0
BBX 5 11 1 0
BITMAP
20
00
70
88
88
88
88
88
88
90
60
ENDCHAR
STARTCHAR U+022F
ENCODING 559
SWIDTH 480 0
DWIDTH 6 0
BBX 5 7 1 0
BITMAP
20
00
70
88
88
88
70
ENDCHAR
STARTCHAR U+0230
ENCODING 560
SWIDTH 480 0
DWIDTH 6 0
BBX 5 12 1 0
BITMAP
70
00
20
00
70
88
88
88
88
88
90
60
ENDCHAR
STARTCHAR U+0231
ENCODING 561
SWIDTH 480 0
DWIDTH 6 0
BBX 5 9 1 0
BITMAP
70
00
20
00
70
88
88
88
70
ENDCHAR
STARTCHAR U+0232
ENCODING 562
SWIDTH 480 0
DWIDTH 6 0
BBX 5 14 1 -3
BITMAP
70
00
88
50
50
50
30
10
10
10
10
10
90
60
ENDCHAR
STARTCHAR U+0233
ENCODING 563
SWIDTH 480 0
DWIDTH 6 0
BBX 5 10 1 -3
BITMAP
70
00
88
50
50
50
20
20
20
40
ENDCHAR
STARTCHAR U+0234
ENCODING 564
SWIDTH 480 0
DWIDTH 6 0
BBX 5 12 1 -3
BITMAP
20
E0
20
20
20
20
20
20
20
30
28
50
ENDCHAR
STARTCHAR U+0235
ENCODING 565
SWIDTH 480 0
DWIDTH 6 0
BBX 6 8 1 -3
BITMAP
A0
D0
90
90
90
18
14
28
ENDCHAR
STARTCHAR U+0236
ENCODING 566
SWIDTH 480 0
DWIDTH 6 0
BBX 5 9 1 -3
BITMAP
40
F0
40
40
40
40
50
28
50
ENDCHAR
STARTCHAR U+0237
ENCODING 567
SWIDTH 480 0
DWIDTH 6 0
BBX 4 8 1 -3
BITMAP
10
70
10
10
10
10
90
60
ENDCHAR
STARTCHAR U+0238
ENCODING 568
SWIDTH 480 0
DWIDTH 6 0
BBX 5 9 1 0
BITMAP
20
20
20
20
70
A8
A8
A8
50
ENDCHAR
STARTCHAR U+0239
ENCODING 569
SWIDTH 480 0
DWIDTH 6 0
BBX 5 8 1 -3
BITMAP
50
A8
A8
A8
70
20
20
20
ENDCHAR
STARTCHAR U+023A
ENCODING 570
SWIDTH 480 0
DWIDTH 6 0
BBX 7 10 0 -1
BITMAP
04
0C
14
26
7C
4C
54
64
44
80
ENDCHAR
STARTCHAR U+023B
ENCODING 571
SWIDTH 480 0
DWIDTH 6 0
BBX 5 13 1 -2
BITMAP
08
08
70
90
90
A0
A0
A0
C0
C8
70
80
80
ENDCHAR
STARTCHAR U+023C
ENCODING 572
SWIDTH 480 0
DWIDTH 6 0
BBX 5 7 1 -1
BITMAP
10
70
A0
A0
A8
70
40
ENDCHAR
STARTCHAR U+023D
ENCODING 573
SWIDTH 480 0
DWIDTH 6 0
BBX 6 9 0 0
BITMAP
40
40
40
40
F0
40
40
44
38
ENDCHAR
STARTCHAR U+023E
ENCODING 574
SWIDTH 480 0
DWIDTH 6 0
BBX 6 13 1 -2
BITMAP
04
04
F8
28
28
30
30
30
20
20
20
40
40
ENDCHAR
STARTCHAR U+023F
ENCODING 575
SWIDTH 480 0
DWIDTH 6 0
BBX 5 7 1 -2
BITMAP
70
80
70
08
70
20
18
ENDCHAR
STARTCHAR U+0240
ENCODING 576
SWIDTH 480 0
DWIDTH 6 0
BBX 5 7 1 -2
BITMAP
F8
10
20
40
C0
20
18
ENDCHAR
STARTCHAR U+0241
ENCODING 577
SWIDTH 480 0
DWIDTH 6 0
BBX 5 9 1 0
BITMAP
70
88
08
08
08
70
40
40
40
ENDCHAR
STARTCHAR U+0242
ENCODING 578
SWIDTH 480 0
DWIDTH 6 0
BBX 5 5 1 0
BITMAP
F0
08
70
40
40
ENDCHAR
STARTCHAR U+0243
ENCODING 579
SWIDTH 480 0
DWIDTH 6 0
BBX 6 9 0 0
BITMAP
38
44
44
48
58
44
E4
48
70
ENDCHAR
STARTCHAR U+0244
ENCODING 580
SWIDTH 480 0
DWIDTH 6 0
BBX 7 9 0 0
BITMAP
44
44
44
44
44
44
FE
48
30
ENDCHAR
STARTCHAR U+0245
ENCODING 581
SWIDTH 480 0
DWIDTH 6 0
BBX 5 9 1 0
BITMAP
20
20
50
50
50
50
50
50
88
ENDCHAR
STARTCHAR U+0246
ENCODING 582
SWIDTH 480 0
DWIDTH 6 0
BBX 5 13 1 -2
BITMAP
08
08
70
90
90
A0
60
A0
C0
C8
70
80
80
ENDCHAR
STARTCHAR U+0247
ENCODING 583
SWIDTH 480 0
DWIDTH 6 0
BBX 5 7 1 -1
BITMAP
10
70
A8
F0
A0
70
40
ENDCHAR
STARTCHAR U+0248
ENCODING 584
SWIDTH 480 0
DWIDTH 6 0
BBX 5 12 1 -3
BITMAP
78
10
10
10
78
10
10
10
10
10
90
60
ENDCHAR
STARTCHAR U+0249
ENCODING 585
SWIDTH 480 0
DWIDTH 6 0
BBX 5 10 1 -3
BITMAP
10
00
10
70
10
78
10
10
90
60
ENDCHAR
STARTCHAR U+024A
ENCODING 586
SWIDTH 480 0
DWIDTH 6 0
BBX 6 12 1 -3
BITMAP
68
98
88
88
88
88
88
88
68
08
08
04
ENDCHAR
STARTCHAR U+024B
ENCODING 587
SWIDTH 480 0
DWIDTH 6 0
BBX 6 8 1 -3
BITMAP
68
98
88
88
68
08
08
04
ENDCHAR
STARTCHAR U+024C
ENCODING 588
SWIDTH 480 0
DWIDTH 6 0
BBX 6 9 0 0
BITMAP
38
44
44
48
F0
48
48
48
44
ENDCHAR
STARTCHAR U+024D
ENCODING 589
SWIDTH 480 0
DWIDTH 6 0
BBX 5 5 1 0
BITMAP
D8
60
40
E0
40
ENDCHAR
STARTCHAR U+024E
ENCODING 590
SWIDTH 480 0
DWIDTH 6 0
BBX 5 12 1 -3
BITMAP
88
50
F8
50
30
10
10
10
10
10
90
60
ENDCHAR
STARTCHAR U+024F
ENCODING 591
SWIDTH 480 0
DWIDTH 6 0
BBX 5 8 1 -3
BITMAP
88
50
F8
50
20
20
20
40
ENDCHAR
STARTCHAR U+0250
ENCODING 592
SWIDTH 480 0
DWIDTH 6 0
BBX 5 5 1 0
BITMAP
B0
88
F0
80
70
ENDCHAR
STARTCHAR U+0251
ENCODING 593
SWIDTH 480 0
DWIDTH 6 0
BBX 5 5 1 0
BITMAP
70
90
90
90
68
ENDCHAR
STARTCHAR U+0252
ENCODING 594
SWIDTH 480 0
DWIDTH 6 0
BBX 5 5 1 0
BITMAP
B0
48
48
48
70
ENDCHAR
STARTCHAR U+0253
ENCODING 595
SWIDTH 480 0
DWIDTH 6 0
BBX 5 9 1 0
BITMAP
40
A0
80
80
B0
C8
88
88
B0
ENDCHAR
STARTCHAR U+0254
ENCODING 596
SWIDTH 480 0
DWIDTH 6 0
BBX 5 5 1 0
BITMAP
70
08
08
88
70
ENDCHAR
STARTCHAR U+0255
ENCODING 597
SWIDTH 480 0
DWIDTH 6 0
BBX 5 6 1 -1
BITMAP
70
80
80
B0
48
B0
ENDCHAR
STARTCHAR U+0256
ENCODING 598
SWIDTH 480 0
DWIDTH 6 0
BBX 6 12 1 -3
BITMAP
10
10
10
10
50
B0
90
90
50
10
14
08
ENDCHAR
STARTCHAR U+0257
ENCODING 599
SWIDTH 480 0
DWIDTH 6 0
BBX 6 9 1 0
BITMAP
08
14
10
10
50
B0
90
90
50
ENDCHAR
STARTCHAR U+0258
ENCODING 600
SWIDTH 480 0
DWIDTH 6 0
BBX 5 5 1 0
BITMAP
70
88
68
08
70
ENDCHAR
STARTCHAR U+0259
ENCODING 601
SWIDTH 480 0
DWIDTH 6 0
BBX 5 5 1 0
BITMAP
70
08
68
88
70
ENDCHAR
STARTCHAR U+025A
ENCODING 602
SWIDTH 480 0
DWIDTH 6 0
BBX 6 5 1 0
BITMAP
60
10
70
94
68
ENDCHAR
STARTCHAR U+025B
ENCODING 603
SWIDTH 480 0
DWIDTH 6 0
BBX 5 5 1 0
BITMAP
70
80
60
88
70
ENDCHAR
STARTCHAR U+025C
ENCODING 604
SWIDTH 480 0
DWIDTH 6 0
BBX 5 5 1 0
BITMAP
70
08
30
88
70
ENDCHAR
STARTCHAR U+025D
ENCODING 605
SWIDTH 480 0
DWIDTH 6 0
BBX 5 5 1 0
BITMAP
E8
10
60
10
E0
ENDCHAR
STARTCHAR U+025E
ENCODING 606
SWIDTH 480 0
DWIDTH 6 0
BBX 5 5 1 0
BITMAP
70
88
B0
88
70
ENDCHAR
STARTCHAR U+025F
ENCODING 607
SWIDTH 480 0
DWIDTH 6 0
BBX 5 8 1 -3
BITMAP
10
70
10
10
78
10
90
60
ENDCHAR
STARTCHAR U+0260
ENCODING 608
SWIDTH 480 0
DWIDTH 6 0
BBX 6 12 1 -3
BITMAP
08
14
10
10
50
B0
90
90
50
10
10
60
ENDCHAR
STARTCHAR U+0261
ENCODING 609
SWIDTH 480 0
DWIDTH 6 0
BBX 5 8 1 -3
BITMAP
68
98
88
88
68
08
48
30
ENDCHAR
STARTCHAR U+0262
ENCODING 610
SWIDTH 480 0
DWIDTH 6 0
BBX 5 5 1 0
BITMAP
70
80
98
88
70
ENDCHAR
STARTCHAR U+0263
ENCODING 611
SWIDTH 480 0
DWIDTH 6 0
BBX 5 8 1 -3
BITMAP
88
50
50
50
20
20
50
20
ENDCHAR
STARTCHAR U+0264
ENCODING 612
SWIDTH 480 0
DWIDTH 6 0
BBX 5 5 1 0
BITMAP
D8
50
20
50
20
ENDCHAR
STARTCHAR U+0265
ENCODING 613
SWIDTH 480 0
DWIDTH 6 0
BBX 5 8 1 -3
BITMAP
88
88
88
98
68
08
08
08
ENDCHAR
STARTCHAR U+0266
ENCODING 614
SWIDTH 480 0
DWIDTH 6 0
BBX 5 9 1 0
BITMAP
40
A0
80
80
B0
C8
88
88
88
ENDCHAR
STARTCHAR U+0267
ENCODING 615
SWIDTH 480 0
DWIDTH 6 0
BBX 5 12 1 -3
BITMAP
40
A0
80
80
B0
C8
88
88
88
08
08
30
ENDCHAR
STARTCHAR U+0268
ENCODING 616
SWIDTH 480 0
DWIDTH 6 0
BBX 5 7 1 0
BITMAP
20
00
20
F8
20
20
18
ENDCHAR
STARTCHAR U+0269
ENCODING 617
SWIDTH 480 0
DWIDTH 6 0
BBX 4 5 2 0
BITMAP
40
C0
40
50
20
ENDCHAR
STARTCHAR U+026A
ENCODING 618
SWIDTH 480 0
DWIDTH 6 0
BBX 5 5 1 0
BITMAP
F8
20
20
20
F8
ENDCHAR
STARTCHAR U+026B
ENCODING 619
SWIDTH 480 0
DWIDTH 6 0
BBX 5 9 1 0
BITMAP
20
E0
20
20
68
B0
20
20
18
ENDCHAR
STARTCHAR U+026C
ENCODING 620
SWIDTH 480 0
DWIDTH 6 0
BBX 5 9 1 0
BITMAP
20
E0
20
60
A8
70
20
20
18
ENDCHAR
STARTCHAR U+026D
ENCODING 621
SWIDTH 480 0
DWIDTH 6 0
BBX 5 12 1 -3
BITMAP
20
E0
20
20
20
20
20
20
20
20
28
10
ENDCHAR
STARTCHAR U+026E
ENCODING 622
SWIDTH 480 0
DWIDTH 6 0
BBX 5 12 1 -3
BITMAP
80
80
80
80
F8
88
90
B0
88
08
48
30
ENDCHAR
STARTCHAR U+026F
ENCODING 623
SWIDTH 480 0
DWIDTH 6 0
BBX 5 5 1 0
BITMAP
A8
A8
A8
A8
58
ENDCHAR
STARTCHAR U+0270
ENCODING 624
SWIDTH 480 0
DWIDTH 6 0
BBX 5 8 1 -3
BITMAP
A8
A8
A8
A8
58
08
08
08
ENDCHAR
STARTCHAR U+0271
ENCODING 625
SWIDTH 480 0
DWIDTH 6 0
BBX 5 8 1 -3
BITMAP
D0
A8
A8
A8
A8
08
28
10
ENDCHAR
STARTCHAR U+0272
ENCODING 626
SWIDTH 480 0
DWIDTH 6 0
BBX 6 8 0 -3
BITMAP
28
34
24
24
24
20
A0
40
ENDCHAR
STARTCHAR U+0273
ENCODING 627
SWIDTH 480 0
DWIDTH 6 0
BBX 6 8 1 -3
BITMAP
A0
D0
90
90
90
10
14
08
ENDCHAR
STARTCHAR U+0274
ENCODING 628
SWIDTH 480 0
DWIDTH 6 0
BBX 5 5 1 0
BITMAP
88
C8
A8
98
88
ENDCHAR
STARTCHAR U+0275
ENCODING 629
SWIDTH 480 0
DWIDTH 6 0
BBX 5 5 1 0
BITMAP
70
88
F8
88
70
ENDCHAR
STARTCHAR U+0276
ENCODING 630
SWIDTH 480 0
DWIDTH 6 0
BBX 5 5 1 0
BITMAP
78
A0
B0
A0
78
ENDCHAR
STARTCHAR U+0277
ENCODING 631
SWIDTH 480 0
DWIDTH 6 0
BBX 5 5 1 0
BITMAP
70
88
A8
A8
50
ENDCHAR
STARTCHAR U+0278
ENCODING 632
SWIDTH 480 0
DWIDTH 6 0
BBX 5 12 1 -3
BITMAP
20
20
20
20
70
A8
A8
A8
70
20
20
20
ENDCHAR
STARTCHAR U+0279
ENCODING 633
SWIDTH 480 0
DWIDTH 6 0
BBX 5 5 1 0
BITMAP
10
10
10
30
D8
ENDCHAR
STARTCHAR U+027A
ENCODING 634
SWIDTH 480 0
DWIDTH 6 0
BBX 5 8 1 0
BITMAP
10
10
10
10
10
10
30
D8
ENDCHAR
STARTCHAR U+027B
ENCODING 635
SWIDTH 480 0
DWIDTH 6 0
BBX 5 5 1 0
BITMAP
10
10
10
30
D8
ENDCHAR
STARTCHAR U+027C
ENCODING 636
SWIDTH 480 0
DWIDTH 6 0
BBX 5 8 1 -3
BITMAP
D8
60
40
40
40
40
40
40
ENDCHAR
STARTCHAR U+027D
ENCODING 637
SWIDTH 480 0
DWIDTH 6 0
BBX 5 8 1 -3
BITMAP
D8
60
40
40
40
40
50
20
ENDCHAR
STARTCHAR U+027E
ENCODING 638
SWIDTH 480 0
DWIDTH 6 0
BBX 4 5 2 0
BITMAP
60
90
80
80
80
ENDCHAR
STARTCHAR U+027F
ENCODING 639
SWIDTH 480 0
DWIDTH 6 0
BBX 4 8 1 -3
BITMAP
60
90
10
10
10
10
10
10
ENDCHAR
STARTCHAR U+0280
ENCODING 640
SWIDTH 480 0
DWIDTH 6 0
BBX 5 5 1 0
BITMAP
F0
88
F0
A0
98
ENDCHAR
STARTCHAR U+0281
ENCODING 641
SWIDTH 480 0
DWIDTH 6 0
BBX 5 5 1 0
BITMAP
98
A0
F0
88
F0
ENDCHAR
STARTCHAR U+0282
ENCODING 642
SWIDTH 480 0
DWIDTH 6 0
BBX 5 8 1 -3
BITMAP
70
80
70
08
70
40
50
20
ENDCHAR
STARTCHAR U+0283
ENCODING 643
SWIDTH 480 0
DWIDTH 6 0
BBX 5 12 1 -3
BITMAP
18
20
20
20
20
20
20
20
20
20
20
C0
ENDCHAR
STARTCHAR U+0284
ENCODING 644
SWIDTH 480 0
DWIDTH 6 0
BBX 6 12 1 -3
BITMAP
08
14
10
10
10
10
10
10
78
10
90
60
ENDCHAR
STARTCHAR U+0285
ENCODING 645
SWIDTH 480 0
DWIDTH 6 0
BBX 5 8 1 -3
BITMAP
C0
20
20
20
20
20
20
18
ENDCHAR
STARTCHAR U+0286
ENCODING 646
SWIDTH 480 0
DWIDTH 6 0
BBX 5 12 1 -3
BITMAP
18
20
20
20
20
20
20
20
20
60
A0
50
ENDCHAR
STARTCHAR U+0287
ENCODING 647
SWIDTH 480 0
DWIDTH 6 0
BBX 5 6 1 0
BITMAP
60
90
10
10
78
10
ENDCHAR
STARTCHAR U+0288
ENCODING 648
SWIDTH 480 0
DWIDTH 6 0
BBX 5 9 1 -3
BITMAP
40
F0
40
40
40
40
40
48
30
ENDCHAR
STARTCHAR U+0289
ENCODING 649
SWIDTH 480 0
DWIDTH 6 0
BBX 7 5 0 0
BITMAP
44
44
FE
4C
34
ENDCHAR
STARTCHAR U+028A
ENCODING 650
SWIDTH 480 0
DWIDTH 6 0
BBX 5 5 1 0
BITMAP
D8
50
88
88
70
ENDCHAR
STARTCHAR U+028B
ENCODING 651
SWIDTH 480 0
DWIDTH 6 0
BBX 5 6 1 0
BITMAP
10
A8
88
88
90
60
ENDCHAR
STARTCHAR U+028C
ENCODING 652
SWIDTH 480 0
DWIDTH 6 0
BBX 5 5 1 0
BITMAP
20
20
50
50
88
ENDCHAR
STARTCHAR U+028D
ENCODING 653
SWIDTH 480 0
DWIDTH 6 0
BBX 5 5 1 0
BITMAP
50
50
A8
A8
A8
ENDCHAR
STARTCHAR U+028E
ENCODING 654
SWIDTH 480 0
DWIDTH 6 0
BBX 5 8 1 0
BITMAP
10
20
20
20
50
50
50
88
ENDCHAR
STARTCHAR U+028F
ENCODING 655
SWIDTH 480 0
DWIDTH 6 0
BBX 5 5 1 0
BITMAP
88
50
20
20
20
ENDCHAR
STARTCHAR U+0290
ENCODING 656
SWIDTH 480 0
DWIDTH 6 0
BBX 6 8 1 -3
BITMAP
F8
10
20
40
F0
10
14
08
ENDCHAR
STARTCHAR U+0291
ENCODING 657
SWIDTH 480 0
DWIDTH 6 0
BBX 6 6 1 -1
BITMAP
F0
20
48
94
F8
20
ENDCHAR
STARTCHAR U+0292
ENCODING 658
SWIDTH 480 0
DWIDTH 6 0
BBX 5 8 1 -3
BITMAP
F8
10
20
70
08
08
88
70
ENDCHAR
STARTCHAR U+0293
ENCODING 659
SWIDTH 480 0
DWIDTH 6 0
BBX 5 8 1 -3
BITMAP
F8
10
20
70
08
68
90
68
ENDCHAR
STARTCHAR U+0294
ENCODING 660
SWIDTH 480 0
DWIDTH 6 0
BBX 5 9 1 0
BITMAP
70
88
08
08
08
70
40
40
40
ENDCHAR
STARTCHAR U+0295
ENCODING 661
SWIDTH 480 0
DWIDTH 6 0
BBX 5 9 1 0
BITMAP
70
88
80
80
80
70
10
10
10
ENDCHAR
STARTCHAR U+0296
ENCODING 662
SWIDTH 480 0
DWIDTH 6 0
BBX 5 9 1 0
BITMAP
40
40
40
70
08
08
08
88
70
ENDCHAR
STARTCHAR U+0297
ENCODING 663
SWIDTH 480 0
DWIDTH 6 0
BBX 5 8 1 -3
BITMAP
70
90
80
80
80
80
88
70
ENDCHAR
STARTCHAR U+0298
ENCODING 664
SWIDTH 480 0
DWIDTH 6 0
BBX 5 9 1 0
BITMAP
70
88
88
88
A8
88
88
90
60
ENDCHAR
STARTCHAR U+0299
ENCODING 665
SWIDTH 480 0
DWIDTH 6 0
BBX 5 5 1 0
BITMAP
F0
88
B0
88
F0
ENDCHAR
STARTCHAR U+029A
ENCODING 666
SWIDTH 480 0
DWIDTH 6 0
BBX 5 5 1 0
BITMAP
70
88
68
88
70
ENDCHAR
STARTCHAR U+029B
ENCODING 667
SWIDTH 480 0
DWIDTH 6 0
BBX 6 8 1 0
BITMAP
08
14
10
70
80
98
88
70
ENDCHAR
STARTCHAR U+029C
ENCODING 668
SWIDTH 480 0
DWIDTH 6 0
BBX 5 5 1 0
BITMAP
88
88
F8
88
88
ENDCHAR
STARTCHAR U+029D
ENCODING 669
SWIDTH 480 0
DWIDTH 6 0
BBX 5 10 1 -3
BITMAP
10
00
10
70
10
10
10
78
90
60
ENDCHAR
STARTCHAR U+029E
ENCODING 670
SWIDTH 480 0
DWIDTH 6 0
BBX 5 8 1 -3
BITMAP
C8
28
18
28
48
08
08
08
ENDCHAR
STARTCHAR U+029F
ENCODING 671
SWIDTH 480 0
DWIDTH 6 0
BBX 5 5 1 0
BITMAP
80
80
80
88
70
ENDCHAR
STARTCHAR U+02A0
ENCODING 672
SWIDTH 480 0
DWIDTH 6 0
BBX 6 12 1 -3
BITMAP
08
14
10
10
50
B0
90
90
50
10
10
10
ENDCHAR
STARTCHAR U+02A1
ENCODING 673
SWIDTH 480 0
DWIDTH 6 0
BBX 5 9 1 0
BITMAP
70
88
08
08
08
70
40
E0
40
ENDCHAR
STARTCHAR U+02A2
ENCODING 674
SWIDTH 480 0
DWIDTH 6 0
BBX 5 9 1 0
BITMAP
70
88
80
80
80
70
10
38
10
ENDCHAR
STARTCHAR U+02A3
ENCODING 675
SWIDTH 480 0
DWIDTH 6 0
BBX 6 9 0 0
BITMAP
20
20
20
20
7C
A4
A8
B0
5C
ENDCHAR
STARTCHAR U+02A4
ENCODING 676
SWIDTH 480 0
DWIDTH 6 0
BBX 6 12 0 -3
BITMAP
20
20
20
20
7C
A4
A4
A8
44
04
24
18
ENDCHAR
STARTCHAR U+02A5
ENCODING 677
SWIDTH 480 0
DWIDTH 6 0
BBX 6 11 0 -2
BITMAP
20
20
20
20
7C
A4
A8
B0
58
14
08
ENDCHAR
STARTCHAR U+02A6
ENCODING 678
SWIDTH 480 0
DWIDTH 6 0
BBX 6 6 0 0
BITMAP
40
EC
50
48
44
38
ENDCHAR
STARTCHAR U+02A7
ENCODING 679
SWIDTH 480 0
DWIDTH 6 0
BBX 6 12 0 -3
BITMAP
04
08
08
48
E8
48
48
48
38
08
08
10
ENDCHAR
STARTCHAR U+02A8
ENCODING 680
SWIDTH 480 0
DWIDTH 6 0
BBX 6 7 0 -1
BITMAP
40
EC
50
50
58
34
08
ENDCHAR
STARTCHAR U+02A9
ENCODING 681
SWIDTH 480 0
DWIDTH 6 0
BBX 6 12 0 -3
BITMAP
30
40
40
40
F8
54
54
54
54
04
04
08
ENDCHAR
STARTCHAR U+02AA
ENCODING 682
SWIDTH 480 0
DWIDTH 6 0
BBX 6 9 0 0
BITMAP
40
C0
40
40
4C
50
48
44
38
ENDCHAR
STARTCHAR U+02AB
ENCODING 683
SWIDTH 480 0
DWIDTH 6 0
BBX 6 9 0 0
BITMAP
40
C0
40
40
5C
44
48
50
3C
ENDCHAR
STARTCHAR U+02AC
ENCODING 684
SWIDTH 480 0
DWIDTH 6 0
BBX 5 9 1 0
BITMAP
A8
A8
A8
50
00
A8
A8
A8
50
ENDCHAR
STARTCHAR U+02AD
ENCODING 685
SWIDTH 480 0
DWIDTH 6 0
BBX 5 8 1 0
BITMAP
F8
88
88
00
00
F8
88
88
ENDCHAR
STARTCHAR U+02AE
ENCODING 686
SWIDTH 480 0
DWIDTH 6 0
BBX 6 11 0 -3
BITMAP
40
A0
20
24
24
24
2C
14
04
04
04
ENDCHAR
STARTCHAR U+02AF
ENCODING 687
SWIDTH 480 0
DWIDTH 6 0
BBX 7 11 0 -3
BITMAP
40
A0
20
28
28
28
28
18
08
0A
04
ENDCHAR
STARTCHAR U+02B0
ENCODING 688
SWIDTH 480 0
DWIDTH 6 0
BBX 3 5 2 5
BITMAP
80
80
C0
A0
A0
ENDCHAR
STARTCHAR U+02B1
ENCODING 689
SWIDTH 480 0
DWIDTH 6 0
BBX 3 6 2 5
BITMAP
40
A0
80
C0
A0
A0
ENDCHAR
STARTCHAR U+02B2
ENCODING 690
SWIDTH 480 0
DWIDTH 6 0
BBX 3 7 2 4
BITMAP
20
00
20
60
20
20
C0
ENDCHAR
STARTCHAR U+02B3
ENCODING 691
SWIDTH 480 0
DWIDTH 6 0
BBX 3 4 2 5
BITMAP
C0
A0
80
80
ENDCHAR
STARTCHAR U+02B4
ENCODING 692
SWIDTH 480 0
DWIDTH 6 0
BBX 3 4 2 5
BITMAP
20
20
A0
60
ENDCHAR
STARTCHAR U+02B5
ENCODING 693
SWIDTH 480 0
DWIDTH 6 0
BBX 4 6 2 3
BITMAP
40
40
40
C0
50
20
ENDCHAR
STARTCHAR U+02B6
ENCODING 694
SWIDTH 480 0
DWIDTH 6 0
BBX 3 4 2 5
BITMAP
A0
C0
A0
C0
ENDCHAR
STARTCHAR U+02B7
ENCODING 695
SWIDTH 480 0
DWIDTH 6 0
BBX 5 4 1 5
BITMAP
A8
A8
50
50
ENDCHAR
STARTCHAR U+02B8
ENCODING 696
SWIDTH 480 0
DWIDTH 6 0
BBX 3 5 2 4
BITMAP
A0
A0
40
40
80
ENDCHAR
STARTCHAR U+02B9
ENCODING 697
SWIDTH 480 0
DWIDTH 6 0
BBX 2 2 2 7
BITMAP
40
80
ENDCHAR
STARTCHAR U+02BA
ENCODING 698
SWIDTH 480 0
DWIDTH 6 0
BBX 4 2 2 7
BITMAP
50
A0
ENDCHAR
STARTCHAR U+02BB
ENCODING 699
SWIDTH 480 0
DWIDTH 6 0
BBX 2 3 3 7
BITMAP
40
80
80
ENDCHAR
STARTCHAR U+02BC
ENCODING 700
SWIDTH 480 0
DWIDTH 6 0
BBX 2 3 2 7
BITMAP
40
40
80
ENDCHAR
STARTCHAR U+02BD
ENCODING 701
SWIDTH 480 0
DWIDTH 6 0
BBX 2 3 3 7
BITMAP
80
80
40
ENDCHAR
STARTCHAR U+02BE
ENCODING 702
SWIDTH 480 0
DWIDTH 6 0
BBX 2 3 3 7
BITMAP
80
40
80
ENDCHAR
STARTCHAR U+02BF
ENCODING 703
SWIDTH 480 0
DWIDTH 6 0
BBX 2 3 2 7
BITMAP
40
80
40
ENDCHAR
STARTCHAR U+02C0
ENCODING 704
SWIDTH 480 0
DWIDTH 6 0
BBX 5 5 1 4
BITMAP
F0
08
70
40
40
ENDCHAR
STARTCHAR U+02C1
ENCODING 705
SWIDTH 480 0
DWIDTH 6 0
BBX 5 5 1 4
BITMAP
78
80
70
10
10
ENDCHAR
STARTCHAR U+02C2
ENCODING 706
SWIDTH 480 0
DWIDTH 6 0
BBX 5 5 1 1
BITMAP
08
30
C0
30
08
ENDCHAR
STARTCHAR U+02C3
ENCODING 707
SWIDTH 480 0
DWIDTH 6 0
BBX 5 5 1 1
BITMAP
80
60
18
60
80
ENDCHAR
STARTCHAR U+02C4
ENCODING 708
SWIDTH 480 0
DWIDTH 6 0
BBX 5 5 1 1
BITMAP
20
20
50
50
88
ENDCHAR
STARTCHAR U+02C5
ENCODING 709
SWIDTH 480 0
DWIDTH 6 0
BBX 5 5 1 1
BITMAP
88
50
50
20
20
ENDCHAR
STARTCHAR U+02C6
ENCODING 710
SWIDTH 480 0
DWIDTH 6 0
BBX 3 2 2 7
BITMAP
40
A0
ENDCHAR
STARTCHAR U+02C7
ENCODING 711
SWIDTH 480 0
DWIDTH 6 0
BBX 3 2 2 7
BITMAP
A0
40
ENDCHAR
STARTCHAR U+02C8
ENCODING 712
SWIDTH 480 0
DWIDTH 6 0
BBX 1 3 3 7
BITMAP
80
80
80
ENDCHAR
STARTCHAR U+02C9
ENCODING 713
SWIDTH 480 0
DWIDTH 6 0
BBX 3 1 2 8
BITMAP
E0
ENDCHAR
STARTCHAR U+02CA
ENCODING 714
SWIDTH 480 0
DWIDTH 6 0
BBX 2 2 3 7
BITMAP
40
80
ENDCHAR
STARTCHAR U+02CB
ENCODING 715
SWIDTH 480 0
DWIDTH 6 0
BBX 2 2 2 7
BITMAP
80
40
ENDCHAR
STARTCHAR U+02CC
ENCODING 716
SWIDTH 480 0
DWIDTH 6 0
BBX 1 3 3 -3
BITMAP
80
80
80
ENDCHAR
STARTCHAR U+02CD
ENCODING 717
SWIDTH 480 0
DWIDTH 6 0
BBX 3 1 2 -2
BITMAP
E0
ENDCHAR
STARTCHAR U+02CE
ENCODING 718
SWIDTH 480 0
DWIDTH 6 0
BBX 2 2 3 -2
BITMAP
80
40
ENDCHAR
STARTCHAR U+02CF
ENCODING 719
SWIDTH 480 0
DWIDTH 6 0
BBX 2 2 2 -2
BITMAP
40
80
ENDCHAR
STARTCHAR U+02D0
ENCODING 720
SWIDTH 480 0
DWIDTH 6 0
BBX 3 6 2 0
BITMAP
E0
40
00
00
40
E0
ENDCHAR
STARTCHAR U+02D1
ENCODING 721
SWIDTH 480 0
DWIDTH 6 0
BBX 3 2 2 3
BITMAP
E0
40
ENDCHAR
STARTCHAR U+02D2
ENCODING 722
SWIDTH 480 0
DWIDTH 6 0
BBX 2 3 3 2
BITMAP
80
40
80
ENDCHAR
STARTCHAR U+02D3
ENCODING 723
SWIDTH 480 0
DWIDTH 6 0
BBX 2 3 2 2
BITMAP
40
80
40
ENDCHAR
STARTCHAR U+02D4
ENCODING 724
SWIDTH 480 0
DWIDTH 6 0
BBX 3 3 2 2
BITMAP
40
40
E0
ENDCHAR
STARTCHAR U+02D5
ENCODING 725
SWIDTH 480 0
DWIDTH 6 0
BBX 3 3 2 2
BITMAP
E0
40
40
ENDCHAR
STARTCHAR U+02D6
ENCODING 726
SWIDTH 480 0
DWIDTH 6 0
BBX 3 3 2 2
BITMAP
40
E0
40
ENDCHAR
STARTCHAR U+02D7
ENCODING 727
SWIDTH 480 0
DWIDTH 6 0
BBX 3 1 2 3
BITMAP
E0
ENDCHAR
STARTCHAR U+02D8
ENCODING 728
SWIDTH 480 0
DWIDTH 6 0
BBX 3 2 2 7
BITMAP
A0
E0
ENDCHAR
STARTCHAR U+02D9
ENCODING 729
SWIDTH 480 0
DWIDTH 6 0
BBX 1 1 3 8
BITMAP
80
ENDCHAR
STARTCHAR U+02DA
ENCODING 730
SWIDTH 480 0
DWIDTH 6 0
BBX 3 3 2 7
BITMAP
40
A0
40
ENDCHAR
STARTCHAR U+02DB
ENCODING 731
SWIDTH 480 0
DWIDTH 6 0
BBX 2 3 2 -3
BITMAP
40
80
C0
ENDCHAR
STARTCHAR U+02DC
ENCODING 732
SWIDTH 480 0
DWIDTH 6 0
BBX 4 2 1 7
BITMAP
D0
B0
ENDCHAR
STARTCHAR U+02DD
ENCODING 733
SWIDTH 480 0
DWIDTH 6 0
BBX 5 3 1 6
BITMAP
28
50
A0
ENDCHAR
STARTCHAR U+02DE
ENCODING 734
SWIDTH 480 0
DWIDTH 6 0
BBX 3 3 2 2
BITMAP
40
C0
60
ENDCHAR
STARTCHAR U+02DF
ENCODING 735
SWIDTH 480 0
DWIDTH 6 0
BBX 3 3 2 7
BITMAP
A0
40
A0
ENDCHAR
STARTCHAR U+02E0
ENCODING 736
SWIDTH 480 0
DWIDTH 6 0
BBX 3 5 2 4
BITMAP
A0
A0
40
40
40
ENDCHAR
STARTCHAR U+02E1
ENCODING 737
SWIDTH 480 0
DWIDTH 6 0
BBX 3 6 2 5
BITMAP
40
C0
40
40
40
20
ENDCHAR
STARTCHAR U+02E2
ENCODING 738
SWIDTH 480 0
DWIDTH 6 0
BBX 3 4 2 5
BITMAP
60
C0
20
C0
ENDCHAR
STARTCHAR U+02E3
ENCODING 739
SWIDTH 480 0
DWIDTH 6 0
BBX 3 4 2 5
BITMAP
A0
40
A0
A0
ENDCHAR
STARTCHAR U+02E4
ENCODING 740
SWIDTH 480 0
DWIDTH 6 0
BBX 3 5 2 4
BITMAP
40
A0
80
40
40
ENDCHAR
STARTCHAR U+02E5
ENCODING 741
SWIDTH 480 0
DWIDTH 6 0
BBX 3 9 2 0
BITMAP
E0
20
20
20
20
20
20
20
20
ENDCHAR
STARTCHAR U+02E6
ENCODING 742
SWIDTH 480 0
DWIDTH 6 0
BBX 3 9 2 0
BITMAP
20
20
E0
20
20
20
20
20
20
ENDCHAR
STARTCHAR U+02E7
ENCODING 743
SWIDTH 480 0
DWIDTH 6 0
BBX 3 9 2 0
BITMAP
20
20
20
20
E0
20
20
20
20
ENDCHAR
STARTCHAR U+02E8
ENCODING 744
SWIDTH 480 0
DWIDTH 6 0
BBX 3 9 2 0
BITMAP
20
20
20
20
20
20
E0
20
20
ENDCHAR
STARTCHAR U+02E9
ENCODING 745
SWIDTH 480 0
DWIDTH 6 0
BBX 3 9 2 0
BITMAP
20
20
20
20
20
20
20
20
E0
ENDCHAR
STARTCHAR U+02EA
ENCODING 746
SWIDTH 480 0
DWIDTH 6 0
BBX 2 5 3 1
BITMAP
80
80
80
80
C0
ENDCHAR
STARTCHAR U+02EB
ENCODING 747
SWIDTH 480 0
DWIDTH 6 0
BBX 2 5 3 1
BITMAP
80
80
C0
80
80
ENDCHAR
STARTCHAR U+02EC
ENCODING 748
SWIDTH 480 0
DWIDTH 6 0
BBX 3 2 2 -2
BITMAP
A0
40
ENDCHAR
STARTCHAR U+02ED
ENCODING 749
SWIDTH 480 0
DWIDTH 6 0
BBX 3 3 2 7
BITMAP
E0
00
E0
ENDCHAR
STARTCHAR U+02EE
ENCODING 750
SWIDTH 480 0
DWIDTH 6 0
BBX 4 3 1 7
BITMAP
50
50
A0
ENDCHAR
STARTCHAR U+02EF
ENCODING 751
SWIDTH 480 0
DWIDTH 6 0
BBX 3 2 2 -2
BITMAP
A0
40
ENDCHAR
STARTCHAR U+02F0
ENCODING 752
SWIDTH 480 0
DWIDTH 6 0
BBX 3 2 2 -2
BITMAP
40
A0
ENDCHAR
STARTCHAR U+02F1
ENCODING 753
SWIDTH 480 0
DWIDTH 6 0
BBX 2 3 2 -3
BITMAP
40
80
40
ENDCHAR
STARTCHAR U+02F2
ENCODING 754
SWIDTH 480 0
DWIDTH 6 0
BBX 2 3 3 -3
BITMAP
80
40
80
ENDCHAR
STARTCHAR U+02F3
ENCODING 755
SWIDTH 480 0
DWIDTH 6 0
BBX 3 3 2 -3
BITMAP
40
A0
40
ENDCHAR
STARTCHAR U+02F4
ENCODING 756
SWIDTH 480 0
DWIDTH 6 0
BBX 2 2 2 3
BITMAP
80
40
ENDCHAR
STARTCHAR U+02F5
ENCODING 757
SWIDTH 480 0
DWIDTH 6 0
BBX 4 2 1 3
BITMAP
A0
50
ENDCHAR
STARTCHAR U+02F6
ENCODING 758
SWIDTH 480 0
DWIDTH 6 0
BBX 4 2 2 3
BITMAP
50
A0
ENDCHAR
STARTCHAR U+02F7
ENCODING 759
SWIDTH 480 0
DWIDTH 6 0
BBX 4 2 1 -2
BITMAP
D0
B0
ENDCHAR
STARTCHAR U+02F8
ENCODING 760
SWIDTH 480 0
DWIDTH 6 0
BBX 1 5 3 4
BITMAP
80
00
00
00
80
ENDCHAR
STARTCHAR U+02F9
ENCODING 761
SWIDTH 480 0
DWIDTH 6 0
BBX 3 3 2 7
BITMAP
E0
80
80
ENDCHAR
STARTCHAR U+02FA
ENCODING 762
SWIDTH 480 0
DWIDTH 6 0
BBX 3 3 2 7
BITMAP
E0
20
20
ENDCHAR
STARTCHAR U+02FB
ENCODING 763
SWIDTH 480 0
DWIDTH 6 0
BBX 3 3 2 0
BITMAP
80
80
E0
ENDCHAR
STARTCHAR U+02FC
ENCODING 764
SWIDTH 480 0
DWIDTH 6 0
BBX 3 3 2 0
BITMAP
20
20
E0
ENDCHAR
STARTCHAR U+02FD
ENCODING 765
SWIDTH 480 0
DWIDTH 6 0
BBX 5 2 1 -2
BITMAP
88
F8
ENDCHAR
STARTCHAR U+02FE
ENCODING 766
SWIDTH 480 0
DWIDTH 6 0
BBX 5 2 1 -2
BITMAP
80
F8
ENDCHAR
STARTCHAR U+02FF
ENCODING 767
SWIDTH 480 0
DWIDTH 6 0
BBX 5 3 1 -3
BITMAP
40
F8
40
ENDCHAR
STARTCHAR U+0300
ENCODING 768
SWIDTH 480 0
DWIDTH 6 0
BBX 2 2 2 7
BITMAP
80
40
ENDCHAR
STARTCHAR U+0301
ENCODING 769
SWIDTH 480 0
DWIDTH 6 0
BBX 2 2 3 7
BITMAP
40
80
ENDCHAR
STARTCHAR U+0302
ENCODING 770
SWIDTH 480 0
DWIDTH 6 0
BBX 3 2 2 7
BITMAP
40
A0
ENDCHAR
STARTCHAR U+0303
ENCODING 771
SWIDTH 480 0
DWIDTH 6 0
BBX 4 2 1 7
BITMAP
D0
B0
ENDCHAR
STARTCHAR U+0304
ENCODING 772
SWIDTH 480 0
DWIDTH 6 0
BBX 3 1 2 8
BITMAP
E0
ENDCHAR
STARTCHAR U+0305
ENCODING 773
SWIDTH 480 0
DWIDTH 6 0
BBX 5 1 1 8
BITMAP
F8
ENDCHAR
STARTCHAR U+0306
ENCODING 774
SWIDTH 480 0
DWIDTH 6 0
BBX 3 2 2 7
BITMAP
A0
E0
ENDCHAR
STARTCHAR U+0307
ENCODING 775
SWIDTH 480 0
DWIDTH 6 0
BBX 1 1 3 8
BITMAP
80
ENDCHAR
STARTCHAR U+0308
ENCODING 776
SWIDTH 480 0
DWIDTH 6 0
BBX 3 1 2 8
BITMAP
A0
ENDCHAR
STARTCHAR U+0309
ENCODING 777
SWIDTH 480 0
DWIDTH 6 0
BBX 3 3 2 6
BITMAP
C0
20
40
ENDCHAR
STARTCHAR U+030A
ENCODING 778
SWIDTH 480 0
DWIDTH 6 0
BBX 3 3 2 7
BITMAP
40
A0
40
ENDCHAR
STARTCHAR U+030B
ENCODING 779
SWIDTH 480 0
DWIDTH 6 0
BBX 4 2 2 7
BITMAP
50
A0
ENDCHAR
STARTCHAR U+030C
ENCODING 780
SWIDTH 480 0
DWIDTH 6 0
BBX 3 2 2 7
BITMAP
A0
40
ENDCHAR
STARTCHAR U+030D
ENCODING 781
SWIDTH 480 0
DWIDTH 6 0
BBX 1 2 3 7
BITMAP
80
80
ENDCHAR
STARTCHAR U+030E
ENCODING 782
SWIDTH 480 0
DWIDTH 6 0
BBX 3 2 2 7
BITMAP
A0
A0
ENDCHAR
STARTCHAR U+030F
ENCODING 783
SWIDTH 480 0
DWIDTH 6 0
BBX 4 2 1 7
BITMAP
A0
50
ENDCHAR
STARTCHAR U+0310
ENCODING 784
SWIDTH 480 0
DWIDTH 6 0
BBX 5 3 1 7
BITMAP
20
88
70
ENDCHAR
STARTCHAR U+0311
ENCODING 785
SWIDTH 480 0
DWIDTH 6 0
BBX 3 2 2 7
BITMAP
E0
A0
ENDCHAR
STARTCHAR U+0312
ENCODING 786
SWIDTH 480 0
DWIDTH 6 0
BBX 2 3 3 7
BITMAP
40
80
80
ENDCHAR
STARTCHAR U+0313
ENCODING 787
SWIDTH 480 0
DWIDTH 6 0
BBX 2 3 2 7
BITMAP
40
40
80
ENDCHAR
STARTCHAR U+0314
ENCODING 788
SWIDTH 480 0
DWIDTH 6 0
BBX 2 3 2 7
BITMAP
80
80
40
ENDCHAR
STARTCHAR U+0315
ENCODING 789
SWIDTH 480 0
DWIDTH 6 0
BBX 2 3 3 7
BITMAP
40
40
80
ENDCHAR
STARTCHAR U+0316
ENCODING 790
SWIDTH 480 0
DWIDTH 6 0
BBX 2 2 3 -2
BITMAP
80
40
ENDCHAR
STARTCHAR U+0317
ENCODING 791
SWIDTH 480 0
DWIDTH 6 0
BBX 2 2 2 -2
BITMAP
40
80
ENDCHAR
STARTCHAR U+0318
ENCODING 792
SWIDTH 480 0
DWIDTH 6 0
BBX 3 3 2 -3
BITMAP
20
E0
20
ENDCHAR
STARTCHAR U+0319
ENCODING 793
SWIDTH 480 0
DWIDTH 6 0
BBX 3 3 2 -3
BITMAP
80
E0
80
ENDCHAR
STARTCHAR U+031A
ENCODING 794
SWIDTH 480 0
DWIDTH 6 0
BBX 3 2 2 7
BITMAP
E0
20
ENDCHAR
STARTCHAR U+031B
ENCODING 795
SWIDTH 480 0
DWIDTH 6 0
BBX 2 3 4 6
BITMAP
40
40
80
ENDCHAR
STARTCHAR U+0370
ENCODING 880
SWIDTH 480 0
DWIDTH 6 0
BBX 5 9 1 0
BITMAP
80
80
80
80
F8
80
80
80
80
ENDCHAR
STARTCHAR U+0371
ENCODING 881
SWIDTH 480 0
DWIDTH 6 0
BBX 5 5 1 0
BITMAP
C0
40
78
40
40
ENDCHAR
STARTCHAR U+0372
ENCODING 882
SWIDTH 480 0
DWIDTH 6 0
BBX 5 9 1 0
BITMAP
F8
A8
A8
A8
20
20
20
20
20
ENDCHAR
STARTCHAR U+0373
ENCODING 883
SWIDTH 480 0
DWIDTH 6 0
BBX 5 9 1 0
BITMAP
F8
A8
20
20
20
20
20
20
20
ENDCHAR
STARTCHAR U+0374
ENCODING 884
SWIDTH 480 0
DWIDTH 6 0
BBX 2 2 2 7
BITMAP
40
80
ENDCHAR
STARTCHAR U+0375
ENCODING 885
SWIDTH 480 0
DWIDTH 6 0
BBX 2 2 2 -2
BITMAP
40
80
ENDCHAR
STARTCHAR U+0376
ENCODING 886
SWIDTH 480 0
DWIDTH 6 0
BBX 5 9 1 0
BITMAP
88
98
98
A8
A8
C8
C8
88
88
ENDCHAR
STARTCHAR U+0377
ENCODING 887
SWIDTH 480 0
DWIDTH 6 0
BBX 5 5 1 0
BITMAP
90
B0
D0
90
88
ENDCHAR
STARTCHAR U+037A
ENCODING 890
SWIDTH 480 0
DWIDTH 6 0
BBX 2 2 2 -3
BITMAP
80
C0
ENDCHAR
STARTCHAR U+037B
ENCODING 891
SWIDTH 480 0
DWIDTH 6 0
BBX 5 5 1 0
BITMAP
70
08
08
88
70
ENDCHAR
STARTCHAR U+037C
ENCODING 892
SWIDTH 480 0
DWIDTH 6 0
BBX 5 5 1 0
BITMAP
70
80
A0
88
70
ENDCHAR
STARTCHAR U+037D
ENCODING 893
SWIDTH 480 0
DWIDTH 6 0
BBX 5 5 1 0
BITMAP
70
08
28
88
70
ENDCHAR
STARTCHAR U+037E
ENCODING 894
SWIDTH 480 0
DWIDTH 6 0
BBX 2 7 2 -2
BITMAP
40
00
00
00
40
40
80
ENDCHAR
STARTCHAR U+037F
ENCODING 895
SWIDTH 480 0
DWIDTH 6 0
BBX 5 9 1 0
BITMAP
38
10
10
10
10
10
10
90
60
ENDCHAR
STARTCHAR U+0384
ENCODING 900
SWIDTH 480 0
DWIDTH 6 0
BBX 2 2 2 7
BITMAP
40
80
ENDCHAR
STARTCHAR U+0385
ENCODING 901
SWIDTH 480 0
DWIDTH 6 0
BBX 3 4 2 8
BITMAP
20
40
00
A0
ENDCHAR
STARTCHAR U+0386
ENCODING 902
SWIDTH 480 0
DWIDTH 6 0
BBX 5 11 1 0
BITMAP
40
80
20
20
20
50
50
70
88
88
88
ENDCHAR
STARTCHAR U+0387
ENCODING 903
SWIDTH 480 0
DWIDTH 6 0
BBX 1 1 3 4
BITMAP
80
ENDCHAR
STARTCHAR U+0388
ENCODING 904
SWIDTH 480 0
DWIDTH 6 0
BBX 6 11 0 0
BITMAP
40
80
3C
44
40
40
58
40
40
44
7C
ENDCHAR
STARTCHAR U+0389
ENCODING 905
SWIDTH 480 0
DWIDTH 6 0
BBX 6 11 0 0
BITMAP
40
80
04
44
44
44
7C
44
44
44
44
ENDCHAR
STARTCHAR U+038A
ENCODING 906
SWIDTH 480 0
DWIDTH 6 0
BBX 6 11 0 0
BITMAP
40
80
3C
10
10
10
10
10
10
10
7C
ENDCHAR
STARTCHAR U+038C
ENCODING 908
SWIDTH 480 0
DWIDTH 6 0
BBX 6 11 0 0
BITMAP
40
80
38
44
44
44
44
44
44
44
38
ENDCHAR
STARTCHAR U+038E
ENCODING 910
SWIDTH 480 0
DWIDTH 6 0
BBX 6 11 0 0
BITMAP
40
80
04
44
28
28
10
10
10
10
10
ENDCHAR
STARTCHAR U+038F
ENCODING 911
SWIDTH 480 0
DWIDTH 6 0
BBX 6 11 0 0
BITMAP
40
80
38
44
44
44
44
44
44
28
6C
ENDCHAR
STARTCHAR U+0390
ENCODING 912
SWIDTH 480 0
DWIDTH 6 0
BBX 4 10 2 0
BITMAP
20
40
00
A0
00
40
C0
40
50
20
ENDCHAR
STARTCHAR U+0391
ENCODING 913
SWIDTH 480 0
DWIDTH 6 0
BBX 5 9 1 0
BITMAP
20
20
20
50
50
70
88
88
88
ENDCHAR
STARTCHAR U+0392
ENCODING 914
SWIDTH 480 0
DWIDTH 6 0
BBX 5 9 1 0
BITMAP
F0
88
88
88
B0
88
88
88
F0
ENDCHAR
STARTCHAR U+0393
ENCODING 915
SWIDTH 480 0
DWIDTH 6 0
BBX 5 9 1 0
BITMAP
F8
88
80
80
80
80
80
80
80
ENDCHAR
STARTCHAR U+0394
ENCODING 916
SWIDTH 480 0
DWIDTH 6 0
BBX 5 9 1 0
BITMAP
20
20
20
50
50
50
88
88
F8
ENDCHAR
STARTCHAR U+0395
ENCODING 917
SWIDTH 480 0
DWIDTH 6 0
BBX 5 9 1 0
BITMAP
F8
88
80
80
F0
80
80
88
F8
ENDCHAR
STARTCHAR U+0396
ENCODING 918
SWIDTH 480 0
DWIDTH 6 0
BBX 5 9 1 0
BITMAP
F8
90
10
20
20
20
40
48
F8
ENDCHAR
STARTCHAR U+0397
ENCODING 919
SWIDTH 480 0
DWIDTH 6 0
BBX 5 9 1 0
BITMAP
88
88
88
88
F8
88
88
88
88
ENDCHAR
STARTCHAR U+0398
ENCODING 920
SWIDTH 480 0
DWIDTH 6 0
BBX 5 9 1 0
BITMAP
70
88
88
88
F8
88
88
88
70
ENDCHAR
STARTCHAR U+0399
ENCODING 921
SWIDTH 480 0
DWIDTH 6 0
BBX 5 9 1 0
BITMAP
F8
20
20
20
20
20
20
20
F8
ENDCHAR
STARTCHAR U+039A
ENCODING 922
SWIDTH 480 0
DWIDTH 6 0
BBX 5 9 1 0
BITMAP
98
90
A0
A0
C0
A0
A0
90
98
ENDCHAR
STARTCHAR U+039B
ENCODING 923
SWIDTH 480 0
DWIDTH 6 0
BBX 5 9 1 0
BITMAP
20
20
20
50
50
50
88
88
88
ENDCHAR
STARTCHAR U+039C
ENCODING 924
SWIDTH 480 0
DWIDTH 6 0
BBX 5 9 1 0
BITMAP
88
D8
A8
A8
A8
A8
88
88
88
ENDCHAR
STARTCHAR U+039D
ENCODING 925
SWIDTH 480 0
DWIDTH 6 0
BBX 5 9 1 0
BITMAP
88
C8
C8
A8
A8
98
98
88
88
ENDCHAR
STARTCHAR U+039E
ENCODING 926
SWIDTH 480 0
DWIDTH 6 0
BBX 5 9 1 0
BITMAP
F8
88
00
00
70
00
00
88
F8
ENDCHAR
STARTCHAR U+039F
ENCODING 927
SWIDTH 480 0
DWIDTH 6 0
BBX 5 9 1 0
BITMAP
70
88
88
88
88
88
88
88
70
ENDCHAR
STARTCHAR U+03A0
ENCODING 928
SWIDTH 480 0
DWIDTH 6 0
BBX 5 9 1 0
BITMAP
F8
88
88
88
88
88
88
88
88
ENDCHAR
STARTCHAR U+03A1
ENCODING 929
SWIDTH 480 0
DWIDTH 6 0
BBX 5 9 1 0
BITMAP
F0
88
88
88
B0
80
80
80
80
ENDCHAR
STARTCHAR U+03A3
ENCODING 931
SWIDTH 480 0
DWIDTH 6 0
BBX 5 9 1 0
BITMAP
F8
48
20
20
10
20
20
48
F8
ENDCHAR
STARTCHAR U+03A4
ENCODING 932
SWIDTH 480 0
DWIDTH 6 0
BBX 5 9 1 0
BITMAP
F8
20
20
20
20
20
20
20
20
ENDCHAR
STARTCHAR U+03A5
ENCODING 933
SWIDTH 480 0
DWIDTH 6 0
BBX 5 9 1 0
BITMAP
88
88
50
50
20
20
20
20
20
ENDCHAR
STARTCHAR U+03A6
ENCODING 934
SWIDTH 480 0
DWIDTH 6 0
BBX 5 9 1 0
BITMAP
20
20
70
A8
A8
A8
70
20
20
ENDCHAR
STARTCHAR U+03A7
ENCODING 935
SWIDTH 480 0
DWIDTH 6 0
BBX 5 9 1 0
BITMAP
88
88
50
50
20
50
50
88
88
ENDCHAR
STARTCHAR U+03A8
ENCODING 936
SWIDTH 480 0
DWIDTH 6 0
BBX 5 9 1 0
BITMAP
20
20
A8
A8
A8
A8
70
20
20
ENDCHAR
STARTCHAR U+03A9
ENCODING 937
SWIDTH 480 0
DWIDTH 6 0
BBX 5 9 1 0
BITMAP
70
88
88
88
88
88
88
50
D8
ENDCHAR
STARTCHAR U+03AA
ENCODING 938
SWIDTH 480 0
DWIDTH 6 0
BBX 5 11 1 0
BITMAP
50
00
F8
20
20
20
20
20
20
20
F8
ENDCHAR
STARTCHAR U+03AB
ENCODING 939
SWIDTH 480 0
DWIDTH 6 0
BBX 5 11 1 0
BITMAP
50
00
88
88
50
50
20
20
20
20
20
ENDCHAR
STARTCHAR U+03AC
ENCODING 940
SWIDTH 480 0
DWIDTH 6 0
BBX 5 8 1 0
BITMAP
10
20
00
68
90
90
90
68
ENDCHAR
STARTCHAR U+03AD
ENCODING 941
SWIDTH 480 0
DWIDTH 6 0
BBX 5 8 1 0
BITMAP
10
20
00
70
80
60
88
70
ENDCHAR
STARTCHAR U+03AE
ENCODING 942
SWIDTH 480 0
DWIDTH 6 0
BBX 5 11 1 -3
BITMAP
10
20
00
B0
C8
88
88
88
08
08
08
ENDCHAR
STARTCHAR U+03AF
ENCODING 943
SWIDTH 480 0
DWIDTH 6 0
BBX 4 8 2 0
BITMAP
20
40
00
40
C0
40
50
20
ENDCHAR
STARTCHAR U+03B0
ENCODING 944
SWIDTH 480 0
DWIDTH 6 0
BBX 5 10 1 0
BITMAP
10
20
00
50
00
90
88
88
90
60
ENDCHAR
STARTCHAR U+03B1
ENCODING 945
SWIDTH 480 0
DWIDTH 6 0
BBX 5 5 1 0
BITMAP
68
90
90
90
68
ENDCHAR
STARTCHAR U+03B2
ENCODING 946
SWIDTH 480 0
DWIDTH 6 0
BBX 5 11 1 -3
BITMAP
60
90
90
B0
88
88
88
B0
80
80
80
ENDCHAR
STARTCHAR U+03B3
ENCODING 947
SWIDTH 480 0
DWIDTH 6 0
BBX 5 8 1 -3
BITMAP
88
50
50
50
20
20
20
20
ENDCHAR
STARTCHAR U+03B4
ENCODING 948
SWIDTH 480 0
DWIDTH 6 0
BBX 5 9 1 0
BITMAP
30
40
40
20
50
88
88
88
70
ENDCHAR
STARTCHAR U+03B5
ENCODING 949
SWIDTH 480 0
DWIDTH 6 0
BBX 5 5 1 0
BITMAP
70
80
60
88
70
ENDCHAR
STARTCHAR U+03B6
ENCODING 950
SWIDTH 480 0
DWIDTH 6 0
BBX 5 11 1 -2
BITMAP
F8
10
20
40
40
80
80
80
70
08
10
ENDCHAR
STARTCHAR U+03B7
ENCODING 951
SWIDTH 480 0
DWIDTH 6 0
BBX 5 8 1 -3
BITMAP
B0
C8
88
88
88
08
08
08
ENDCHAR
STARTCHAR U+03B8
ENCODING 952
SWIDTH 480 0
DWIDTH 6 0
BBX 5 7 1 0
BITMAP
70
88
88
F8
88
88
70
ENDCHAR
STARTCHAR U+03B9
ENCODING 953
SWIDTH 480 0
DWIDTH 6 0
BBX 4 5 2 0
BITMAP
40
C0
40
50
20
ENDCHAR
STARTCHAR U+03BA
ENCODING 954
SWIDTH 480 0
DWIDTH 6 0
BBX 5 5 1 0
BITMAP
98
A0
E0
90
88
ENDCHAR
STARTCHAR U+03BB
ENCODING 955
SWIDTH 480 0
DWIDTH 6 0
BBX 5 8 1 0
BITMAP
40
20
20
20
50
50
90
88
ENDCHAR
STARTCHAR U+03BC
ENCODING 956
SWIDTH 480 0
DWIDTH 6 0
BBX 5 8 1 -3
BITMAP
88
88
88
D8
A8
80
80
80
ENDCHAR
STARTCHAR U+03BD
ENCODING 957
SWIDTH 480 0
DWIDTH 6 0
BBX 5 6 1 0
BITMAP
10
48
C8
50
60
40
ENDCHAR
STARTCHAR U+03BE
ENCODING 958
SWIDTH 480 0
DWIDTH 6 0
BBX 5 11 1 -2
BITMAP
80
70
80
80
70
80
80
80
70
08
10
ENDCHAR
STARTCHAR U+03BF
ENCODING 959
SWIDTH 480 0
DWIDTH 6 0
BBX 5 5 1 0
BITMAP
70
88
88
88
70
ENDCHAR
STARTCHAR U+03C0
ENCODING 960
SWIDTH 480 0
DWIDTH 6 0
BBX 5 5 1 0
BITMAP
F8
50
50
50
48
ENDCHAR
STARTCHAR U+03C1
ENCODING 961
SWIDTH 480 0
DWIDTH 6 0
BBX 5 8 1 -3
BITMAP
70
88
88
88
B0
80
80
80
ENDCHAR
STARTCHAR U+03C2
ENCODING 962
SWIDTH 480 0
DWIDTH 6 0
BBX 5 7 1 -2
BITMAP
70
88
80
80
70
08
10
ENDCHAR
STARTCHAR U+03C3
ENCODING 963
SWIDTH 480 0
DWIDTH 6 0
BBX 5 5 1 0
BITMAP
78
80
90
90
60
ENDCHAR
STARTCHAR U+03C4
ENCODING 964
SWIDTH 480 0
DWIDTH 6 0
BBX 5 5 1 0
BITMAP
F8
20
20
28
10
ENDCHAR
STARTCHAR U+03C5
ENCODING 965
SWIDTH 480 0
DWIDTH 6 0
BBX 5 5 1 0
BITMAP
90
88
88
90
60
ENDCHAR
STARTCHAR U+03C6
ENCODING 966
SWIDTH 480 0
DWIDTH 6 0
BBX 5 8 1 -3
BITMAP
10
A8
A8
A8
70
20
20
20
ENDCHAR
STARTCHAR U+03C7
ENCODING 967
SWIDTH 480 0
DWIDTH 6 0
BBX 5 8 1 -3
BITMAP
88
50
50
20
20
50
50
88
ENDCHAR
STARTCHAR U+03C8
ENCODING 968
SWIDTH 480 0
DWIDTH 6 0
BBX 5 10 1 -3
BITMAP
20
20
A8
A8
A8
A8
70
20
20
20
ENDCHAR
STARTCHAR U+03C9
ENCODING 969
SWIDTH 480 0
DWIDTH 6 0
BBX 5 5 1 0
BITMAP
50
88
A8
A8
50
ENDCHAR
STARTCHAR U+03CA
ENCODING 970
SWIDTH 480 0
DWIDTH 6 0
BBX 4 7 2 0
BITMAP
A0
00
40
C0
40
50
20
ENDCHAR
STARTCHAR U+03CB
ENCODING 971
SWIDTH 480 0
DWIDTH 6 0
BBX 5 7 1 0
BITMAP
50
00
90
88
88
90
60
ENDCHAR
STARTCHAR U+03CC
ENCODING 972
SWIDTH 480 0
DWIDTH 6 0
BBX 5 8 1 0
BITMAP
10
20
00
70
88
88
88
70
ENDCHAR
STARTCHAR U+03CD
ENCODING 973
SWIDTH 480 0
DWIDTH 6 0
BBX 5 8 1 0
BITMAP
10
20
00
90
88
88
90
60
ENDCHAR
STARTCHAR U+03CE
ENCODING 974
SWIDTH 480 0
DWIDTH 6 0
BBX 5 8 1 0
BITMAP
10
20
00
50
88
A8
A8
50
ENDCHAR
STARTCHAR U+03CF
ENCODING 975
SWIDTH 480 0
DWIDTH 6 0
BBX 5 11 1 -2
BITMAP
98
90
A0
A0
C0
A0
A0
90
98
10
20
ENDCHAR
STARTCHAR U+03D0
ENCODING 976
SWIDTH 480 0
DWIDTH 6 0
BBX 5 9 1 0
BITMAP
70
88
F0
80
B0
88
88
88
70
ENDCHAR
STARTCHAR U+03D1
ENCODING 977
SWIDTH 480 0
DWIDTH 6 0
BBX 5 9 1 0
BITMAP
10
28
28
18
C8
48
48
48
30
ENDCHAR
STARTCHAR U+03D2
ENCODING 978
SWIDTH 480 0
DWIDTH 6 0
BBX 6 9 1 0
BITMAP
88
94
50
50
20
20
20
20
20
ENDCHAR
STARTCHAR U+03D3
ENCODING 979
SWIDTH 480 0
DWIDTH 6 0
BBX 7 11 0 0
BITMAP
40
80
04
4A
28
28
10
10
10
10
10
ENDCHAR
STARTCHAR U+03D4
ENCODING 980
SWIDTH 480 0
DWIDTH 6 0
BBX 6 11 1 0
BITMAP
50
00
88
94
50
50
20
20
20
20
20
ENDCHAR
STARTCHAR U+03D5
ENCODING 981
SWIDTH 480 0
DWIDTH 6 0
BBX 5 11 1 -3
BITMAP
20
20
20
70
A8
A8
A8
70
20
20
20
ENDCHAR
STARTCHAR U+03D6
ENCODING 982
SWIDTH 480 0
DWIDTH 6 0
BBX 5 6 1 0
BITMAP
F8
50
88
A8
A8
50
ENDCHAR
STARTCHAR U+03D7
ENCODING 983
SWIDTH 480 0
DWIDTH 6 0
BBX 5 8 1 -3
BITMAP
C8
50
70
50
98
08
28
10
ENDCHAR
STARTCHAR U+03D8
ENCODING 984
SWIDTH 480 0
DWIDTH 6 0
BBX 5 12 1 -3
BITMAP
70
88
88
88
88
88
88
88
70
20
20
20
ENDCHAR
STARTCHAR U+03D9
ENCODING 985
SWIDTH 480 0
DWIDTH 6 0
BBX 5 8 1 -3
BITMAP
70
88
88
88
70
20
20
20
ENDCHAR
STARTCHAR U+03DA
ENCODING 986
SWIDTH 480 0
DWIDTH 6 0
BBX 5 11 1 -2
BITMAP
70
88
80
80
80
80
80
40
30
08
30
ENDCHAR
STARTCHAR U+03DB
ENCODING 987
SWIDTH 480 0
DWIDTH 6 0
BBX 5 7 1 -2
BITMAP
70
88
80
40
30
08
30
ENDCHAR
STARTCHAR U+03DC
ENCODING 988
SWIDTH 480 0
DWIDTH 6 0
BBX 5 9 1 0
BITMAP
F8
88
80
80
F0
90
80
80
80
ENDCHAR
STARTCHAR U+03DD
ENCODING 989
SWIDTH 480 0
DWIDTH 6 0
BBX 4 9 2 -4
BITMAP
F0
80
80
E0
A0
80
80
80
80
ENDCHAR
STARTCHAR U+03DE
ENCODING 990
SWIDTH 480 0
DWIDTH 6 0
BBX 5 9 1 0
BITMAP
C0
40
48
98
A8
C8
90
10
18
ENDCHAR
STARTCHAR U+03DF
ENCODING 991
SWIDTH 480 0
DWIDTH 6 0
BBX 5 9 1 0
BITMAP
20
20
40
40
F8
10
10
20
20
ENDCHAR
STARTCHAR U+03E0
ENCODING 992
SWIDTH 480 0
DWIDTH 6 0
BBX 5 12 1 -3
BITMAP
C0
60
50
50
18
28
28
28
08
08
10
60
ENDCHAR
STARTCHAR U+03E1
ENCODING 993
SWIDTH 480 0
DWIDTH 6 0
BBX 5 12 1 -3
BITMAP
80
40
20
10
30
48
98
28
48
08
08
08
ENDCHAR
STARTCHAR U+03E2
ENCODING 994
SWIDTH 480 0
DWIDTH 6 0
BBX 5 12 1 -3
BITMAP
A8
A8
A8
A8
A8
A8
A8
A8
58
08
70
80
ENDCHAR
STARTCHAR U+03E3
ENCODING 995
SWIDTH 480 0
DWIDTH 6 0
BBX 5 8 1 -3
BITMAP
A8
A8
A8
A8
58
08
70
80
ENDCHAR
STARTCHAR U+03E4
ENCODING 996
SWIDTH 480 0
DWIDTH 6 0
BBX 5 9 1 0
BITMAP
48
88
88
88
78
08
08
08
08
ENDCHAR
STARTCHAR U+03E5
ENCODING 997
SWIDTH 480 0
DWIDTH 6 0
BBX 5 9 1 0
BITMAP
48
88
88
88
98
68
08
08
08
ENDCHAR
STARTCHAR U+03E6
ENCODING 998
SWIDTH 480 0
DWIDTH 6 0
BBX 5 12 1 -3
BITMAP
80
80
80
80
B0
C8
88
88
88
08
70
80
ENDCHAR
STARTCHAR U+03E7
ENCODING 999
SWIDTH 480 0
DWIDTH 6 0
BBX 5 6 1 0
BITMAP
68
90
68
08
88
70
ENDCHAR
STARTCHAR U+03E8
ENCODING 1000
SWIDTH 480 0
DWIDTH 6 0
BBX 5 9 1 0
BITMAP
70
88
48
10
20
40
80
88
70
ENDCHAR
STARTCHAR U+03E9
ENCODING 1001
SWIDTH 480 0
DWIDTH 6 0
BBX 5 9 1 -2
BITMAP
70
88
48
10
20
40
80
48
30
ENDCHAR
STARTCHAR U+03EA
ENCODING 1002
SWIDTH 480 0
DWIDTH 6 0
BBX 5 9 1 0
BITMAP
D8
50
50
20
20
50
50
88
F8
ENDCHAR
STARTCHAR U+03EB
ENCODING 1003
SWIDTH 480 0
DWIDTH 6 0
BBX 5 5 1 0
BITMAP
D8
50
20
50
F8
ENDCHAR
STARTCHAR U+03EC
ENCODING 1004
SWIDTH 480 0
DWIDTH 6 0
BBX 5 9 1 0
BITMAP
08
70
80
B0
88
88
88
88
70
ENDCHAR
STARTCHAR U+03ED
ENCODING 1005
SWIDTH 480 0
DWIDTH 6 0
BBX 5 7 1 0
BITMAP
08
70
80
B0
88
88
70
ENDCHAR
STARTCHAR U+03EE
ENCODING 1006
SWIDTH 480 0
DWIDTH 6 0
BBX 5 9 1 0
BITMAP
20
20
F8
A8
20
20
20
20
20
ENDCHAR
STARTCHAR U+03EF
ENCODING 1007
SWIDTH 480 0
DWIDTH 6 0
BBX 5 9 1 0
BITMAP
20
30
20
F8
A0
20
20
60
20
ENDCHAR
STARTCHAR U+03F0
ENCODING 1008
SWIDTH 480 0
DWIDTH 6 0
BBX 5 5 1 0
BITMAP
C8
50
70
50
98
ENDCHAR
STARTCHAR U+03F1
ENCODING 1009
SWIDTH 480 0
DWIDTH 6 0
BBX 5 8 1 -3
BITMAP
70
88
88
88
B0
80
60
10
ENDCHAR
STARTCHAR U+03F2
ENCODING 1010
SWIDTH 480 0
DWIDTH 6 0
BBX 5 5 1 0
BITMAP
70
80
80
88
70
ENDCHAR
STARTCHAR U+03F3
ENCODING 1011
SWIDTH 480 0
DWIDTH 6 0
BBX 4 11 1 -4
BITMAP
10
00
10
30
10
10
10
10
10
90
60
ENDCHAR
STARTCHAR U+03F4
ENCODING 1012
SWIDTH 480 0
DWIDTH 6 0
BBX 5 9 1 0
BITMAP
70
88
88
88
F8
88
88
88
70
ENDCHAR
STARTCHAR U+03F5
ENCODING 1013
SWIDTH 480 0
DWIDTH 6 0
BBX 5 5 1 0
BITMAP
70
80
E0
88
70
ENDCHAR
STARTCHAR U+03F6
ENCODING 1014
SWIDTH 480 0
DWIDTH 6 0
BBX 5 5 1 0
BITMAP
70
08
38
88
70
ENDCHAR
STARTCHAR U+03F7
ENCODING 1015
SWIDTH 480 0
DWIDTH 6 0
BBX 5 9 1 0
BITMAP
80
80
F0
88
88
88
B0
80
80
ENDCHAR
STARTCHAR U+03F8
ENCODING 1016
SWIDTH 480 0
DWIDTH 6 0
BBX 5 12 1 -3
BITMAP
80
80
80
80
B0
C8
88
88
B0
80
80
80
ENDCHAR
STARTCHAR U+03F9
ENCODING 1017
SWIDTH 480 0
DWIDTH 6 0
BBX 5 9 1 0
BITMAP
70
88
80
80
80
80
80
88
70
ENDCHAR
STARTCHAR U+03FA
ENCODING 1018
SWIDTH 480 0
DWIDTH 6 0
BBX 5 9 1 0
BITMAP
88
88
D8
D8
A8
A8
88
88
88
ENDCHAR
STARTCHAR U+03FB
ENCODING 1019
SWIDTH 480 0
DWIDTH 6 0
BBX 5 8 1 -3
BITMAP
88
D8
A8
88
88
80
80
80
ENDCHAR
STARTCHAR U+03FC
ENCODING 1020
SWIDTH 480 0
DWIDTH 6 0
BBX 6 8 0 -3
BITMAP
38
44
44
44
58
40
F0
40
ENDCHAR
STARTCHAR U+03FD
ENCODING 1021
SWIDTH 480 0
DWIDTH 6 0
BBX 5 9 1 0
BITMAP
70
88
08
08
08
08
08
88
70
ENDCHAR
STARTCHAR U+03FE
ENCODING 1022
SWIDTH 480 0
DWIDTH 6 0
BBX 5 9 1 0
BITMAP
70
88
80
80
A0
80
80
88
70
ENDCHAR
STARTCHAR U+03FF
ENCODING 1023
SWIDTH 480 0
DWIDTH 6 0
BBX 5 9 1 0
BITMAP
70
88
08
08
28
08
08
88
70
ENDCHAR
STARTCHAR U+0400
ENCODING 1024
SWIDTH 480 0
DWIDTH 6 0
BBX 5 12 1 0
BITMAP
40
20
00
F8
88
80
80
F0
80
80
88
F8
ENDCHAR
STARTCHAR U+0401
ENCODING 1025
SWIDTH 480 0
DWIDTH 6 0
BBX 5 11 1 0
BITMAP
50
00
F8
88
80
80
F0
80
80
88
F8
ENDCHAR
STARTCHAR U+0402
ENCODING 1026
SWIDTH 480 0
DWIDTH 6 0
BBX 5 10 1 -1
BITMAP
F0
40
40
40
50
68
48
48
48
10
ENDCHAR
STARTCHAR U+0403
ENCODING 1027
SWIDTH 480 0
DWIDTH 6 0
BBX 5 12 1 0
BITMAP
10
20
00
F8
88
80
80
80
80
80
80
80
ENDCHAR
STARTCHAR U+0404
ENCODING 1028
SWIDTH 480 0
DWIDTH 6 0
BBX 5 9 1 0
BITMAP
70
88
80
80
F0
80
80
88
70
ENDCHAR
STARTCHAR U+0405
ENCODING 1029
SWIDTH 480 0
DWIDTH 6 0
BBX 5 9 1 0
BITMAP
78
88
80
80
70
08
08
88
F0
ENDCHAR
STARTCHAR U+0406
ENCODING 1030
SWIDTH 480 0
DWIDTH 6 0
BBX 5 9 1 0
BITMAP
F8
20
20
20
20
20
20
20
F8
ENDCHAR
STARTCHAR U+0407
ENCODING 1031
SWIDTH 480 0
DWIDTH 6 0
BBX 5 11 1 0
BITMAP
50
00
F8
20
20
20
20
20
20
20
F8
ENDCHAR
STARTCHAR U+0408
ENCODING 1032
SWIDTH 480 0
DWIDTH 6 0
BBX 5 9 1 0
BITMAP
38
10
10
10
10
10
10
90
60
ENDCHAR
STARTCHAR U+0409
ENCODING 1033
SWIDTH 480 0
DWIDTH 6 0
BBX 6 9 0 0
BITMAP
70
50
50
50
58
54
54
54
98
ENDCHAR
STARTCHAR U+040A
ENCODING 1034
SWIDTH 480 0
DWIDTH 6 0
BBX 5 9 1 0
BITMAP
A0
A0
A0
A0
F0
A8
A8
A8
B0
ENDCHAR
STARTCHAR U+040B
ENCODING 1035
SWIDTH 480 0
DWIDTH 6 0
BBX 5 9 1 0
BITMAP
F0
40
40
40
50
68
48
48
48
ENDCHAR
STARTCHAR U+040C
ENCODING 1036
SWIDTH 480 0
DWIDTH 6 0
BBX 5 12 1 0
BITMAP
10
20
00
88
90
90
90
E0
A0
90
90
88
ENDCHAR
STARTCHAR U+040D
ENCODING 1037
SWIDTH 480 0
DWIDTH 6 0
BBX 5 12 1 0
BITMAP
40
20
00
88
98
98
A8
A8
C8
C8
88
88
ENDCHAR
STARTCHAR U+040E
ENCODING 1038
SWIDTH 480 0
DWIDTH 6 0
BBX 5 12 1 0
BITMAP
50
20
00
88
88
88
50
50
50
20
20
C0
ENDCHAR
STARTCHAR U+040F
ENCODING 1039
SWIDTH 480 0
DWIDTH 6 0
BBX 5 11 1 -2
BITMAP
88
88
88
88
88
88
88
88
F8
20
20
ENDCHAR
STARTCHAR U+0410
ENCODING 1040
SWIDTH 480 0
DWIDTH 6 0
BBX 5 9 1 0
BITMAP
20
20
20
50
50
70
88
88
88
ENDCHAR
STARTCHAR U+0411
ENCODING 1041
SWIDTH 480 0
DWIDTH 6 0
BBX 5 9 1 0
BITMAP
F0
90
80
80
80
B0
88
88
F0
ENDCHAR
STARTCHAR U+0412
ENCODING 1042
SWIDTH 480 0
DWIDTH 6 0
BBX 5 9 1 0
BITMAP
F0
88
88
88
B0
88
88
88
F0
ENDCHAR
STARTCHAR U+0413
ENCODING 1043
SWIDTH 480 0
DWIDTH 6 0
BBX 5 9 1 0
BITMAP
F8
88
80
80
80
80
80
80
80
ENDCHAR
STARTCHAR U+0414
ENCODING 1044
SWIDTH 480 0
DWIDTH 6 0
BBX 5 10 1 -1
BITMAP
78
48
48
48
48
48
48
88
B8
88
ENDCHAR
STARTCHAR U+0415
ENCODING 1045
SWIDTH 480 0
DWIDTH 6 0
BBX 5 9 1 0
BITMAP
F8
88
80
80
F0
80
80
88
F8
ENDCHAR
STARTCHAR U+0416
ENCODING 1046
SWIDTH 480 0
DWIDTH 6 0
BBX 5 9 1 0
BITMAP
A8
A8
A8
A8
70
A8
A8
A8
A8
ENDCHAR
STARTCHAR U+0417
ENCODING 1047
SWIDTH 480 0
DWIDTH 6 0
BBX 5 9 1 0
BITMAP
70
48
08
08
30
08
08
88
70
ENDCHAR
STARTCHAR U+0418
ENCODING 1048
SWIDTH 480 0
DWIDTH 6 0
BBX 5 9 1 0
BITMAP
88
98
98
A8
A8
C8
C8
88
88
ENDCHAR
STARTCHAR U+0419
ENCODING 1049
SWIDTH 480 0
DWIDTH 6 0
BBX 5 12 1 0
BITMAP
50
20
00
88
98
98
A8
A8
C8
C8
88
88
ENDCHAR
STARTCHAR U+041A
ENCODING 1050
SWIDTH 480 0
DWIDTH 6 0
BBX 5 9 1 0
BITMAP
88
90
90
90
E0
A0
90
90
88
ENDCHAR
STARTCHAR U+041B
ENCODING 1051
SWIDTH 480 0
DWIDTH 6 0
BBX 5 9 1 0
BITMAP
78
48
48
48
48
48
48
48
88
ENDCHAR
STARTCHAR U+041C
ENCODING 1052
SWIDTH 480 0
DWIDTH 6 0
BBX 5 9 1 0
BITMAP
88
D8
A8
A8
A8
A8
88
88
88
ENDCHAR
STARTCHAR U+041D
ENCODING 1053
SWIDTH 480 0
DWIDTH 6 0
BBX 5 9 1 0
BITMAP
88
88
88
88
F8
88
88
88
88
ENDCHAR
STARTCHAR U+041E
ENCODING 1054
SWIDTH 480 0
DWIDTH 6 0
BBX 5 9 1 0
BITMAP
70
88
88
88
88
88
88
88
70
ENDCHAR
STARTCHAR U+041F
ENCODING 1055
SWIDTH 480 0
DWIDTH 6 0
BBX 5 9 1 0
BITMAP
F8
88
88
88
88
88
88
88
88
ENDCHAR
STARTCHAR U+0420
ENCODING 1056
SWIDTH 480 0
DWIDTH 6 0
BBX 5 9 1 0
BITMAP
F0
88
88
88
B0
80
80
80
80
ENDCHAR
STARTCHAR U+0421
ENCODING 1057
SWIDTH 480 0
DWIDTH 6 0
BBX 5 9 1 0
BITMAP
70
88
80
80
80
80
80
88
70
ENDCHAR
STARTCHAR U+0422
ENCODING 1058
SWIDTH 480 0
DWIDTH 6 0
BBX 5 9 1 0
BITMAP
F8
20
20
20
20
20
20
20
20
ENDCHAR
STARTCHAR U+0423
ENCODING 1059
SWIDTH 480 0
DWIDTH 6 0
BBX 5 9 1 0
BITMAP
88
88
88
50
50
50
20
20
C0
ENDCHAR
STARTCHAR U+0424
ENCODING 1060
SWIDTH 480 0
DWIDTH 6 0
BBX 5 9 1 0
BITMAP
20
20
70
A8
A8
A8
70
20
20
ENDCHAR
STARTCHAR U+0425
ENCODING 1061
SWIDTH 480 0
DWIDTH 6 0
BBX 5 9 1 0
BITMAP
88
88
50
50
20
50
50
88
88
ENDCHAR
STARTCHAR U+0426
ENCODING 1062
SWIDTH 480 0
DWIDTH 6 0
BBX 5 10 1 -1
BITMAP
90
90
90
90
90
90
90
90
F8
08
ENDCHAR
STARTCHAR U+0427
ENCODING 1063
SWIDTH 480 0
DWIDTH 6 0
BBX 5 9 1 0
BITMAP
88
88
88
88
98
68
08
08
08
ENDCHAR
STARTCHAR U+0428
ENCODING 1064
SWIDTH 480 0
DWIDTH 6 0
BBX 5 9 1 0
BITMAP
A8
A8
A8
A8
A8
A8
A8
A8
F8
ENDCHAR
STARTCHAR U+0429
ENCODING 1065
SWIDTH 480 0
DWIDTH 6 0
BBX 5 11 1 -2
BITMAP
A8
A8
A8
A8
A8
A8
A8
A8
F8
08
08
ENDCHAR
STARTCHAR U+042A
ENCODING 1066
SWIDTH 480 0
DWIDTH 6 0
BBX 6 9 0 0
BITMAP
E0
20
20
20
20
28
24
24
38
ENDCHAR
STARTCHAR U+042B
ENCODING 1067
SWIDTH 480 0
DWIDTH 6 0
BBX 5 9 1 0
BITMAP
88
88
88
88
88
C8
A8
A8
C8
ENDCHAR
STARTCHAR U+042C
ENCODING 1068
SWIDTH 480 0
DWIDTH 6 0
BBX 5 9 1 0
BITMAP
80
80
80
80
80
B0
88
88
F0
ENDCHAR
STARTCHAR U+042D
ENCODING 1069
SWIDTH 480 0
DWIDTH 6 0
BBX 5 9 1 0
BITMAP
70
88
08
08
78
08
08
88
70
ENDCHAR
STARTCHAR U+042E
ENCODING 1070
SWIDTH 480 0
DWIDTH 6 0
BBX 5 9 1 0
BITMAP
90
A8
A8
A8
E8
A8
A8
A8
90
ENDCHAR
STARTCHAR U+042F
ENCODING 1071
SWIDTH 480 0
DWIDTH 6 0
BBX 5 9 1 0
BITMAP
78
88
88
88
68
28
48
48
88
ENDCHAR
STARTCHAR U+0430
ENCODING 1072
SWIDTH 480 0
DWIDTH 6 0
BBX 5 5 1 0
BITMAP
70
08
78
88
68
ENDCHAR
STARTCHAR U+0431
ENCODING 1073
SWIDTH 480 0
DWIDTH 6 0
BBX 5 9 1 0
BITMAP
08
70
80
80
B0
88
88
88
70
ENDCHAR
STARTCHAR U+0432
ENCODING 1074
SWIDTH 480 0
DWIDTH 6 0
BBX 5 5 1 0
BITMAP
F0
88
B0
88
F0
ENDCHAR
STARTCHAR U+0433
ENCODING 1075
SWIDTH 480 0
DWIDTH 6 0
BBX 5 5 1 0
BITMAP
F8
88
80
80
80
ENDCHAR
STARTCHAR U+0434
ENCODING 1076
SWIDTH 480 0
DWIDTH 6 0
BBX 5 6 1 -1
BITMAP
78
48
48
88
B8
88
ENDCHAR
STARTCHAR U+0435
ENCODING 1077
SWIDTH 480 0
DWIDTH 6 0
BBX 5 5 1 0
BITMAP
70
88
B8
80
70
ENDCHAR
STARTCHAR U+0436
ENCODING 1078
SWIDTH 480 0
DWIDTH 6 0
BBX 5 5 1 0
BITMAP
A8
A8
70
A8
A8
ENDCHAR
STARTCHAR U+0437
ENCODING 1079
SWIDTH 480 0
DWIDTH 6 0
BBX 5 5 1 0
BITMAP
70
08
30
88
70
ENDCHAR
STARTCHAR U+0438
ENCODING 1080
SWIDTH 480 0
DWIDTH 6 0
BBX 5 5 1 0
BITMAP
88
98
A8
C8
88
ENDCHAR
STARTCHAR U+0439
ENCODING 1081
SWIDTH 480 0
DWIDTH 6 0
BBX 5 8 1 0
BITMAP
50
20
00
88
98
A8
C8
88
ENDCHAR
STARTCHAR U+043A
ENCODING 1082
SWIDTH 480 0
DWIDTH 6 0
BBX 5 5 1 0
BITMAP
98
A0
E0
90
88
ENDCHAR
STARTCHAR U+043B
ENCODING 1083
SWIDTH 480 0
DWIDTH 6 0
BBX 5 5 1 0
BITMAP
78
48
48
48
88
ENDCHAR
STARTCHAR U+043C
ENCODING 1084
SWIDTH 480 0
DWIDTH 6 0
BBX 5 5 1 0
BITMAP
88
D8
A8
A8
A8
ENDCHAR
STARTCHAR U+043D
ENCODING 1085
SWIDTH 480 0
DWIDTH 6 0
BBX 5 5 1 0
BITMAP
88
88
F8
88
88
ENDCHAR
STARTCHAR U+043E
ENCODING 1086
SWIDTH 480 0
DWIDTH 6 0
BBX 5 5 1 0
BITMAP
70
88
88
88
70
ENDCHAR
STARTCHAR U+043F
ENCODING 1087
SWIDTH 480 0
DWIDTH 6 0
BBX 5 5 1 0
BITMAP
F8
88
88
88
88
ENDCHAR
STARTCHAR U+0440
ENCODING 1088
SWIDTH 480 0
DWIDTH 6 0
BBX 5 8 1 -3
BITMAP
B0
C8
88
88
B0
80
80
80
ENDCHAR
STARTCHAR U+0441
ENCODING 1089
SWIDTH 480 0
DWIDTH 6 0
BBX 5 5 1 0
BITMAP
70
80
80
88
70
ENDCHAR
STARTCHAR U+0442
ENCODING 1090
SWIDTH 480 0
DWIDTH 6 0
BBX 5 5 1 0
BITMAP
F8
20
20
20
20
ENDCHAR
STARTCHAR U+0443
ENCODING 1091
SWIDTH 480 0
DWIDTH 6 0
BBX 5 7 1 -2
BITMAP
88
88
50
50
20
20
C0
ENDCHAR
STARTCHAR U+0444
ENCODING 1092
SWIDTH 480 0
DWIDTH 6 0
BBX 5 12 1 -3
BITMAP
20
60
20
20
70
A8
A8
A8
70
20
20
70
ENDCHAR
STARTCHAR U+0445
ENCODING 1093
SWIDTH 480 0
DWIDTH 6 0
BBX 5 5 1 0
BITMAP
D8
50
20
50
D8
ENDCHAR
STARTCHAR U+0446
ENCODING 1094
SWIDTH 480 0
DWIDTH 6 0
BBX 5 6 1 -1
BITMAP
90
90
90
90
F8
08
ENDCHAR
STARTCHAR U+0447
ENCODING 1095
SWIDTH 480 0
DWIDTH 6 0
BBX 5 5 1 0
BITMAP
88
88
78
08
08
ENDCHAR
STARTCHAR U+0448
ENCODING 1096
SWIDTH 480 0
DWIDTH 6 0
BBX 5 5 1 0
BITMAP
A8
A8
A8
A8
F8
ENDCHAR
STARTCHAR U+0449
ENCODING 1097
SWIDTH 480 0
DWIDTH 6 0
BBX 5 7 1 -2
BITMAP
A8
A8
A8
A8
F8
08
08
ENDCHAR
STARTCHAR U+044A
ENCODING 1098
SWIDTH 480 0
DWIDTH 6 0
BBX 6 5 0 0
BITMAP
E0
20
28
24
38
ENDCHAR
STARTCHAR U+044B
ENCODING 1099
SWIDTH 480 0
DWIDTH 6 0
BBX 5 5 1 0
BITMAP
88
88
C8
A8
C8
ENDCHAR
STARTCHAR U+044C
ENCODING 1100
SWIDTH 480 0
DWIDTH 6 0
BBX 5 5 1 0
BITMAP
80
80
B0
88
F0
ENDCHAR
STARTCHAR U+044D
ENCODING 1101
SWIDTH 480 0
DWIDTH 6 0
BBX 5 5 1 0
BITMAP
70
08
38
88
70
ENDCHAR
STARTCHAR U+044E
ENCODING 1102
SWIDTH 480 0
DWIDTH 6 0
BBX 5 5 1 0
BITMAP
90
A8
E8
A8
90
ENDCHAR
STARTCHAR U+044F
ENCODING 1103
SWIDTH 480 0
DWIDTH 6 0
BBX 5 5 1 0
BITMAP
78
88
78
28
C8
ENDCHAR
STARTCHAR U+0450
ENCODING 1104
SWIDTH 480 0
DWIDTH 6 0
BBX 5 8 1 0
BITMAP
40
20
00
70
88
B8
80
70
ENDCHAR
STARTCHAR U+0451
ENCODING 1105
SWIDTH 480 0
DWIDTH 6 0
BBX 5 7 1 0
BITMAP
50
00
70
88
B8
80
70
ENDCHAR
STARTCHAR U+0452
ENCODING 1106
SWIDTH 480 0
DWIDTH 6 0
BBX 5 12 1 -3
BITMAP
40
40
F0
40
50
68
48
48
48
08
08
30
ENDCHAR
STARTCHAR U+0453
ENCODING 1107
SWIDTH 480 0
DWIDTH 6 0
BBX 5 8 1 0
BITMAP
10
20
00
F8
88
80
80
80
ENDCHAR
STARTCHAR U+0454
ENCODING 1108
SWIDTH 480 0
DWIDTH 6 0
BBX 5 5 1 0
BITMAP
70
80
E0
88
70
ENDCHAR
STARTCHAR U+0455
ENCODING 1109
SWIDTH 480 0
DWIDTH 6 0
BBX 5 5 1 0
BITMAP
70
80
70
08
70
ENDCHAR
STARTCHAR U+0456
ENCODING 1110
SWIDTH 480 0
DWIDTH 6 0
BBX 3 7 2 0
BITMAP
40
00
40
C0
40
40
E0
ENDCHAR
STARTCHAR U+0457
ENCODING 1111
SWIDTH 480 0
DWIDTH 6 0
BBX 3 7 2 0
BITMAP
A0
00
40
C0
40
40
E0
ENDCHAR
STARTCHAR U+0458
ENCODING 1112
SWIDTH 480 0
DWIDTH 6 0
BBX 4 10 1 -3
BITMAP
10
00
10
30
10
10
10
10
90
60
ENDCHAR
STARTCHAR U+0459
ENCODING 1113
SWIDTH 480 0
DWIDTH 6 0
BBX 6 5 0 0
BITMAP
70
50
58
54
98
ENDCHAR
STARTCHAR U+045A
ENCODING 1114
SWIDTH 480 0
DWIDTH 6 0
BBX 5 5 1 0
BITMAP
A0
A0
F0
A8
B0
ENDCHAR
STARTCHAR U+045B
ENCODING 1115
SWIDTH 480 0
DWIDTH 6 0
BBX 5 9 1 0
BITMAP
40
40
F0
40
50
68
48
48
48
ENDCHAR
STARTCHAR U+045C
ENCODING 1116
SWIDTH 480 0
DWIDTH 6 0
BBX 5 8 1 0
BITMAP
10
20
00
98
A0
E0
90
88
ENDCHAR
STARTCHAR U+045D
ENCODING 1117
SWIDTH 480 0
DWIDTH 6 0
BBX 5 8 1 0
BITMAP
40
20
00
88
98
A8
C8
88
ENDCHAR
STARTCHAR U+045E
ENCODING 1118
SWIDTH 480 0
DWIDTH 6 0
BBX 5 10 1 -2
BITMAP
50
20
00
88
88
50
50
20
20
C0
ENDCHAR
STARTCHAR U+045F
ENCODING 1119
SWIDTH 480 0
DWIDTH 6 0
BBX 5 7 1 -2
BITMAP
88
88
88
88
F8
20
20
ENDCHAR
STARTCHAR U+0460
ENCODING 1120
SWIDTH 480 0
DWIDTH 6 0
BBX 5 9 1 0
BITMAP
50
88
88
88
A8
A8
A8
A8
50
ENDCHAR
STARTCHAR U+0461
ENCODING 1121
SWIDTH 480 0
DWIDTH 6 0
BBX 5 5 1 0
BITMAP
50
88
A8
A8
50
ENDCHAR
STARTCHAR U+0462
ENCODING 1122
SWIDTH 480 0
DWIDTH 6 0
BBX 5 9 1 0
BITMAP
40
40
F0
40
50
48
48
48
70
ENDCHAR
STARTCHAR U+0463
ENCODING 1123
SWIDTH 480 0
DWIDTH 6 0
BBX 5 9 1 0
BITMAP
40
40
40
F0
40
50
48
48
70
ENDCHAR
STARTCHAR U+0464
ENCODING 1124
SWIDTH 480 0
DWIDTH 6 0
BBX 5 9 1 0
BITMAP
98
A0
A0
A0
F0
A0
A0
A0
98
ENDCHAR
STARTCHAR U+0465
ENCODING 1125
SWIDTH 480 0
DWIDTH 6 0
BBX 5 5 1 0
BITMAP
98
A0
F0
A0
98
ENDCHAR
STARTCHAR U+0466
ENCODING 1126
SWIDTH 480 0
DWIDTH 6 0
BBX 5 9 1 0
BITMAP
20
20
20
50
50
70
A8
A8
A8
ENDCHAR
STARTCHAR U+0467
ENCODING 1127
SWIDTH 480 0
DWIDTH 6 0
BBX 5 6 1 0
BITMAP
20
20
50
70
A8
A8
ENDCHAR
STARTCHAR U+0468
ENCODING 1128
SWIDTH 480 0
DWIDTH 6 0
BBX 5 9 1 0
BITMAP
A0
A0
A0
D0
D0
F0
A8
A8
A8
ENDCHAR
STARTCHAR U+0469
ENCODING 1129
SWIDTH 480 0
DWIDTH 6 0
BBX 5 6 1 0
BITMAP
A0
A0
D0
F0
A8
A8
ENDCHAR
STARTCHAR U+046A
ENCODING 1130
SWIDTH 480 0
DWIDTH 6 0
BBX 5 9 1 0
BITMAP
F8
88
50
50
70
A8
A8
A8
A8
ENDCHAR
STARTCHAR U+046B
ENCODING 1131
SWIDTH 480 0
DWIDTH 6 0
BBX 5 6 1 0
BITMAP
F8
88
50
70
A8
A8
ENDCHAR
STARTCHAR U+046C
ENCODING 1132
SWIDTH 480 0
DWIDTH 6 0
BBX 5 9 1 0
BITMAP
F8
88
D0
D0
F0
A8
A8
A8
A8
ENDCHAR
STARTCHAR U+046D
ENCODING 1133
SWIDTH 480 0
DWIDTH 6 0
BBX 5 6 1 0
BITMAP
F8
88
D0
F0
A8
A8
ENDCHAR
STARTCHAR U+046E
ENCODING 1134
SWIDTH 480 0
DWIDTH 6 0
BBX 5 15 1 -3
BITMAP
50
20
00
70
48
08
08
30
08
08
08
70
80
70
08
ENDCHAR
STARTCHAR U+046F
ENCODING 1135
SWIDTH 480 0
DWIDTH 6 0
BBX 5 11 1 -3
BITMAP
50
20
00
70
08
30
08
70
80
70
08
ENDCHAR
STARTCHAR U+0470
ENCODING 1136
SWIDTH 480 0
DWIDTH 6 0
BBX 6 9 1 0
BITMAP
A4
A8
A8
A8
A8
70
20
20
20
ENDCHAR
STARTCHAR U+0471
ENCODING 1137
SWIDTH 480 0
DWIDTH 6 0
BBX 5 8 1 -3
BITMAP
A8
A8
A8
A8
70
20
20
20
ENDCHAR
STARTCHAR U+0472
ENCODING 1138
SWIDTH 480 0
DWIDTH 6 0
BBX 5 9 1 0
BITMAP
70
88
88
88
F8
88
88
88
70
ENDCHAR
STARTCHAR U+0473
ENCODING 1139
SWIDTH 480 0
DWIDTH 6 0
BBX 5 5 1 0
BITMAP
70
88
F8
88
70
ENDCHAR
STARTCHAR U+0474
ENCODING 1140
SWIDTH 480 0
DWIDTH 6 0
BBX 6 9 1 0
BITMAP
88
94
90
50
50
50
20
20
20
ENDCHAR
STARTCHAR U+0475
ENCODING 1141
SWIDTH 480 0
DWIDTH 6 0
BBX 6 5 1 0
BITMAP
88
54
50
20
20
ENDCHAR
STARTCHAR U+0476
ENCODING 1142
SWIDTH 480 0
DWIDTH 6 0
BBX 6 12 1 0
BITMAP
A0
50
00
88
94
90
50
50
50
20
20
20
ENDCHAR
STARTCHAR U+0477
ENCODING 1143
SWIDTH 480 0
DWIDTH 6 0
BBX 6 8 1 0
BITMAP
A0
50
00
88
54
50
20
20
ENDCHAR
STARTCHAR U+0478
ENCODING 1144
SWIDTH 480 0
DWIDTH 6 0
BBX 6 12 0 -3
BITMAP
40
A0
A0
A0
B4
B4
B4
B4
48
08
08
10
ENDCHAR
STARTCHAR U+0479
ENCODING 1145
SWIDTH 480 0
DWIDTH 6 0
BBX 6 8 0 -3
BITMAP
54
B4
B4
B4
48
08
08
10
ENDCHAR
STARTCHAR U+047A
ENCODING 1146
SWIDTH 480 0
DWIDTH 6 0
BBX 5 11 1 -1
BITMAP
20
70
A8
88
88
88
88
88
A8
70
20
ENDCHAR
STARTCHAR U+047B
ENCODING 1147
SWIDTH 480 0
DWIDTH 6 0
BBX 5 7 1 -1
BITMAP
20
70
A8
88
A8
70
20
ENDCHAR
STARTCHAR U+047C
ENCODING 1148
SWIDTH 480 0
DWIDTH 6 0
BBX 5 12 1 0
BITMAP
60
98
20
00
50
88
88
A8
A8
A8
A8
50
ENDCHAR
STARTCHAR U+047D
ENCODING 1149
SWIDTH 480 0
DWIDTH 6 0
BBX 5 9 1 0
BITMAP
60
98
20
00
50
88
A8
A8
50
ENDCHAR
STARTCHAR U+047E
ENCODING 1150
SWIDTH 480 0
DWIDTH 6 0
BBX 5 12 1 0
BITMAP
F8
A8
00
50
88
88
88
A8
A8
A8
A8
50
ENDCHAR
STARTCHAR U+047F
ENCODING 1151
SWIDTH 480 0
DWIDTH 6 0
BBX 5 8 1 0
BITMAP
F8
A8
00
50
88
A8
A8
50
ENDCHAR
STARTCHAR U+0480
ENCODING 1152
SWIDTH 480 0
DWIDTH 6 0
BBX 5 11 1 -2
BITMAP
70
88
80
80
80
80
80
80
70
10
10
ENDCHAR
STARTCHAR U+0481
ENCODING 1153
SWIDTH 480 0
DWIDTH 6 0
BBX 5 7 1 -2
BITMAP
70
88
80
80
70
10
10
ENDCHAR
STARTCHAR U+0482
ENCODING 1154
SWIDTH 480 0
DWIDTH 6 0
BBX 5 8 1 0
BITMAP
10
10
E0
18
C0
38
40
40
ENDCHAR
STARTCHAR U+0483
ENCODING 1155
SWIDTH 480 0
DWIDTH 6 0
BBX 4 3 2 6
BITMAP
10
F0
80
ENDCHAR
STARTCHAR U+0484
ENCODING 1156
SWIDTH 480 0
DWIDTH 6 0
BBX 5 2 1 7
BITMAP
30
C8
ENDCHAR
STARTCHAR U+0485
ENCODING 1157
SWIDTH 480 0
DWIDTH 6 0
BBX 2 3 2 6
BITMAP
80
80
40
ENDCHAR
STARTCHAR U+0486
ENCODING 1158
SWIDTH 480 0
DWIDTH 6 0
BBX 2 3 3 6
BITMAP
40
40
80
ENDCHAR
STARTCHAR U+0487
ENCODING 1159
SWIDTH 480 0
DWIDTH 6 0
BBX 5 2 1 7
BITMAP
60
98
ENDCHAR
STARTCHAR U+0488
ENCODING 1160
SWIDTH 480 0
DWIDTH 6 0
BBX 7 7 0 0
BITMAP
10
6C
00
C6
00
6C
10
ENDCHAR
STARTCHAR U+0489
ENCODING 1161
SWIDTH 480 0
DWIDTH 6 0
BBX 7 7 0 0
BITMAP
10
44
28
82
28
44
10
ENDCHAR
STARTCHAR U+048A
ENCODING 1162
SWIDTH 480 0
DWIDTH 6 0
BBX 5 15 1 -3
BITMAP
50
20
00
88
98
98
A8
A8
C8
C8
88
88
08
08
10
ENDCHAR
STARTCHAR U+048B
ENCODING 1163
SWIDTH 480 0
DWIDTH 6 0
BBX 5 11 1 -3
BITMAP
50
20
00
88
98
A8
C8
88
08
08
10
ENDCHAR
STARTCHAR U+048C
ENCODING 1164
SWIDTH 480 0
DWIDTH 6 0
BBX 5 9 1 0
BITMAP
40
40
40
E0
40
50
48
48
70
ENDCHAR
STARTCHAR U+048D
ENCODING 1165
SWIDTH 480 0
DWIDTH 6 0
BBX 5 9 1 0
BITMAP
40
40
40
40
E0
40
50
48
70
ENDCHAR
STARTCHAR U+048E
ENCODING 1166
SWIDTH 480 0
DWIDTH 6 0
BBX 5 9 1 0
BITMAP
F0
88
A8
90
A8
80
80
80
80
ENDCHAR
STARTCHAR U+048F
ENCODING 1167
SWIDTH 480 0
DWIDTH 6 0
BBX 5 8 1 -3
BITMAP
F0
88
A8
90
A8
80
80
80
ENDCHAR
STARTCHAR U+0490
ENCODING 1168
SWIDTH 480 0
DWIDTH 6 0
BBX 5 10 1 0
BITMAP
08
F8
80
80
80
80
80
80
80
80
ENDCHAR
STARTCHAR U+0491
ENCODING 1169
SWIDTH 480 0
DWIDTH 6 0
BBX 5 6 1 0
BITMAP
08
F8
80
80
80
80
ENDCHAR
STARTCHAR U+0492
ENCODING 1170
SWIDTH 480 0
DWIDTH 6 0
BBX 6 9 0 0
BITMAP
7C
44
40
40
F0
40
40
40
40
ENDCHAR
STARTCHAR U+0493
ENCODING 1171
SWIDTH 480 0
DWIDTH 6 0
BBX 6 5 0 0
BITMAP
7C
40
F0
40
40
ENDCHAR
STARTCHAR U+0494
ENCODING 1172
SWIDTH 480 0
DWIDTH 6 0
BBX 5 12 1 -3
BITMAP
F0
90
80
80
B0
C8
88
88
88
08
08
30
ENDCHAR
STARTCHAR U+0495
ENCODING 1173
SWIDTH 480 0
DWIDTH 6 0
BBX 5 10 1 -3
BITMAP
F0
80
80
B0
C8
88
88
08
08
30
ENDCHAR
STARTCHAR U+0496
ENCODING 1174
SWIDTH 480 0
DWIDTH 6 0
BBX 5 11 1 -2
BITMAP
A8
A8
A8
A8
70
A8
A8
A8
A8
08
08
ENDCHAR
STARTCHAR U+0497
ENCODING 1175
SWIDTH 480 0
DWIDTH 6 0
BBX 5 11 1 -2
BITMAP
A8
A8
A8
A8
70
A8
A8
A8
A8
08
08
ENDCHAR
STARTCHAR U+0498
ENCODING 1176
SWIDTH 480 0
DWIDTH 6 0
BBX 5 12 1 -3
BITMAP
70
48
08
08
30
08
08
88
70
20
10
60
ENDCHAR
STARTCHAR U+0499
ENCODING 1177
SWIDTH 480 0
DWIDTH 6 0
BBX 5 8 1 -3
BITMAP
70
08
38
88
70
20
10
60
ENDCHAR
STARTCHAR U+049A
ENCODING 1178
SWIDTH 480 0
DWIDTH 6 0
BBX 5 11 1 -2
BITMAP
88
90
90
90
E0
A0
90
90
88
08
08
ENDCHAR
STARTCHAR U+049B
ENCODING 1179
SWIDTH 480 0
DWIDTH 6 0
BBX 5 7 1 -2
BITMAP
98
A0
E0
90
88
08
08
ENDCHAR
STARTCHAR U+049C
ENCODING 1180
SWIDTH 480 0
DWIDTH 6 0
BBX 5 9 1 0
BITMAP
88
88
A8
B0
F0
A8
A8
88
88
ENDCHAR
STARTCHAR U+049D
ENCODING 1181
SWIDTH 480 0
DWIDTH 6 0
BBX 5 5 1 0
BITMAP
A8
B0
F0
A8
88
ENDCHAR
STARTCHAR U+049E
ENCODING 1182
SWIDTH 480 0
DWIDTH 6 0
BBX 6 9 0 0
BITMAP
44
E8
48
48
70
50
48
48
44
ENDCHAR
STARTCHAR U+049F
ENCODING 1183
SWIDTH 480 0
DWIDTH 6 0
BBX 6 9 0 0
BITMAP
40
40
E0
40
4C
50
70
48
44
ENDCHAR
STARTCHAR U+04A0
ENCODING 1184
SWIDTH 480 0
DWIDTH 6 0
BBX 5 9 1 0
BITMAP
C8
50
50
50
60
50
50
48
48
ENDCHAR
STARTCHAR U+04A1
ENCODING 1185
SWIDTH 480 0
DWIDTH 6 0
BBX 5 5 1 0
BITMAP
D8
50
60
50
48
ENDCHAR
STARTCHAR U+04A2
ENCODING 1186
SWIDTH 480 0
DWIDTH 6 0
BBX 5 11 1 -2
BITMAP
90
90
90
90
F0
90
90
90
98
08
08
ENDCHAR
STARTCHAR U+04A3
ENCODING 1187
SWIDTH 480 0
DWIDTH 6 0
BBX 5 7 1 -2
BITMAP
90
90
F0
90
98
08
08
ENDCHAR
STARTCHAR U+04A4
ENCODING 1188
SWIDTH 480 0
DWIDTH 6 0
BBX 6 9 1 0
BITMAP
9C
90
90
90
F0
90
90
90
90
ENDCHAR
STARTCHAR U+04A5
ENCODING 1189
SWIDTH 480 0
DWIDTH 6 0
BBX 6 5 1 0
BITMAP
9C
90
F0
90
90
ENDCHAR
STARTCHAR U+04A6
ENCODING 1190
SWIDTH 480 0
DWIDTH 6 0
BBX 5 12 1 -3
BITMAP
E0
A0
A0
A0
B0
A8
A8
A8
A8
08
08
30
ENDCHAR
STARTCHAR U+04A7
ENCODING 1191
SWIDTH 480 0
DWIDTH 6 0
BBX 5 8 1 -3
BITMAP
E0
A0
B0
A8
A8
08
08
30
ENDCHAR
STARTCHAR U+04A8
ENCODING 1192
SWIDTH 480 0
DWIDTH 6 0
BBX 5 9 1 0
BITMAP
40
90
A8
A8
A8
A8
A8
90
68
ENDCHAR
STARTCHAR U+04A9
ENCODING 1193
SWIDTH 480 0
DWIDTH 6 0
BBX 5 6 1 0
BITMAP
40
90
A8
A8
90
68
ENDCHAR
STARTCHAR U+04AA
ENCODING 1194
SWIDTH 480 0
DWIDTH 6 0
BBX 5 12 1 -3
BITMAP
70
88
80
80
80
80
80
88
70
20
10
60
ENDCHAR
STARTCHAR U+04AB
ENCODING 1195
SWIDTH 480 0
DWIDTH 6 0
BBX 5 8 1 -3
BITMAP
70
80
80
88
70
20
10
60
ENDCHAR
STARTCHAR U+04AC
ENCODING 1196
SWIDTH 480 0
DWIDTH 6 0
BBX 5 11 1 -2
BITMAP
F8
20
20
20
20
20
20
20
30
10
10
ENDCHAR
STARTCHAR U+04AD
ENCODING 1197
SWIDTH 480 0
DWIDTH 6 0
BBX 5 7 1 -2
BITMAP
F8
20
20
20
30
10
10
ENDCHAR
STARTCHAR U+04AE
ENCODING 1198
SWIDTH 480 0
DWIDTH 6 0
BBX 5 9 1 0
BITMAP
88
88
50
50
20
20
20
20
20
ENDCHAR
STARTCHAR U+04AF
ENCODING 1199
SWIDTH 480 0
DWIDTH 6 0
BBX 5 8 1 -3
BITMAP
88
88
50
50
20
20
20
20
ENDCHAR
STARTCHAR U+04B0
ENCODING 1200
SWIDTH 480 0
DWIDTH 6 0
BBX 5 9 1 0
BITMAP
88
88
50
50
20
F8
20
20
20
ENDCHAR
STARTCHAR U+04B1
ENCODING 1201
SWIDTH 480 0
DWIDTH 6 0
BBX 5 8 1 -3
BITMAP
88
88
50
50
20
F8
20
20
ENDCHAR
STARTCHAR U+04B2
ENCODING 1202
SWIDTH 480 0
DWIDTH 6 0
BBX 5 11 1 -2
BITMAP
88
88
50
50
20
50
50
88
88
08
08
ENDCHAR
STARTCHAR U+04B3
ENCODING 1203
SWIDTH 480 0
DWIDTH 6 0
BBX 5 6 1 -1
BITMAP
D8
50
20
50
D8
08
ENDCHAR
STARTCHAR U+04B4
ENCODING 1204
SWIDTH 480 0
DWIDTH 6 0
BBX 6 11 0 -2
BITMAP
E8
48
48
48
48
48
48
48
7C
04
04
ENDCHAR
STARTCHAR U+04B5
ENCODING 1205
SWIDTH 480 0
DWIDTH 6 0
BBX 6 7 0 -2
BITMAP
E8
48
48
48
7C
04
04
ENDCHAR
STARTCHAR U+04B6
ENCODING 1206
SWIDTH 480 0
DWIDTH 6 0
BBX 5 11 1 -2
BITMAP
90
90
90
90
B0
50
10
10
18
08
08
ENDCHAR
STARTCHAR U+04B7
ENCODING 1207
SWIDTH 480 0
DWIDTH 6 0
BBX 5 7 1 -2
BITMAP
90
90
70
10
18
08
08
ENDCHAR
STARTCHAR U+04B8
ENCODING 1208
SWIDTH 480 0
DWIDTH 6 0
BBX 5 9 1 0
BITMAP
88
88
88
A8
B8
68
28
08
08
ENDCHAR
STARTCHAR U+04B9
ENCODING 1209
SWIDTH 480 0
DWIDTH 6 0
BBX 5 5 1 0
BITMAP
88
A8
78
28
08
ENDCHAR
STARTCHAR U+04BA
ENCODING 1210
SWIDTH 480 0
DWIDTH 6 0
BBX 5 9 1 0
BITMAP
80
80
80
80
80
F0
88
88
88
ENDCHAR
STARTCHAR U+04BB
ENCODING 1211
SWIDTH 480 0
DWIDTH 6 0
BBX 5 9 1 0
BITMAP
80
80
80
80
B0
C8
88
88
88
ENDCHAR
STARTCHAR U+04BC
ENCODING 1212
SWIDTH 480 0
DWIDTH 6 0
BBX 5 9 1 0
BITMAP
10
28
28
A8
F8
20
20
28
10
ENDCHAR
STARTCHAR U+04BD
ENCODING 1213
SWIDTH 480 0
DWIDTH 6 0
BBX 5 5 1 0
BITMAP
10
A8
F8
20
18
ENDCHAR
STARTCHAR U+04BE
ENCODING 1214
SWIDTH 480 0
DWIDTH 6 0
BBX 5 11 1 -2
BITMAP
10
28
28
A8
F8
20
20
28
10
10
10
ENDCHAR
STARTCHAR U+04BF
ENCODING 1215
SWIDTH 480 0
DWIDTH 6 0
BBX 5 7 1 -2
BITMAP
10
A8
F8
20
18
10
10
ENDCHAR
STARTCHAR U+04C0
ENCODING 1216
SWIDTH 480 0
DWIDTH 6 0
BBX 5 9 1 0
BITMAP
F8
20
20
20
20
20
20
20
F8
ENDCHAR
STARTCHAR U+04C1
ENCODING 1217
SWIDTH 480 0
DWIDTH 6 0
BBX 5 12 1 0
BITMAP
50
20
00
A8
A8
A8
A8
70
A8
A8
A8
A8
ENDCHAR
STARTCHAR U+04C2
ENCODING 1218
SWIDTH 480 0
DWIDTH 6 0
BBX 5 8 1 0
BITMAP
50
20
00
A8
A8
70
A8
A8
ENDCHAR
STARTCHAR U+04C3
ENCODING 1219
SWIDTH 480 0
DWIDTH 6 0
BBX 5 12 1 -3
BITMAP
88
90
90
90
E0
A0
90
90
88
08
28
10
ENDCHAR
STARTCHAR U+04C4
ENCODING 1220
SWIDTH 480 0
DWIDTH 6 0
BBX 5 8 1 -3
BITMAP
98
A0
E0
90
88
08
28
10
ENDCHAR
STARTCHAR U+04C5
ENCODING 1221
SWIDTH 480 0
DWIDTH 6 0
BBX 5 12 1 -3
BITMAP
78
48
48
48
48
48
48
48
88
08
08
10
ENDCHAR
STARTCHAR U+04C6
ENCODING 1222
SWIDTH 480 0
DWIDTH 6 0
BBX 5 8 1 -3
BITMAP
78
48
48
48
88
08
08
10
ENDCHAR
STARTCHAR U+04C7
ENCODING 1223
SWIDTH 480 0
DWIDTH 6 0
BBX 5 12 1 -3
BITMAP
88
88
88
88
F8
88
88
88
88
08
28
10
ENDCHAR
STARTCHAR U+04C8
ENCODING 1224
SWIDTH 480 0
DWIDTH 6 0
BBX 5 8 1 -3
BITMAP
88
88
F8
88
88
08
28
10
ENDCHAR
STARTCHAR U+04C9
ENCODING 1225
SWIDTH 480 0
DWIDTH 6 0
BBX 5 11 1 -2
BITMAP
90
90
90
90
F0
90
90
90
98
08
10
ENDCHAR
STARTCHAR U+04CA
ENCODING 1226
SWIDTH 480 0
DWIDTH 6 0
BBX 5 7 1 -2
BITMAP
90
90
F0
90
98
08
10
ENDCHAR
STARTCHAR U+04CB
ENCODING 1227
SWIDTH 480 0
DWIDTH 6 0
BBX 5 11 1 -2
BITMAP
88
88
88
88
98
68
08
08
18
10
10
ENDCHAR
STARTCHAR U+04CC
ENCODING 1228
SWIDTH 480 0
DWIDTH 6 0
BBX 5 7 1 -2
BITMAP
88
88
78
08
18
10
10
ENDCHAR
STARTCHAR U+04CD
ENCODING 1229
SWIDTH 480 0
DWIDTH 6 0
BBX 5 12 1 -3
BITMAP
88
D8
A8
A8
A8
A8
88
88
88
08
08
10
ENDCHAR
STARTCHAR U+04CE
ENCODING 1230
SWIDTH 480 0
DWIDTH 6 0
BBX 5 8 1 -3
BITMAP
88
D8
A8
A8
A8
08
08
10
ENDCHAR
STARTCHAR U+04CF
ENCODING 1231
SWIDTH 480 0
DWIDTH 6 0
BBX 3 9 2 0
BITMAP
40
C0
40
40
40
40
40
40
E0
ENDCHAR
STARTCHAR U+04D0
ENCODING 1232
SWIDTH 480 0
DWIDTH 6 0
BBX 5 12 1 0
BITMAP
50
20
00
20
20
20
50
50
70
88
88
88
ENDCHAR
STARTCHAR U+04D1
ENCODING 1233
SWIDTH 480 0
DWIDTH 6 0
BBX 5 8 1 0
BITMAP
50
20
00
70
08
78
88
68
ENDCHAR
STARTCHAR U+04D2
ENCODING 1234
SWIDTH 480 0
DWIDTH 6 0
BBX 5 11 1 0
BITMAP
50
00
20
20
20
50
50
70
88
88
88
ENDCHAR
STARTCHAR U+04D3
ENCODING 1235
SWIDTH 480 0
DWIDTH 6 0
BBX 5 7 1 0
BITMAP
50
00
70
08
78
88
68
ENDCHAR
STARTCHAR U+04D4
ENCODING 1236
SWIDTH 480 0
DWIDTH 6 0
BBX 5 9 1 0
BITMAP
78
A0
A0
A0
F8
A0
A0
A0
B8
ENDCHAR
STARTCHAR U+04D5
ENCODING 1237
SWIDTH 480 0
DWIDTH 6 0
BBX 5 5 1 0
BITMAP
50
28
70
A0
58
ENDCHAR
STARTCHAR U+04D6
ENCODING 1238
SWIDTH 480 0
DWIDTH 6 0
BBX 5 12 1 0
BITMAP
50
20
00
F8
88
80
80
F0
80
80
88
F8
ENDCHAR
STARTCHAR U+04D7
ENCODING 1239
SWIDTH 480 0
DWIDTH 6 0
BBX 5 8 1 0
BITMAP
50
20
00
70
88
B8
80
70
ENDCHAR
STARTCHAR U+04D8
ENCODING 1240
SWIDTH 480 0
DWIDTH 6 0
BBX 5 9 1 0
BITMAP
70
48
08
08
E8
88
88
88
70
ENDCHAR
STARTCHAR U+04D9
ENCODING 1241
SWIDTH 480 0
DWIDTH 6 0
BBX 5 5 1 0
BITMAP
70
08
E8
88
70
ENDCHAR
STARTCHAR U+04DA
ENCODING 1242
SWIDTH 480 0
DWIDTH 6 0
BBX 5 11 1 0
BITMAP
50
00
70
48
08
08
E8
88
88
88
70
ENDCHAR
STARTCHAR U+04DB
ENCODING 1243
SWIDTH 480 0
DWIDTH 6 0
BBX 5 7 1 0
BITMAP
50
00
70
08
E8
88
70
ENDCHAR
STARTCHAR U+04DC
ENCODING 1244
SWIDTH 480 0
DWIDTH 6 0
BBX 5 11 1 0
BITMAP
50
00
A8
A8
A8
A8
70
A8
A8
A8
A8
ENDCHAR
STARTCHAR U+04DD
ENCODING 1245
SWIDTH 480 0
DWIDTH 6 0
BBX 5 7 1 0
BITMAP
50
00
A8
A8
70
A8
A8
ENDCHAR
STARTCHAR U+04DE
ENCODING 1246
SWIDTH 480 0
DWIDTH 6 0
BBX 5 11 1 0
BITMAP
50
00
70
48
08
08
30
08
08
88
70
ENDCHAR
STARTCHAR U+04DF
ENCODING 1247
SWIDTH 480 0
DWIDTH 6 0
BBX 5 7 1 0
BITMAP
50
00
70
08
30
88
70
ENDCHAR
STARTCHAR U+04E0
ENCODING 1248
SWIDTH 480 0
DWIDTH 6 0
BBX 5 9 1 0
BITMAP
F8
88
10
20
70
08
08
88
70
ENDCHAR
STARTCHAR U+04E1
ENCODING 1249
SWIDTH 480 0
DWIDTH 6 0
BBX 5 7 1 -2
BITMAP
F8
10
20
70
08
88
70
ENDCHAR
STARTCHAR U+04E2
ENCODING 1250
SWIDTH 480 0
DWIDTH 6 0
BBX 5 11 1 0
BITMAP
70
00
88
98
98
A8
A8
C8
C8
88
88
ENDCHAR
STARTCHAR U+04E3
ENCODING 1251
SWIDTH 480 0
DWIDTH 6 0
BBX 5 7 1 0
BITMAP
70
00
88
98
A8
C8
88
ENDCHAR
STARTCHAR U+04E4
ENCODING 1252
SWIDTH 480 0
DWIDTH 6 0
BBX 5 11 1 0
BITMAP
50
00
88
98
98
A8
A8
C8
C8
88
88
ENDCHAR
STARTCHAR U+04E5
ENCODING 1253
SWIDTH 480 0
DWIDTH 6 0
BBX 5 7 1 0
BITMAP
50
00
88
98
A8
C8
88
ENDCHAR
STARTCHAR U+04E6
ENCODING 1254
SWIDTH 480 0
DWIDTH 6 0
BBX 5 11 1 0
BITMAP
50
00
70
88
88
88
88
88
88
88
70
ENDCHAR
STARTCHAR U+04E7
ENCODING 1255
SWIDTH 480 0
DWIDTH 6 0
BBX 5 7 1 0
BITMAP
50
00
70
88
88
88
70
ENDCHAR
STARTCHAR U+04E8
ENCODING 1256
SWIDTH 480 0
DWIDTH 6 0
BBX 5 9 1 0
BITMAP
70
88
88
88
F8
88
88
88
70
ENDCHAR
STARTCHAR U+04E9
ENCODING 1257
SWIDTH 480 0
DWIDTH 6 0
BBX 5 5 1 0
BITMAP
70
88
F8
88
70
ENDCHAR
STARTCHAR U+04EA
ENCODING 1258
SWIDTH 480 0
DWIDTH 6 0
BBX 5 11 1 0
BITMAP
50
00
70
88
88
88
F8
88
88
88
70
ENDCHAR
STARTCHAR U+04EB
ENCODING 1259
SWIDTH 480 0
DWIDTH 6 0
BBX 5 7 1 0
BITMAP
50
00
70
88
F8
88
70
ENDCHAR
STARTCHAR U+04EC
ENCODING 1260
SWIDTH 480 0
DWIDTH 6 0
BBX 5 11 1 0
BITMAP
50
00
70
88
08
08
78
08
08
88
70
ENDCHAR
STARTCHAR U+04ED
ENCODING 1261
SWIDTH 480 0
DWIDTH 6 0
BBX 5 7 1 0
BITMAP
50
00
70
08
38
88
70
ENDCHAR
STARTCHAR U+04EE
ENCODING 1262
SWIDTH 480 0
DWIDTH 6 0
BBX 5 11 1 0
BITMAP
70
00
88
88
88
50
50
50
20
20
C0
ENDCHAR
STARTCHAR U+04EF
ENCODING 1263
SWIDTH 480 0
DWIDTH 6 0
BBX 5 9 1 -2
BITMAP
70
00
88
88
50
50
20
20
C0
ENDCHAR
STARTCHAR U+04F0
ENCODING 1264
SWIDTH 480 0
DWIDTH 6 0
BBX 5 11 1 0
BITMAP
50
00
88
88
88
50
50
50
20
20
C0
ENDCHAR
STARTCHAR U+04F1
ENCODING 1265
SWIDTH 480 0
DWIDTH 6 0
BBX 5 9 1 -2
BITMAP
50
00
88
88
50
50
20
20
C0
ENDCHAR
STARTCHAR U+04F2
ENCODING 1266
SWIDTH 480 0
DWIDTH 6 0
BBX 5 12 1 0
BITMAP
28
50
00
88
88
88
50
50
50
20
20
C0
ENDCHAR
STARTCHAR U+04F3
ENCODING 1267
SWIDTH 480 0
DWIDTH 6 0
BBX 5 10 1 -2
BITMAP
28
50
00
88
88
50
50
20
20
C0
ENDCHAR
STARTCHAR U+04F4
ENCODING 1268
SWIDTH 480 0
DWIDTH 6 0
BBX 5 11 1 0
BITMAP
50
00
88
88
88
88
98
68
08
08
08
ENDCHAR
STARTCHAR U+04F5
ENCODING 1269
SWIDTH 480 0
DWIDTH 6 0
BBX 5 7 1 0
BITMAP
50
00
88
88
78
08
08
ENDCHAR
STARTCHAR U+04F6
ENCODING 1270
SWIDTH 480 0
DWIDTH 6 0
BBX 5 11 1 -2
BITMAP
F8
88
80
80
80
80
80
80
C0
40
40
ENDCHAR
STARTCHAR U+04F7
ENCODING 1271
SWIDTH 480 0
DWIDTH 6 0
BBX 5 7 1 -2
BITMAP
F8
88
80
80
C0
40
40
ENDCHAR
STARTCHAR U+04F8
ENCODING 1272
SWIDTH 480 0
DWIDTH 6 0
BBX 5 11 1 0
BITMAP
50
00
88
88
88
88
88
C8
A8
A8
C8
ENDCHAR
STARTCHAR U+04F9
ENCODING 1273
SWIDTH 480 0
DWIDTH 6 0
BBX 5 7 1 0
BITMAP
50
00
88
88
C8
A8
C8
ENDCHAR
STARTCHAR U+04FA
ENCODING 1274
SWIDTH 480 0
DWIDTH 6 0
BBX 6 12 0 -3
BITMAP
7C
44
40
40
F0
40
40
40
70
10
50
20
ENDCHAR
STARTCHAR U+04FB
ENCODING 1275
SWIDTH 480 0
DWIDTH 6 0
BBX 6 8 0 -3
BITMAP
7C
40
F0
40
70
10
50
20
ENDCHAR
STARTCHAR U+04FC
ENCODING 1276
SWIDTH 480 0
DWIDTH 6 0
BBX 5 12 1 -3
BITMAP
88
88
50
50
20
50
50
88
88
08
28
10
ENDCHAR
STARTCHAR U+04FD
ENCODING 1277
SWIDTH 480 0
DWIDTH 6 0
BBX 5 8 1 -3
BITMAP
D8
50
20
50
D8
08
28
10
ENDCHAR
STARTCHAR U+04FE
ENCODING 1278
SWIDTH 480 0
DWIDTH 6 0
BBX 5 9 1 0
BITMAP
88
88
50
F8
20
50
50
88
88
ENDCHAR
STARTCHAR U+04FF
ENCODING 1279
SWIDTH 480 0
DWIDTH 6 0
BBX 5 6 1 0
BITMAP
D8
50
F8
20
50
D8
ENDCHAR
STARTCHAR U+0500
ENCODING 1280
SWIDTH 480 0
DWIDTH 6 0
BBX 5 9 1 0
BITMAP
08
08
08
08
68
88
88
88
78
ENDCHAR
STARTCHAR U+0501
ENCODING 1281
SWIDTH 480 0
DWIDTH 6 0
BBX 5 9 1 0
BITMAP
08
08
08
68
98
88
88
88
68
ENDCHAR
STARTCHAR U+0502
ENCODING 1282
SWIDTH 480 0
DWIDTH 6 0
BBX 5 9 1 0
BITMAP
08
08
08
68
98
88
88
88
68
ENDCHAR
STARTCHAR U+0503
ENCODING 1283
SWIDTH 480 0
DWIDTH 6 0
BBX 5 9 1 0
BITMAP
20
20
20
20
60
A8
A8
A8
70
ENDCHAR
STARTCHAR U+0504
ENCODING 1284
SWIDTH 480 0
DWIDTH 6 0
BBX 5 9 1 0
BITMAP
C0
A0
20
20
C0
28
28
28
10
ENDCHAR
STARTCHAR U+0505
ENCODING 1285
SWIDTH 480 0
DWIDTH 6 0
BBX 5 6 1 0
BITMAP
C0
20
C0
28
28
10
ENDCHAR
STARTCHAR U+0506
ENCODING 1286
SWIDTH 480 0
DWIDTH 6 0
BBX 5 11 1 -2
BITMAP
C0
A0
20
20
C0
20
20
20
18
08
08
ENDCHAR
STARTCHAR U+0507
ENCODING 1287
SWIDTH 480 0
DWIDTH 6 0
BBX 5 8 1 -2
BITMAP
C0
20
C0
20
20
18
08
08
ENDCHAR
STARTCHAR U+0508
ENCODING 1288
SWIDTH 480 0
DWIDTH 6 0
BBX 6 9 0 0
BITMAP
70
50
50
50
50
54
54
54
88
ENDCHAR
STARTCHAR U+0509
ENCODING 1289
SWIDTH 480 0
DWIDTH 6 0
BBX 6 5 0 0
BITMAP
70
50
54
54
88
ENDCHAR
STARTCHAR U+050A
ENCODING 1290
SWIDTH 480 0
DWIDTH 6 0
BBX 5 9 1 0
BITMAP
A0
A0
A0
A0
E8
A8
A8
A8
90
ENDCHAR
STARTCHAR U+050B
ENCODING 1291
SWIDTH 480 0
DWIDTH 6 0
BBX 5 5 1 0
BITMAP
A0
A0
E8
A8
90
ENDCHAR
STARTCHAR U+050C
ENCODING 1292
SWIDTH 480 0
DWIDTH 6 0
BBX 5 9 1 0
BITMAP
70
90
80
80
98
88
88
88
70
ENDCHAR
STARTCHAR U+050D
ENCODING 1293
SWIDTH 480 0
DWIDTH 6 0
BBX 5 5 1 0
BITMAP
70
80
98
88
70
ENDCHAR
STARTCHAR U+050E
ENCODING 1294
SWIDTH 480 0
DWIDTH 6 0
BBX 5 9 1 0
BITMAP
F8
20
20
20
28
28
28
28
10
ENDCHAR
STARTCHAR U+050F
ENCODING 1295
SWIDTH 480 0
DWIDTH 6 0
BBX 5 5 1 0
BITMAP
F8
20
28
28
10
ENDCHAR
STARTCHAR U+0510
ENCODING 1296
SWIDTH 480 0
DWIDTH 6 0
BBX 5 9 1 0
BITMAP
70
90
80
80
60
80
80
88
70
ENDCHAR
STARTCHAR U+0511
ENCODING 1297
SWIDTH 480 0
DWIDTH 6 0
BBX 5 5 1 0
BITMAP
70
80
60
88
70
ENDCHAR
STARTCHAR U+0512
ENCODING 1298
SWIDTH 480 0
DWIDTH 6 0
BBX 5 12 1 -3
BITMAP
78
48
48
48
48
48
48
48
88
08
28
10
ENDCHAR
STARTCHAR U+0513
ENCODING 1299
SWIDTH 480 0
DWIDTH 6 0
BBX 5 8 1 -3
BITMAP
78
48
48
48
88
08
28
10
ENDCHAR
STARTCHAR U+0514
ENCODING 1300
SWIDTH 480 0
DWIDTH 6 0
BBX 6 9 0 0
BITMAP
74
54
54
54
48
54
54
54
94
ENDCHAR
STARTCHAR U+0515
ENCODING 1301
SWIDTH 480 0
DWIDTH 6 0
BBX 6 5 0 0
BITMAP
74
54
48
54
94
ENDCHAR
STARTCHAR U+0516
ENCODING 1302
SWIDTH 480 0
DWIDTH 6 0
BBX 5 9 1 0
BITMAP
C8
A8
A8
A8
B0
C8
88
88
88
ENDCHAR
STARTCHAR U+0517
ENCODING 1303
SWIDTH 480 0
DWIDTH 6 0
BBX 5 9 1 -4
BITMAP
C8
A8
B0
A8
C8
80
80
80
80
ENDCHAR
STARTCHAR U+0518
ENCODING 1304
SWIDTH 480 0
DWIDTH 6 0
BBX 6 9 0 0
BITMAP
3C
50
50
50
3C
50
50
50
9C
ENDCHAR
STARTCHAR U+0519
ENCODING 1305
SWIDTH 480 0
DWIDTH 6 0
BBX 5 5 1 0
BITMAP
78
A0
78
A0
B8
ENDCHAR
STARTCHAR U+051A
ENCODING 1306
SWIDTH 480 0
DWIDTH 6 0
BBX 5 11 1 -2
BITMAP
70
88
88
88
88
88
88
88
70
20
18
ENDCHAR
STARTCHAR U+051B
ENCODING 1307
SWIDTH 480 0
DWIDTH 6 0
BBX 5 8 1 -3
BITMAP
68
98
88
88
68
08
08
08
ENDCHAR
STARTCHAR U+051C
ENCODING 1308
SWIDTH 480 0
DWIDTH 6 0
BBX 5 9 1 0
BITMAP
88
88
A8
A8
A8
A8
A8
50
50
ENDCHAR
STARTCHAR U+051D
ENCODING 1309
SWIDTH 480 0
DWIDTH 6 0
BBX 5 5 1 0
BITMAP
A8
A8
A8
50
50
ENDCHAR
STARTCHAR U+051E
ENCODING 1310
SWIDTH 480 0
DWIDTH 6 0
BBX 5 9 1 0
BITMAP
A8
90
98
90
E0
A0
90
90
88
ENDCHAR
STARTCHAR U+051F
ENCODING 1311
SWIDTH 480 0
DWIDTH 6 0
BBX 5 6 1 0
BITMAP
28
90
A8
E0
90
88
ENDCHAR
STARTCHAR U+0520
ENCODING 1312
SWIDTH 480 0
DWIDTH 6 0
BBX 6 12 0 -3
BITMAP
70
50
50
50
58
54
54
54
94
04
04
18
ENDCHAR
STARTCHAR U+0521
ENCODING 1313
SWIDTH 480 0
DWIDTH 6 0
BBX 6 8 0 -3
BITMAP
70
50
58
54
94
04
04
18
ENDCHAR
STARTCHAR U+0522
ENCODING 1314
SWIDTH 480 0
DWIDTH 6 0
BBX 5 12 1 -3
BITMAP
A0
A0
A0
A0
F0
A8
A8
A8
A8
08
08
30
ENDCHAR
STARTCHAR U+0523
ENCODING 1315
SWIDTH 480 0
DWIDTH 6 0
BBX 5 8 1 -3
BITMAP
A0
A0
F0
A8
A8
08
08
30
ENDCHAR
STARTCHAR U+0524
ENCODING 1316
SWIDTH 480 0
DWIDTH 6 0
BBX 5 11 1 -2
BITMAP
F0
90
90
90
90
90
90
90
98
08
08
ENDCHAR
STARTCHAR U+0525
ENCODING 1317
SWIDTH 480 0
DWIDTH 6 0
BBX 5 7 1 -2
BITMAP
F0
90
90
90
98
08
08
ENDCHAR
STARTCHAR U+0526
ENCODING 1318
SWIDTH 480 0
DWIDTH 6 0
BBX 5 11 1 -2
BITMAP
80
80
80
80
B0
C8
88
88
88
08
08
ENDCHAR
STARTCHAR U+0527
ENCODING 1319
SWIDTH 480 0
DWIDTH 6 0
BBX 5 11 1 -2
BITMAP
80
80
80
80
A0
D0
90
90
98
08
08
ENDCHAR
STARTCHAR U+0528
ENCODING 1320
SWIDTH 480 0
DWIDTH 6 0
BBX 6 12 0 -3
BITMAP
24
24
24
24
3C
24
24
24
24
20
A0
40
ENDCHAR
STARTCHAR U+0529
ENCODING 1321
SWIDTH 480 0
DWIDTH 6 0
BBX 6 8 0 -3
BITMAP
24
24
3C
24
24
20
A0
40
ENDCHAR
STARTCHAR U+052A
ENCODING 1322
SWIDTH 480 0
DWIDTH 6 0
BBX 5 10 1 -1
BITMAP
28
68
A8
A8
B0
A8
A8
A8
E8
A0
ENDCHAR
STARTCHAR U+052B
ENCODING 1323
SWIDTH 480 0
DWIDTH 6 0
BBX 5 6 1 -1
BITMAP
28
68
B0
A8
E8
A0
ENDCHAR
STARTCHAR U+052C
ENCODING 1324
SWIDTH 480 0
DWIDTH 6 0
BBX 5 11 1 -2
BITMAP
88
88
98
98
A8
78
48
48
88
F8
88
ENDCHAR
STARTCHAR U+052D
ENCODING 1325
SWIDTH 480 0
DWIDTH 6 0
BBX 5 7 1 -1
BITMAP
88
98
A8
78
88
F8
88
ENDCHAR
STARTCHAR U+052E
ENCODING 1326
SWIDTH 480 0
DWIDTH 6 0
BBX 5 11 1 -2
BITMAP
78
48
48
48
48
48
48
48
88
08
08
ENDCHAR
STARTCHAR U+052F
ENCODING 1327
SWIDTH 480 0
DWIDTH 6 0
BBX 5 7 1 -2
BITMAP
78
48
48
48
88
08
08
ENDCHAR
STARTCHAR U+1435
ENCODING 5173
SWIDTH 480 0
DWIDTH 6 0
BBX 4 9 2 0
BITMAP
A0
00
80
40
20
10
20
40
80
ENDCHAR
STARTCHAR U+1448
ENCODING 5192
SWIDTH 480 0
DWIDTH 6 0
BBX 4 9 1 0
BITMAP
50
00
10
20
40
80
40
20
10
ENDCHAR
STARTCHAR U+1D00
ENCODING 7424
SWIDTH 480 0
DWIDTH 6 0
BBX 5 5 1 0
BITMAP
08
18
28
78
88
ENDCHAR
STARTCHAR U+1D01
ENCODING 7425
SWIDTH 480 0
DWIDTH 6 0
BBX 5 5 1 0
BITMAP
78
A0
F8
A0
B8
ENDCHAR
STARTCHAR U+1D02
ENCODING 7426
SWIDTH 480 0
DWIDTH 6 0
BBX 5 5 1 0
BITMAP
D0
28
70
A0
50
ENDCHAR
STARTCHAR U+1D03
ENCODING 7427
SWIDTH 480 0
DWIDTH 6 0
BBX 7 5 0 0
BITMAP
78
44
FE
44
78
ENDCHAR
STARTCHAR U+1D04
ENCODING 7428
SWIDTH 480 0
DWIDTH 6 0
BBX 5 5 1 0
BITMAP
70
80
80
88
70
ENDCHAR
STARTCHAR U+1D05
ENCODING 7429
SWIDTH 480 0
DWIDTH 6 0
BBX 5 5 1 0
BITMAP
F0
88
88
90
E0
ENDCHAR
STARTCHAR U+1D06
ENCODING 7430
SWIDTH 480 0
DWIDTH 6 0
BBX 6 5 0 0
BITMAP
38
44
E4
48
70
ENDCHAR
STARTCHAR U+1D07
ENCODING 7431
SWIDTH 480 0
DWIDTH 6 0
BBX 5 5 1 0
BITMAP
70
80
60
88
70
ENDCHAR
STARTCHAR U+1D08
ENCODING 7432
SWIDTH 480 0
DWIDTH 6 0
BBX 5 5 1 0
BITMAP
70
88
30
08
70
ENDCHAR
STARTCHAR U+1D09
ENCODING 7433
SWIDTH 480 0
DWIDTH 6 0
BBX 5 7 1 -2
BITMAP
C0
20
20
38
20
00
20
ENDCHAR
STARTCHAR U+1D0A
ENCODING 7434
SWIDTH 480 0
DWIDTH 6 0
BBX 5 5 1 0
BITMAP
78
10
10
90
60
ENDCHAR
STARTCHAR U+1D0B
ENCODING 7435
SWIDTH 480 0
DWIDTH 6 0
BBX 5 5 1 0
BITMAP
90
A0
C0
A0
98
ENDCHAR
STARTCHAR U+1D0C
ENCODING 7436
SWIDTH 480 0
DWIDTH 6 0
BBX 6 5 0 0
BITMAP
40
60
C0
44
38
ENDCHAR
STARTCHAR U+1D0D
ENCODING 7437
SWIDTH 480 0
DWIDTH 6 0
BBX 5 5 1 0
BITMAP
88
D8
A8
88
88
ENDCHAR
STARTCHAR U+1D0E
ENCODING 7438
SWIDTH 480 0
DWIDTH 6 0
BBX 5 5 1 0
BITMAP
88
98
A8
C8
88
ENDCHAR
STARTCHAR U+1D0F
ENCODING 7439
SWIDTH 480 0
DWIDTH 6 0
BBX 5 5 1 0
BITMAP
70
88
88
90
60
ENDCHAR
STARTCHAR U+1D10
ENCODING 7440
SWIDTH 480 0
DWIDTH 6 0
BBX 5 5 1 0
BITMAP
70
08
08
88
70
ENDCHAR
STARTCHAR U+1D11
ENCODING 7441
SWIDTH 480 0
DWIDTH 6 0
BBX 5 5 1 0
BITMAP
70
88
88
88
70
ENDCHAR
STARTCHAR U+1D12
ENCODING 7442
SWIDTH 480 0
DWIDTH 6 0
BBX 5 5 1 0
BITMAP
70
88
88
88
40
ENDCHAR
STARTCHAR U+1D13
ENCODING 7443
SWIDTH 480 0
DWIDTH 6 0
BBX 7 5 0 0
BITMAP
B8
64
54
4C
3A
ENDCHAR
STARTCHAR U+1D14
ENCODING 7444
SWIDTH 480 0
DWIDTH 6 0
BBX 5 5 1 0
BITMAP
D0
28
68
A8
50
ENDCHAR
STARTCHAR U+1D15
ENCODING 7445
SWIDTH 480 0
DWIDTH 6 0
BBX 5 5 1 0
BITMAP
88
70
88
88
70
ENDCHAR
STARTCHAR U+1D16
ENCODING 7446
SWIDTH 480 0
DWIDTH 6 0
BBX 5 3 1 2
BITMAP
70
88
88
ENDCHAR
STARTCHAR U+1D17
ENCODING 7447
SWIDTH 480 0
DWIDTH 6 0
BBX 5 3 1 0
BITMAP
88
88
70
ENDCHAR
STARTCHAR U+1D18
ENCODING 7448
SWIDTH 480 0
DWIDTH 6 0
BBX 5 5 1 0
BITMAP
F0
88
B0
80
80
ENDCHAR
STARTCHAR U+1D19
ENCODING 7449
SWIDTH 480 0
DWIDTH 6 0
BBX 5 5 1 0
BITMAP
78
88
78
28
C8
ENDCHAR
STARTCHAR U+1D1A
ENCODING 7450
SWIDTH 480 0
DWIDTH 6 0
BBX 5 5 1 0
BITMAP
C8
28
78
88
78
ENDCHAR
STARTCHAR U+1D1B
ENCODING 7451
SWIDTH 480 0
DWIDTH 6 0
BBX 5 5 1 0
BITMAP
F8
20
20
20
20
ENDCHAR
STARTCHAR U+1D1C
ENCODING 7452
SWIDTH 480 0
DWIDTH 6 0
BBX 5 5 1 0
BITMAP
88
88
88
90
60
ENDCHAR
STARTCHAR U+1D1D
ENCODING 7453
SWIDTH 480 0
DWIDTH 6 0
BBX 5 5 1 0
BITMAP
F8
10
08
08
F0
ENDCHAR
STARTCHAR U+1D1E
ENCODING 7454
SWIDTH 480 0
DWIDTH 6 0
BBX 6 5 0 0
BITMAP
3C
88
04
84
38
ENDCHAR
STARTCHAR U+1D1F
ENCODING 7455
SWIDTH 480 0
DWIDTH 6 0
BBX 5 5 1 0
BITMAP
F8
08
F0
08
F0
ENDCHAR
STARTCHAR U+1D20
ENCODING 7456
SWIDTH 480 0
DWIDTH 6 0
BBX 5 5 1 0
BITMAP
88
50
50
20
20
ENDCHAR
STARTCHAR U+1D21
ENCODING 7457
SWIDTH 480 0
DWIDTH 6 0
BBX 5 5 1 0
BITMAP
A8
A8
A8
50
50
ENDCHAR
STARTCHAR U+1D22
ENCODING 7458
SWIDTH 480 0
DWIDTH 6 0
BBX 5 5 1 0
BITMAP
F8
10
20
40
F8
ENDCHAR
STARTCHAR U+1D23
ENCODING 7459
SWIDTH 480 0
DWIDTH 6 0
BBX 5 5 1 0
BITMAP
F8
10
70
08
F0
ENDCHAR
STARTCHAR U+1D24
ENCODING 7460
SWIDTH 480 0
DWIDTH 6 0
BBX 5 6 1 0
BITMAP
70
88
30
60
88
70
ENDCHAR
STARTCHAR U+1D25
ENCODING 7461
SWIDTH 480 0
DWIDTH 6 0
BBX 5 5 1 0
BITMAP
20
70
70
20
D8
ENDCHAR
STARTCHAR U+1D26
ENCODING 7462
SWIDTH 480 0
DWIDTH 6 0
BBX 5 5 1 0
BITMAP
F8
88
80
80
80
ENDCHAR
STARTCHAR U+1D27
ENCODING 7463
SWIDTH 480 0
DWIDTH 6 0
BBX 5 6 1 0
BITMAP
20
20
50
50
88
88
ENDCHAR
STARTCHAR U+1D28
ENCODING 7464
SWIDTH 480 0
DWIDTH 6 0
BBX 5 5 1 0
BITMAP
F8
88
88
88
88
ENDCHAR
STARTCHAR U+1D29
ENCODING 7465
SWIDTH 480 0
DWIDTH 6 0
BBX 5 5 1 0
BITMAP
F0
88
B0
80
80
ENDCHAR
STARTCHAR U+1D2A
ENCODING 7466
SWIDTH 480 0
DWIDTH 6 0
BBX 5 5 1 0
BITMAP
A8
A8
70
20
20
ENDCHAR
STARTCHAR U+1D2B
ENCODING 7467
SWIDTH 480 0
DWIDTH 6 0
BBX 5 5 1 0
BITMAP
78
48
48
48
88
ENDCHAR
STARTCHAR U+1D2C
ENCODING 7468
SWIDTH 480 0
DWIDTH 6 0
BBX 5 5 1 4
BITMAP
08
18
28
78
88
ENDCHAR
STARTCHAR U+1D2D
ENCODING 7469
SWIDTH 480 0
DWIDTH 6 0
BBX 5 5 1 4
BITMAP
78
A0
F8
A0
B8
ENDCHAR
STARTCHAR U+1D2E
ENCODING 7470
SWIDTH 480 0
DWIDTH 6 0
BBX 5 5 1 4
BITMAP
F0
88
B0
88
F0
ENDCHAR
STARTCHAR U+1D2F
ENCODING 7471
SWIDTH 480 0
DWIDTH 6 0
BBX 7 5 0 4
BITMAP
78
44
FE
44
78
ENDCHAR
STARTCHAR U+1D30
ENCODING 7472
SWIDTH 480 0
DWIDTH 6 0
BBX 5 5 1 4
BITMAP
F0
88
88
90
E0
ENDCHAR
STARTCHAR U+1D31
ENCODING 7473
SWIDTH 480 0
DWIDTH 6 0
BBX 5 5 1 4
BITMAP
70
80
60
88
70
ENDCHAR
STARTCHAR U+1D32
ENCODING 7474
SWIDTH 480 0
DWIDTH 6 0
BBX 5 5 1 4
BITMAP
70
08
30
88
70
ENDCHAR
STARTCHAR U+1D33
ENCODING 7475
SWIDTH 480 0
DWIDTH 6 0
BBX 5 5 1 4
BITMAP
70
80
98
88
70
ENDCHAR
STARTCHAR U+1D34
ENCODING 7476
SWIDTH 480 0
DWIDTH 6 0
BBX 5 5 1 4
BITMAP
88
88
F8
88
88
ENDCHAR
STARTCHAR U+1D35
ENCODING 7477
SWIDTH 480 0
DWIDTH 6 0
BBX 5 5 1 4
BITMAP
F8
20
20
20
F8
ENDCHAR
STARTCHAR U+1D36
ENCODING 7478
SWIDTH 480 0
DWIDTH 6 0
BBX 5 5 1 4
BITMAP
78
10
10
90
60
ENDCHAR
STARTCHAR U+1D37
ENCODING 7479
SWIDTH 480 0
DWIDTH 6 0
BBX 5 5 1 4
BITMAP
90
A0
C0
A0
98
ENDCHAR
STARTCHAR U+1D38
ENCODING 7480
SWIDTH 480 0
DWIDTH 6 0
BBX 5 5 1 4
BITMAP
80
80
80
88
70
ENDCHAR
STARTCHAR U+1D39
ENCODING 7481
SWIDTH 480 0
DWIDTH 6 0
BBX 5 5 1 4
BITMAP
88
D8
A8
88
88
ENDCHAR
STARTCHAR U+1D3A
ENCODING 7482
SWIDTH 480 0
DWIDTH 6 0
BBX 5 5 1 4
BITMAP
88
C8
A8
98
88
ENDCHAR
STARTCHAR U+1D3B
ENCODING 7483
SWIDTH 480 0
DWIDTH 6 0
BBX 5 5 1 4
BITMAP
88
98
A8
C8
88
ENDCHAR
STARTCHAR U+1D3C
ENCODING 7484
SWIDTH 480 0
DWIDTH 6 0
BBX 5 5 1 4
BITMAP
70
88
88
90
60
ENDCHAR
STARTCHAR U+1D3D
ENCODING 7485
SWIDTH 480 0
DWIDTH 6 0
BBX 5 5 1 4
BITMAP
88
70
88
88
70
ENDCHAR
STARTCHAR U+1D3E
ENCODING 7486
SWIDTH 480 0
DWIDTH 6 0
BBX 5 5 1 4
BITMAP
F0
88
B0
80
80
ENDCHAR
STARTCHAR U+1D3F
ENCODING 7487
SWIDTH 480 0
DWIDTH 6 0
BBX 5 5 1 4
BITMAP
F0
88
F0
A0
98
ENDCHAR
STARTCHAR U+1D40
ENCODING 7488
SWIDTH 480 0
DWIDTH 6 0
BBX 5 5 1 4
BITMAP
F8
20
20
20
20
ENDCHAR
STARTCHAR U+1D41
ENCODING 7489
SWIDTH 480 0
DWIDTH 6 0
BBX 5 5 1 4
BITMAP
88
88
88
90
60
ENDCHAR
STARTCHAR U+1D42
ENCODING 7490
SWIDTH 480 0
DWIDTH 6 0
BBX 5 5 1 4
BITMAP
A8
A8
A8
50
50
ENDCHAR
STARTCHAR U+1D43
ENCODING 7491
SWIDTH 480 0
DWIDTH 6 0
BBX 3 4 2 5
BITMAP
60
A0
A0
60
ENDCHAR
STARTCHAR U+1D44
ENCODING 7492
SWIDTH 480 0
DWIDTH 6 0
BBX 3 4 2 5
BITMAP
C0
A0
A0
C0
ENDCHAR
STARTCHAR U+1D45
ENCODING 7493
SWIDTH 480 0
DWIDTH 6 0
BBX 4 4 2 5
BITMAP
60
A0
A0
50
ENDCHAR
STARTCHAR U+1D46
ENCODING 7494
SWIDTH 480 0
DWIDTH 6 0
BBX 5 4 1 5
BITMAP
70
A8
B0
78
ENDCHAR
STARTCHAR U+1D47
ENCODING 7495
SWIDTH 480 0
DWIDTH 6 0
BBX 3 5 2 5
BITMAP
80
80
C0
A0
C0
ENDCHAR
STARTCHAR U+1D48
ENCODING 7496
SWIDTH 480 0
DWIDTH 6 0
BBX 3 5 2 5
BITMAP
20
20
60
A0
60
ENDCHAR
STARTCHAR U+1D49
ENCODING 7497
SWIDTH 480 0
DWIDTH 6 0
BBX 3 4 2 5
BITMAP
40
A0
C0
60
ENDCHAR
STARTCHAR U+1D4A
ENCODING 7498
SWIDTH 480 0
DWIDTH 6 0
BBX 3 4 2 5
BITMAP
C0
60
A0
40
ENDCHAR
STARTCHAR U+1D4B
ENCODING 7499
SWIDTH 480 0
DWIDTH 6 0
BBX 3 5 2 5
BITMAP
60
80
40
80
60
ENDCHAR
STARTCHAR U+1D4C
ENCODING 7500
SWIDTH 480 0
DWIDTH 6 0
BBX 3 5 2 5
BITMAP
C0
20
40
20
C0
ENDCHAR
STARTCHAR U+1D4E
ENCODING 7502
SWIDTH 480 0
DWIDTH 6 0
BBX 3 6 2 3
BITMAP
80
40
60
40
00
40
ENDCHAR
STARTCHAR U+1D4F
ENCODING 7503
SWIDTH 480 0
DWIDTH 6 0
BBX 3 5 2 5
BITMAP
80
80
A0
C0
A0
ENDCHAR
STARTCHAR U+1D50
ENCODING 7504
SWIDTH 480 0
DWIDTH 6 0
BBX 5 4 1 5
BITMAP
D0
A8
A8
A8
ENDCHAR
STARTCHAR U+1D51
ENCODING 7505
SWIDTH 480 0
DWIDTH 6 0
BBX 3 6 2 3
BITMAP
C0
A0
A0
A0
20
40
ENDCHAR
STARTCHAR U+1D52
ENCODING 7506
SWIDTH 480 0
DWIDTH 6 0
BBX 3 4 2 5
BITMAP
40
A0
A0
40
ENDCHAR
STARTCHAR U+1D53
ENCODING 7507
SWIDTH 480 0
DWIDTH 6 0
BBX 3 4 2 5
BITMAP
40
20
A0
40
ENDCHAR
STARTCHAR U+1D54
ENCODING 7508
SWIDTH 480 0
DWIDTH 6 0
BBX 3 2 2 7
BITMAP
40
A0
ENDCHAR
STARTCHAR U+1D55
ENCODING 7509
SWIDTH 480 0
DWIDTH 6 0
BBX 3 2 2 5
BITMAP
A0
40
ENDCHAR
STARTCHAR U+1D56
ENCODING 7510
SWIDTH 480 0
DWIDTH 6 0
BBX 3 5 2 4
BITMAP
C0
A0
C0
80
80
ENDCHAR
STARTCHAR U+1D57
ENCODING 7511
SWIDTH 480 0
DWIDTH 6 0
BBX 3 5 2 5
BITMAP
40
E0
40
40
20
ENDCHAR
STARTCHAR U+1D58
ENCODING 7512
SWIDTH 480 0
DWIDTH 6 0
BBX 3 4 2 5
BITMAP
A0
A0
A0
60
ENDCHAR
STARTCHAR U+1D59
ENCODING 7513
SWIDTH 480 0
DWIDTH 6 0
BBX 4 3 2 6
BITMAP
F0
10
E0
ENDCHAR
STARTCHAR U+1D5A
ENCODING 7514
SWIDTH 480 0
DWIDTH 6 0
BBX 5 4 1 5
BITMAP
A8
A8
A8
58
ENDCHAR
STARTCHAR U+1D5B
ENCODING 7515
SWIDTH 480 0
DWIDTH 6 0
BBX 5 4 1 5
BITMAP
88
50
50
20
ENDCHAR
STARTCHAR U+1D5C
ENCODING 7516
SWIDTH 480 0
DWIDTH 6 0
BBX 3 4 2 5
BITMAP
E0
E0
40
A0
ENDCHAR
STARTCHAR U+1D5D
ENCODING 7517
SWIDTH 480 0
DWIDTH 6 0
BBX 3 7 2 3
BITMAP
40
A0
C0
A0
C0
80
80
ENDCHAR
STARTCHAR U+1D5E
ENCODING 7518
SWIDTH 480 0
DWIDTH 6 0
BBX 3 5 2 4
BITMAP
A0
A0
40
40
40
ENDCHAR
STARTCHAR U+1D5F
ENCODING 7519
SWIDTH 480 0
DWIDTH 6 0
BBX 3 5 2 5
BITMAP
60
80
40
A0
40
ENDCHAR
STARTCHAR U+1D60
ENCODING 7520
SWIDTH 480 0
DWIDTH 6 0
BBX 5 6 1 3
BITMAP
10
A8
A8
70
20
20
ENDCHAR
STARTCHAR U+1D61
ENCODING 7521
SWIDTH 480 0
DWIDTH 6 0
BBX 3 6 2 3
BITMAP
A0
40
40
40
40
A0
ENDCHAR
STARTCHAR U+1D62
ENCODING 7522
SWIDTH 480 0
DWIDTH 6 0
BBX 3 6 2 -1
BITMAP
40
00
40
C0
40
20
ENDCHAR
STARTCHAR U+1D63
ENCODING 7523
SWIDTH 480 0
DWIDTH 6 0
BBX 3 4 2 -1
BITMAP
C0
A0
80
80
ENDCHAR
STARTCHAR U+1D64
ENCODING 7524
SWIDTH 480 0
DWIDTH 6 0
BBX 3 4 2 -1
BITMAP
A0
A0
A0
60
ENDCHAR
STARTCHAR U+1D65
ENCODING 7525
SWIDTH 480 0
DWIDTH 6 0
BBX 5 4 1 -1
BITMAP
88
50
50
20
ENDCHAR
STARTCHAR U+1D66
ENCODING 7526
SWIDTH 480 0
DWIDTH 6 0
BBX 3 7 2 -3
BITMAP
40
A0
C0
A0
C0
80
80
ENDCHAR
STARTCHAR U+1D67
ENCODING 7527
SWIDTH 480 0
DWIDTH 6 0
BBX 3 5 2 -2
BITMAP
A0
A0
40
40
40
ENDCHAR
STARTCHAR U+1D68
ENCODING 7528
SWIDTH 480 0
DWIDTH 6 0
BBX 3 6 2 -3
BITMAP
40
A0
A0
C0
80
80
ENDCHAR
STARTCHAR U+1D69
ENCODING 7529
SWIDTH 480 0
DWIDTH 6 0
BBX 5 6 1 -3
BITMAP
10
A8
A8
70
20
20
ENDCHAR
STARTCHAR U+1D6A
ENCODING 7530
SWIDTH 480 0
DWIDTH 6 0
BBX 3 6 2 -3
BITMAP
A0
40
40
40
40
A0
ENDCHAR
STARTCHAR U+1D6B
ENCODING 7531
SWIDTH 480 0
DWIDTH 6 0
BBX 5 5 1 0
BITMAP
B0
A8
B0
A0
58
ENDCHAR
STARTCHAR U+1D6C
ENCODING 7532
SWIDTH 480 0
DWIDTH 6 0
BBX 6 9 0 0
BITMAP
40
68
D0
40
58
64
44
44
58
ENDCHAR
STARTCHAR U+1D6D
ENCODING 7533
SWIDTH 480 0
DWIDTH 6 0
BBX 6 9 1 0
BITMAP
08
2C
58
08
68
98
88
88
68
ENDCHAR
STARTCHAR U+1D6E
ENCODING 7534
SWIDTH 480 0
DWIDTH 6 0
BBX 5 12 1 -3
BITMAP
18
20
20
20
F8
20
68
B0
20
20
20
C0
ENDCHAR
STARTCHAR U+1D6F
ENCODING 7535
SWIDTH 480 0
DWIDTH 6 0
BBX 7 5 0 0
BITMAP
68
54
76
DC
54
ENDCHAR
STARTCHAR U+1D70
ENCODING 7536
SWIDTH 480 0
DWIDTH 6 0
BBX 7 5 0 0
BITMAP
58
64
76
DC
44
ENDCHAR
STARTCHAR U+1D71
ENCODING 7537
SWIDTH 480 0
DWIDTH 6 0
BBX 6 8 0 -3
BITMAP
58
64
44
58
40
68
D0
40
ENDCHAR
STARTCHAR U+1D72
ENCODING 7538
SWIDTH 480 0
DWIDTH 6 0
BBX 5 5 1 0
BITMAP
D8
60
68
D0
40
ENDCHAR
STARTCHAR U+1D73
ENCODING 7539
SWIDTH 480 0
DWIDTH 6 0
BBX 5 6 1 0
BITMAP
30
48
40
68
D0
40
ENDCHAR
STARTCHAR U+1D74
ENCODING 7540
SWIDTH 480 0
DWIDTH 6 0
BBX 5 5 1 0
BITMAP
30
40
A8
10
60
ENDCHAR
STARTCHAR U+1D75
ENCODING 7541
SWIDTH 480 0
DWIDTH 6 0
BBX 5 8 1 -2
BITMAP
40
F0
40
68
D0
40
48
30
ENDCHAR
STARTCHAR U+1D76
ENCODING 7542
SWIDTH 480 0
DWIDTH 6 0
BBX 5 7 1 -2
BITMAP
F8
10
D0
20
58
40
F8
ENDCHAR
STARTCHAR U+1D77
ENCODING 7543
SWIDTH 480 0
DWIDTH 6 0
BBX 5 9 1 -1
BITMAP
70
80
70
08
70
88
88
70
80
ENDCHAR
STARTCHAR U+1D78
ENCODING 7544
SWIDTH 480 0
DWIDTH 6 0
BBX 5 5 1 4
BITMAP
88
88
F8
88
88
ENDCHAR
STARTCHAR U+1D79
ENCODING 7545
SWIDTH 480 0
DWIDTH 6 0
BBX 5 8 1 -3
BITMAP
78
10
20
10
48
88
88
70
ENDCHAR
STARTCHAR U+1D7A
ENCODING 7546
SWIDTH 480 0
DWIDTH 6 0
BBX 6 9 0 0
BITMAP
10
14
18
50
78
54
D4
54
34
ENDCHAR
STARTCHAR U+1D7B
ENCODING 7547
SWIDTH 480 0
DWIDTH 6 0
BBX 5 5 1 0
BITMAP
F8
20
70
20
F8
ENDCHAR
STARTCHAR U+1D7C
ENCODING 7548
SWIDTH 480 0
DWIDTH 6 0
BBX 4 5 2 0
BITMAP
40
E0
40
50
20
ENDCHAR
STARTCHAR U+1D7D
ENCODING 7549
SWIDTH 480 0
DWIDTH 6 0
BBX 7 9 0 -4
BITMAP
58
64
FE
44
58
40
40
40
40
ENDCHAR
STARTCHAR U+1D7E
ENCODING 7550
SWIDTH 480 0
DWIDTH 6 0
BBX 7 5 0 0
BITMAP
44
44
FE
48
30
ENDCHAR
STARTCHAR U+1D7F
ENCODING 7551
SWIDTH 480 0
DWIDTH 6 0
BBX 7 5 0 0
BITMAP
48
44
FE
48
30
ENDCHAR
STARTCHAR U+1D80
ENCODING 7552
SWIDTH 480 0
DWIDTH 6 0
BBX 5 12 1 -3
BITMAP
80
80
80
80
B0
C8
88
88
B8
08
28
10
ENDCHAR
STARTCHAR U+1D81
ENCODING 7553
SWIDTH 480 0
DWIDTH 6 0
BBX 5 12 1 -3
BITMAP
10
10
10
10
50
B0
90
90
58
08
28
10
ENDCHAR
STARTCHAR U+1D82
ENCODING 7554
SWIDTH 480 0
DWIDTH 6 0
BBX 5 12 1 -3
BITMAP
18
20
20
20
F8
20
20
20
30
10
50
20
ENDCHAR
STARTCHAR U+1D83
ENCODING 7555
SWIDTH 480 0
DWIDTH 6 0
BBX 6 9 1 -3
BITMAP
10
60
90
9C
64
88
60
10
60
ENDCHAR
STARTCHAR U+1D84
ENCODING 7556
SWIDTH 480 0
DWIDTH 6 0
BBX 5 12 1 -3
BITMAP
80
80
80
80
90
A0
C0
A0
98
08
28
10
ENDCHAR
STARTCHAR U+1D85
ENCODING 7557
SWIDTH 480 0
DWIDTH 6 0
BBX 5 12 1 -3
BITMAP
20
E0
20
20
20
20
20
20
18
08
28
10
ENDCHAR
STARTCHAR U+1D86
ENCODING 7558
SWIDTH 480 0
DWIDTH 6 0
BBX 6 8 1 -3
BITMAP
D0
A8
A8
A8
AC
04
14
08
ENDCHAR
STARTCHAR U+1D87
ENCODING 7559
SWIDTH 480 0
DWIDTH 6 0
BBX 5 8 1 -3
BITMAP
A0
D0
90
90
98
08
28
10
ENDCHAR
STARTCHAR U+1D88
ENCODING 7560
SWIDTH 480 0
DWIDTH 6 0
BBX 5 8 1 -3
BITMAP
B0
C8
88
88
B8
88
A8
90
ENDCHAR
STARTCHAR U+1D89
ENCODING 7561
SWIDTH 480 0
DWIDTH 6 0
BBX 5 8 1 -3
BITMAP
D8
60
40
40
60
20
A0
40
ENDCHAR
STARTCHAR U+1D8A
ENCODING 7562
SWIDTH 480 0
DWIDTH 6 0
BBX 5 8 1 -3
BITMAP
70
80
70
08
78
08
28
10
ENDCHAR
STARTCHAR U+1D8B
ENCODING 7563
SWIDTH 480 0
DWIDTH 6 0
BBX 6 12 1 -3
BITMAP
18
20
20
20
20
20
20
20
3C
24
24
C8
ENDCHAR
STARTCHAR U+1D8C
ENCODING 7564
SWIDTH 480 0
DWIDTH 6 0
BBX 5 8 1 -3
BITMAP
88
50
50
20
38
08
28
10
ENDCHAR
STARTCHAR U+1D8D
ENCODING 7565
SWIDTH 480 0
DWIDTH 6 0
BBX 5 8 1 -3
BITMAP
C8
30
20
60
98
08
28
10
ENDCHAR
STARTCHAR U+1D8E
ENCODING 7566
SWIDTH 480 0
DWIDTH 6 0
BBX 5 8 1 -3
BITMAP
F8
10
20
40
F8
08
28
10
ENDCHAR
STARTCHAR U+1D8F
ENCODING 7567
SWIDTH 480 0
DWIDTH 6 0
BBX 6 8 1 -3
BITMAP
60
10
70
90
50
10
14
08
ENDCHAR
STARTCHAR U+1D90
ENCODING 7568
SWIDTH 480 0
DWIDTH 6 0
BBX 6 8 1 -3
BITMAP
60
A0
A0
A0
50
10
14
08
ENDCHAR
STARTCHAR U+1D91
ENCODING 7569
SWIDTH 480 0
DWIDTH 6 0
BBX 6 12 1 -3
BITMAP
08
14
10
10
50
B0
90
90
50
10
14
08
ENDCHAR
STARTCHAR U+1D92
ENCODING 7570
SWIDTH 480 0
DWIDTH 6 0
BBX 6 8 1 -3
BITMAP
70
88
B0
80
70
10
14
08
ENDCHAR
STARTCHAR U+1D93
ENCODING 7571
SWIDTH 480 0
DWIDTH 6 0
BBX 6 8 1 -3
BITMAP
70
80
60
80
70
10
14
08
ENDCHAR
STARTCHAR U+1D94
ENCODING 7572
SWIDTH 480 0
DWIDTH 6 0
BBX 5 8 1 -3
BITMAP
70
08
30
88
F0
80
A0
40
ENDCHAR
STARTCHAR U+1D95
ENCODING 7573
SWIDTH 480 0
DWIDTH 6 0
BBX 7 8 0 -3
BITMAP
60
10
70
98
68
08
0A
04
ENDCHAR
STARTCHAR U+1D96
ENCODING 7574
SWIDTH 480 0
DWIDTH 6 0
BBX 6 10 1 -3
BITMAP
20
00
20
E0
20
20
30
10
14
08
ENDCHAR
STARTCHAR U+1D97
ENCODING 7575
SWIDTH 480 0
DWIDTH 6 0
BBX 5 8 1 -3
BITMAP
70
08
08
88
F0
80
A0
40
ENDCHAR
STARTCHAR U+1D98
ENCODING 7576
SWIDTH 480 0
DWIDTH 6 0
BBX 5 12 1 -3
BITMAP
18
20
20
20
20
20
20
20
C0
80
A0
40
ENDCHAR
STARTCHAR U+1D99
ENCODING 7577
SWIDTH 480 0
DWIDTH 6 0
BBX 6 8 1 -3
BITMAP
90
90
90
B0
50
10
14
08
ENDCHAR
STARTCHAR U+1D9A
ENCODING 7578
SWIDTH 480 0
DWIDTH 6 0
BBX 5 8 1 -3
BITMAP
F8
10
70
08
F0
80
A0
40
ENDCHAR
STARTCHAR U+1D9B
ENCODING 7579
SWIDTH 480 0
DWIDTH 6 0
BBX 4 4 1 5
BITMAP
A0
50
50
60
ENDCHAR
STARTCHAR U+1D9C
ENCODING 7580
SWIDTH 480 0
DWIDTH 6 0
BBX 3 4 2 5
BITMAP
60
80
80
60
ENDCHAR
STARTCHAR U+1D9D
ENCODING 7581
SWIDTH 480 0
DWIDTH 6 0
BBX 4 5 1 4
BITMAP
30
40
60
50
A0
ENDCHAR
STARTCHAR U+1D9E
ENCODING 7582
SWIDTH 480 0
DWIDTH 6 0
BBX 3 7 2 5
BITMAP
A0
40
A0
20
60
A0
40
ENDCHAR
STARTCHAR U+1D9F
ENCODING 7583
SWIDTH 480 0
DWIDTH 6 0
BBX 3 5 2 5
BITMAP
C0
20
40
20
C0
ENDCHAR
STARTCHAR U+1DA0
ENCODING 7584
SWIDTH 480 0
DWIDTH 6 0
BBX 3 6 2 5
BITMAP
20
40
E0
40
40
40
ENDCHAR
STARTCHAR U+1DA1
ENCODING 7585
SWIDTH 480 0
DWIDTH 6 0
BBX 4 5 2 4
BITMAP
20
20
70
20
C0
ENDCHAR
STARTCHAR U+1DA2
ENCODING 7586
SWIDTH 480 0
DWIDTH 6 0
BBX 3 5 2 4
BITMAP
60
A0
60
20
C0
ENDCHAR
STARTCHAR U+1DA3
ENCODING 7587
SWIDTH 480 0
DWIDTH 6 0
BBX 3 5 2 4
BITMAP
A0
A0
60
20
20
ENDCHAR
STARTCHAR U+1DA4
ENCODING 7588
SWIDTH 480 0
DWIDTH 6 0
BBX 3 6 2 5
BITMAP
40
00
40
E0
40
20
ENDCHAR
STARTCHAR U+1DA5
ENCODING 7589
SWIDTH 480 0
DWIDTH 6 0
BBX 3 4 2 5
BITMAP
40
C0
40
20
ENDCHAR
STARTCHAR U+1DA6
ENCODING 7590
SWIDTH 480 0
DWIDTH 6 0
BBX 3 4 2 5
BITMAP
E0
40
40
E0
ENDCHAR
STARTCHAR U+1DA7
ENCODING 7591
SWIDTH 480 0
DWIDTH 6 0
BBX 3 5 2 4
BITMAP
E0
40
E0
40
E0
ENDCHAR
STARTCHAR U+1DA8
ENCODING 7592
SWIDTH 480 0
DWIDTH 6 0
BBX 4 8 2 3
BITMAP
20
00
20
60
20
70
A0
40
ENDCHAR
STARTCHAR U+1DA9
ENCODING 7593
SWIDTH 480 0
DWIDTH 6 0
BBX 3 8 2 3
BITMAP
40
C0
40
40
40
40
40
20
ENDCHAR
STARTCHAR U+1DAA
ENCODING 7594
SWIDTH 480 0
DWIDTH 6 0
BBX 3 8 2 3
BITMAP
40
C0
40
40
40
60
20
40
ENDCHAR
STARTCHAR U+1DAB
ENCODING 7595
SWIDTH 480 0
DWIDTH 6 0
BBX 3 4 2 5
BITMAP
80
80
80
E0
ENDCHAR
STARTCHAR U+1DAC
ENCODING 7596
SWIDTH 480 0
DWIDTH 6 0
BBX 5 6 1 3
BITMAP
D0
A8
A8
A8
08
10
ENDCHAR
STARTCHAR U+1DAD
ENCODING 7597
SWIDTH 480 0
DWIDTH 6 0
BBX 5 6 1 3
BITMAP
A8
A8
A8
58
08
08
ENDCHAR
STARTCHAR U+1DAE
ENCODING 7598
SWIDTH 480 0
DWIDTH 6 0
BBX 4 6 1 3
BITMAP
60
50
50
50
40
80
ENDCHAR
STARTCHAR U+1DAF
ENCODING 7599
SWIDTH 480 0
DWIDTH 6 0
BBX 4 6 2 3
BITMAP
C0
A0
A0
A0
20
10
ENDCHAR
STARTCHAR U+1DB0
ENCODING 7600
SWIDTH 480 0
DWIDTH 6 0
BBX 4 4 1 5
BITMAP
90
D0
B0
90
ENDCHAR
STARTCHAR U+1DB1
ENCODING 7601
SWIDTH 480 0
DWIDTH 6 0
BBX 3 5 2 4
BITMAP
40
A0
E0
A0
40
ENDCHAR
STARTCHAR U+1DB2
ENCODING 7602
SWIDTH 480 0
DWIDTH 6 0
BBX 5 8 1 3
BITMAP
20
20
70
A8
A8
70
20
20
ENDCHAR
STARTCHAR U+1DB3
ENCODING 7603
SWIDTH 480 0
DWIDTH 6 0
BBX 3 6 2 3
BITMAP
60
C0
20
C0
80
40
ENDCHAR
STARTCHAR U+1DB4
ENCODING 7604
SWIDTH 480 0
DWIDTH 6 0
BBX 3 8 2 3
BITMAP
20
40
40
40
40
40
40
80
ENDCHAR
STARTCHAR U+1DB5
ENCODING 7605
SWIDTH 480 0
DWIDTH 6 0
BBX 3 7 2 3
BITMAP
40
E0
40
40
60
20
40
ENDCHAR
STARTCHAR U+1DB6
ENCODING 7606
SWIDTH 480 0
DWIDTH 6 0
BBX 5 4 1 5
BITMAP
50
F8
50
30
ENDCHAR
STARTCHAR U+1DB7
ENCODING 7607
SWIDTH 480 0
DWIDTH 6 0
BBX 4 4 1 5
BITMAP
A0
90
A0
40
ENDCHAR
STARTCHAR U+1DB8
ENCODING 7608
SWIDTH 480 0
DWIDTH 6 0
BBX 3 4 2 5
BITMAP
A0
A0
A0
40
ENDCHAR
STARTCHAR U+1DB9
ENCODING 7609
SWIDTH 480 0
DWIDTH 6 0
BBX 4 4 1 5
BITMAP
A0
90
90
60
ENDCHAR
STARTCHAR U+1DBA
ENCODING 7610
SWIDTH 480 0
DWIDTH 6 0
BBX 5 4 1 5
BITMAP
20
50
50
88
ENDCHAR
STARTCHAR U+1DBB
ENCODING 7611
SWIDTH 480 0
DWIDTH 6 0
BBX 3 4 2 5
BITMAP
E0
40
80
E0
ENDCHAR
STARTCHAR U+1DBC
ENCODING 7612
SWIDTH 480 0
DWIDTH 6 0
BBX 4 6 2 3
BITMAP
E0
40
80
E0
20
10
ENDCHAR
STARTCHAR U+1DBD
ENCODING 7613
SWIDTH 480 0
DWIDTH 6 0
BBX 4 6 2 3
BITMAP
E0
40
80
B0
F0
40
ENDCHAR
STARTCHAR U+1DBE
ENCODING 7614
SWIDTH 480 0
DWIDTH 6 0
BBX 3 6 2 3
BITMAP
E0
40
C0
20
20
C0
ENDCHAR
STARTCHAR U+1DBF
ENCODING 7615
SWIDTH 480 0
DWIDTH 6 0
BBX 3 5 2 5
BITMAP
40
A0
E0
A0
40
ENDCHAR
STARTCHAR U+1E00
ENCODING 7680
SWIDTH 480 0
DWIDTH 6 0
BBX 5 12 1 -3
BITMAP
08
18
28
48
F8
88
88
88
88
20
50
20
ENDCHAR
STARTCHAR U+1E01
ENCODING 7681
SWIDTH 480 0
DWIDTH 6 0
BBX 5 8 1 -3
BITMAP
70
08
78
88
68
20
50
20
ENDCHAR
STARTCHAR U+1E02
ENCODING 7682
SWIDTH 480 0
DWIDTH 6 0
BBX 5 11 1 0
BITMAP
20
00
70
88
88
90
B0
88
88
90
E0
ENDCHAR
STARTCHAR U+1E03
ENCODING 7683
SWIDTH 480 0
DWIDTH 6 0
BBX 5 9 1 0
BITMAP
80
80
A0
80
B0
C8
88
88
B0
ENDCHAR
STARTCHAR U+1E04
ENCODING 7684
SWIDTH 480 0
DWIDTH 6 0
BBX 5 11 1 -2
BITMAP
70
88
88
90
B0
88
88
90
E0
00
20
ENDCHAR
STARTCHAR U+1E05
ENCODING 7685
SWIDTH 480 0
DWIDTH 6 0
BBX 5 11 1 -2
BITMAP
80
80
80
80
B0
C8
88
88
B0
00
20
ENDCHAR
STARTCHAR U+1E06
ENCODING 7686
SWIDTH 480 0
DWIDTH 6 0
BBX 5 11 1 -2
BITMAP
70
88
88
90
B0
88
88
90
E0
00
70
ENDCHAR
STARTCHAR U+1E07
ENCODING 7687
SWIDTH 480 0
DWIDTH 6 0
BBX 5 11 1 -2
BITMAP
80
80
80
80
B0
C8
88
88
B0
00
70
ENDCHAR
STARTCHAR U+1E08
ENCODING 7688
SWIDTH 480 0
DWIDTH 6 0
BBX 5 15 1 -3
BITMAP
10
20
00
70
90
80
80
80
80
80
88
70
20
10
60
ENDCHAR
STARTCHAR U+1E09
ENCODING 7689
SWIDTH 480 0
DWIDTH 6 0
BBX 5 11 1 -3
BITMAP
10
20
00
70
80
80
88
70
20
10
60
ENDCHAR
STARTCHAR U+1E0A
ENCODING 7690
SWIDTH 480 0
DWIDTH 6 0
BBX 5 11 1 0
BITMAP
20
00
70
88
88
88
88
90
A0
C0
80
ENDCHAR
STARTCHAR U+1E0B
ENCODING 7691
SWIDTH 480 0
DWIDTH 6 0
BBX 5 9 1 0
BITMAP
08
08
28
08
68
98
88
88
68
ENDCHAR
STARTCHAR U+1E0C
ENCODING 7692
SWIDTH 480 0
DWIDTH 6 0
BBX 5 11 1 -2
BITMAP
70
88
88
88
88
90
A0
C0
80
00
20
ENDCHAR
STARTCHAR U+1E0D
ENCODING 7693
SWIDTH 480 0
DWIDTH 6 0
BBX 5 11 1 -2
BITMAP
08
08
08
08
68
98
88
88
68
00
20
ENDCHAR
STARTCHAR U+1E0E
ENCODING 7694
SWIDTH 480 0
DWIDTH 6 0
BBX 5 11 1 -2
BITMAP
70
88
88
88
88
90
A0
C0
80
00
70
ENDCHAR
STARTCHAR U+1E0F
ENCODING 7695
SWIDTH 480 0
DWIDTH 6 0
BBX 5 11 1 -2
BITMAP
08
08
08
08
68
98
88
88
68
00
70
ENDCHAR
STARTCHAR U+1E10
ENCODING 7696
SWIDTH 480 0
DWIDTH 6 0
BBX 5 12 1 -3
BITMAP
70
88
88
88
88
90
A0
C0
80
00
20
60
ENDCHAR
STARTCHAR U+1E11
ENCODING 7697
SWIDTH 480 0
DWIDTH 6 0
BBX 5 12 1 -3
BITMAP
08
08
08
08
68
98
88
88
68
00
20
60
ENDCHAR
STARTCHAR U+1E12
ENCODING 7698
SWIDTH 480 0
DWIDTH 6 0
BBX 5 12 1 -3
BITMAP
70
88
88
88
88
90
A0
C0
80
00
20
50
ENDCHAR
STARTCHAR U+1E13
ENCODING 7699
SWIDTH 480 0
DWIDTH 6 0
BBX 5 12 1 -3
BITMAP
08
08
08
08
68
98
88
88
68
00
20
50
ENDCHAR
STARTCHAR U+1E14
ENCODING 7700
SWIDTH 480 0
DWIDTH 6 0
BBX 5 12 1 0
BITMAP
40
20
00
70
00
70
90
80
60
80
88
70
ENDCHAR
STARTCHAR U+1E15
ENCODING 7701
SWIDTH 480 0
DWIDTH 6 0
BBX 5 10 1 0
BITMAP
40
20
00
70
00
70
88
B0
80
70
ENDCHAR
STARTCHAR U+1E16
ENCODING 7702
SWIDTH 480 0
DWIDTH 6 0
BBX 5 12 1 0
BITMAP
10
20
00
70
00
70
90
80
60
80
88
70
ENDCHAR
STARTCHAR U+1E17
ENCODING 7703
SWIDTH 480 0
DWIDTH 6 0
BBX 5 10 1 0
BITMAP
10
20
00
70
00
70
88
B0
80
70
ENDCHAR
STARTCHAR U+1E18
ENCODING 7704
SWIDTH 480 0
DWIDTH 6 0
BBX 5 12 1 -3
BITMAP
70
90
80
80
60
80
80
88
70
00
20
50
ENDCHAR
STARTCHAR U+1E19
ENCODING 7705
SWIDTH 480 0
DWIDTH 6 0
BBX 5 8 1 -3
BITMAP
70
88
B0
80
70
00
20
50
ENDCHAR
STARTCHAR U+1E1A
ENCODING 7706
SWIDTH 480 0
DWIDTH 6 0
BBX 5 12 1 -3
BITMAP
70
90
80
80
60
80
80
88
70
00
68
58
ENDCHAR
STARTCHAR U+1E1B
ENCODING 7707
SWIDTH 480 0
DWIDTH 6 0
BBX 5 8 1 -3
BITMAP
70
88
B0
80
70
00
68
58
ENDCHAR
STARTCHAR U+1E1C
ENCODING 7708
SWIDTH 480 0
DWIDTH 6 0
BBX 5 15 1 -3
BITMAP
50
70
00
70
90
80
80
60
80
80
88
70
20
10
60
ENDCHAR
STARTCHAR U+1E1D
ENCODING 7709
SWIDTH 480 0
DWIDTH 6 0
BBX 5 11 1 -3
BITMAP
50
70
00
70
88
B0
80
70
20
10
60
ENDCHAR
STARTCHAR U+1E1E
ENCODING 7710
SWIDTH 480 0
DWIDTH 6 0
BBX 5 11 1 0
BITMAP
20
00
78
88
80
80
F0
80
80
80
80
ENDCHAR
STARTCHAR U+1E1F
ENCODING 7711
SWIDTH 480 0
DWIDTH 6 0
BBX 5 14 1 -3
BITMAP
20
00
18
20
20
20
F8
20
20
20
20
20
20
C0
ENDCHAR
STARTCHAR U+1E20
ENCODING 7712
SWIDTH 480 0
DWIDTH 6 0
BBX 5 14 1 -3
BITMAP
70
00
70
90
80
80
98
88
88
98
68
08
08
10
ENDCHAR
STARTCHAR U+1E21
ENCODING 7713
SWIDTH 480 0
DWIDTH 6 0
BBX 5 10 1 -3
BITMAP
70
00
70
88
88
70
80
70
08
70
ENDCHAR
STARTCHAR U+1E22
ENCODING 7714
SWIDTH 480 0
DWIDTH 6 0
BBX 5 11 1 0
BITMAP
20
00
88
88
88
88
F8
88
88
88
88
ENDCHAR
STARTCHAR U+1E23
ENCODING 7715
SWIDTH 480 0
DWIDTH 6 0
BBX 5 11 1 0
BITMAP
80
00
80
80
80
80
B0
C8
88
88
88
ENDCHAR
STARTCHAR U+1E24
ENCODING 7716
SWIDTH 480 0
DWIDTH 6 0
BBX 5 11 1 -2
BITMAP
88
88
88
88
F8
88
88
88
88
00
20
ENDCHAR
STARTCHAR U+1E25
ENCODING 7717
SWIDTH 480 0
DWIDTH 6 0
BBX 5 11 1 -2
BITMAP
80
80
80
80
B0
C8
88
88
88
00
20
ENDCHAR
STARTCHAR U+1E26
ENCODING 7718
SWIDTH 480 0
DWIDTH 6 0
BBX 5 11 1 0
BITMAP
50
00
88
88
88
88
F8
88
88
88
88
ENDCHAR
STARTCHAR U+1E27
ENCODING 7719
SWIDTH 480 0
DWIDTH 6 0
BBX 5 11 1 0
BITMAP
50
00
80
80
80
80
B0
C8
88
88
88
ENDCHAR
STARTCHAR U+1E28
ENCODING 7720
SWIDTH 480 0
DWIDTH 6 0
BBX 5 12 1 -3
BITMAP
88
88
88
88
F8
88
88
88
C8
40
20
C0
ENDCHAR
STARTCHAR U+1E29
ENCODING 7721
SWIDTH 480 0
DWIDTH 6 0
BBX 5 12 1 -3
BITMAP
80
80
80
80
B0
C8
88
88
C8
40
20
C0
ENDCHAR
STARTCHAR U+1E2A
ENCODING 7722
SWIDTH 480 0
DWIDTH 6 0
BBX 5 12 1 -3
BITMAP
88
88
88
88
F8
88
88
88
88
00
50
70
ENDCHAR
STARTCHAR U+1E2B
ENCODING 7723
SWIDTH 480 0
DWIDTH 6 0
BBX 5 12 1 -3
BITMAP
80
80
80
80
B0
C8
88
88
88
00
50
70
ENDCHAR
STARTCHAR U+1E2C
ENCODING 7724
SWIDTH 480 0
DWIDTH 6 0
BBX 5 12 1 -3
BITMAP
F8
20
20
20
20
20
20
20
F8
00
68
58
ENDCHAR
STARTCHAR U+1E2D
ENCODING 7725
SWIDTH 480 0
DWIDTH 6 0
BBX 5 10 1 -3
BITMAP
20
00
20
E0
20
20
18
00
68
58
ENDCHAR
STARTCHAR U+1E2E
ENCODING 7726
SWIDTH 480 0
DWIDTH 6 0
BBX 5 12 1 0
BITMAP
10
20
00
50
00
F8
20
20
20
20
20
F8
ENDCHAR
STARTCHAR U+1E2F
ENCODING 7727
SWIDTH 480 0
DWIDTH 6 0
BBX 5 10 1 0
BITMAP
10
20
00
50
00
20
E0
20
20
18
ENDCHAR
STARTCHAR U+1E30
ENCODING 7728
SWIDTH 480 0
DWIDTH 6 0
BBX 5 12 1 0
BITMAP
10
20
00
88
90
90
90
E0
90
90
90
88
ENDCHAR
STARTCHAR U+1E31
ENCODING 7729
SWIDTH 480 0
DWIDTH 6 0
BBX 5 11 1 0
BITMAP
10
20
80
80
80
80
90
A0
C0
A0
98
ENDCHAR
STARTCHAR U+1E32
ENCODING 7730
SWIDTH 480 0
DWIDTH 6 0
BBX 5 11 1 -2
BITMAP
88
90
90
90
E0
90
90
90
88
00
20
ENDCHAR
STARTCHAR U+1E33
ENCODING 7731
SWIDTH 480 0
DWIDTH 6 0
BBX 5 11 1 -2
BITMAP
80
80
80
80
90
A0
C0
A0
98
00
20
ENDCHAR
STARTCHAR U+1E34
ENCODING 7732
SWIDTH 480 0
DWIDTH 6 0
BBX 5 11 1 -2
BITMAP
88
90
90
90
E0
90
90
90
88
00
70
ENDCHAR
STARTCHAR U+1E35
ENCODING 7733
SWIDTH 480 0
DWIDTH 6 0
BBX 5 11 1 -2
BITMAP
80
80
80
80
90
A0
C0
A0
98
00
70
ENDCHAR
STARTCHAR U+1E36
ENCODING 7734
SWIDTH 480 0
DWIDTH 6 0
BBX 5 11 1 -2
BITMAP
80
80
80
80
80
80
80
88
70
00
20
ENDCHAR
STARTCHAR U+1E37
ENCODING 7735
SWIDTH 480 0
DWIDTH 6 0
BBX 5 11 1 -2
BITMAP
20
E0
20
20
20
20
20
20
18
00
20
ENDCHAR
STARTCHAR U+1E38
ENCODING 7736
SWIDTH 480 0
DWIDTH 6 0
BBX 5 13 1 -2
BITMAP
70
00
80
80
80
80
80
80
80
88
70
00
20
ENDCHAR
STARTCHAR U+1E39
ENCODING 7737
SWIDTH 480 0
DWIDTH 6 0
BBX 5 13 1 -2
BITMAP
70
00
20
E0
20
20
20
20
20
20
18
00
20
ENDCHAR
STARTCHAR U+1E3A
ENCODING 7738
SWIDTH 480 0
DWIDTH 6 0
BBX 5 11 1 -2
BITMAP
80
80
80
80
80
80
80
88
70
00
70
ENDCHAR
STARTCHAR U+1E3B
ENCODING 7739
SWIDTH 480 0
DWIDTH 6 0
BBX 5 11 1 -2
BITMAP
20
E0
20
20
20
20
20
20
18
00
70
ENDCHAR
STARTCHAR U+1E3C
ENCODING 7740
SWIDTH 480 0
DWIDTH 6 0
BBX 5 12 1 -3
BITMAP
80
80
80
80
80
80
80
88
70
00
20
50
ENDCHAR
STARTCHAR U+1E3D
ENCODING 7741
SWIDTH 480 0
DWIDTH 6 0
BBX 5 12 1 -3
BITMAP
20
E0
20
20
20
20
20
20
18
00
20
50
ENDCHAR
STARTCHAR U+1E3E
ENCODING 7742
SWIDTH 480 0
DWIDTH 6 0
BBX 5 12 1 0
BITMAP
10
20
00
88
88
D8
A8
A8
A8
A8
88
88
ENDCHAR
STARTCHAR U+1E3F
ENCODING 7743
SWIDTH 480 0
DWIDTH 6 0
BBX 5 8 1 0
BITMAP
10
20
00
D0
A8
A8
A8
A8
ENDCHAR
STARTCHAR U+1E40
ENCODING 7744
SWIDTH 480 0
DWIDTH 6 0
BBX 5 11 1 0
BITMAP
20
00
88
88
D8
A8
A8
A8
A8
88
88
ENDCHAR
STARTCHAR U+1E41
ENCODING 7745
SWIDTH 480 0
DWIDTH 6 0
BBX 5 7 1 0
BITMAP
20
00
D0
A8
A8
A8
A8
ENDCHAR
STARTCHAR U+1E42
ENCODING 7746
SWIDTH 480 0
DWIDTH 6 0
BBX 5 11 1 -2
BITMAP
88
88
D8
A8
A8
A8
A8
88
88
00
20
ENDCHAR
STARTCHAR U+1E43
ENCODING 7747
SWIDTH 480 0
DWIDTH 6 0
BBX 5 7 1 -2
BITMAP
D0
A8
A8
A8
A8
00
20
ENDCHAR
STARTCHAR U+1E44
ENCODING 7748
SWIDTH 480 0
DWIDTH 6 0
BBX 5 11 1 0
BITMAP
20
00
88
88
C8
A8
A8
A8
98
88
88
ENDCHAR
STARTCHAR U+1E45
ENCODING 7749
SWIDTH 480 0
DWIDTH 6 0
BBX 5 7 1 0
BITMAP
20
00
B0
C8
88
88
88
ENDCHAR
STARTCHAR U+1E46
ENCODING 7750
SWIDTH 480 0
DWIDTH 6 0
BBX 5 11 1 -2
BITMAP
88
88
C8
A8
A8
A8
98
88
88
00
20
ENDCHAR
STARTCHAR U+1E47
ENCODING 7751
SWIDTH 480 0
DWIDTH 6 0
BBX 5 7 1 -2
BITMAP
B0
C8
88
88
88
00
20
ENDCHAR
STARTCHAR U+1E48
ENCODING 7752
SWIDTH 480 0
DWIDTH 6 0
BBX 5 11 1 -2
BITMAP
88
88
C8
A8
A8
A8
98
88
88
00
70
ENDCHAR
STARTCHAR U+1E49
ENCODING 7753
SWIDTH 480 0
DWIDTH 6 0
BBX 5 7 1 -2
BITMAP
B0
C8
88
88
88
00
70
ENDCHAR
STARTCHAR U+1E4A
ENCODING 7754
SWIDTH 480 0
DWIDTH 6 0
BBX 5 12 1 -3
BITMAP
88
88
C8
A8
A8
A8
98
88
88
00
20
50
ENDCHAR
STARTCHAR U+1E4B
ENCODING 7755
SWIDTH 480 0
DWIDTH 6 0
BBX 5 8 1 -3
BITMAP
B0
C8
88
88
88
00
20
50
ENDCHAR
STARTCHAR U+1E4C
ENCODING 7756
SWIDTH 480 0
DWIDTH 6 0
BBX 5 13 1 -1
BITMAP
10
20
00
68
58
00
70
88
88
88
88
90
60
ENDCHAR
STARTCHAR U+1E4D
ENCODING 7757
SWIDTH 480 0
DWIDTH 6 0
BBX 5 11 1 0
BITMAP
10
20
00
68
58
00
70
88
88
88
70
ENDCHAR
STARTCHAR U+1E4E
ENCODING 7758
SWIDTH 480 0
DWIDTH 6 0
BBX 5 12 1 0
BITMAP
50
00
68
58
00
70
88
88
88
88
90
60
ENDCHAR
STARTCHAR U+1E4F
ENCODING 7759
SWIDTH 480 0
DWIDTH 6 0
BBX 5 10 1 0
BITMAP
50
00
68
58
00
70
88
88
88
70
ENDCHAR
STARTCHAR U+1E50
ENCODING 7760
SWIDTH 480 0
DWIDTH 6 0
BBX 5 12 1 0
BITMAP
40
20
00
70
00
70
88
88
88
88
90
60
ENDCHAR
STARTCHAR U+1E51
ENCODING 7761
SWIDTH 480 0
DWIDTH 6 0
BBX 5 10 1 0
BITMAP
40
20
00
70
00
70
88
88
88
70
ENDCHAR
STARTCHAR U+1E52
ENCODING 7762
SWIDTH 480 0
DWIDTH 6 0
BBX 5 12 1 0
BITMAP
10
20
00
70
00
70
88
88
88
88
90
60
ENDCHAR
STARTCHAR U+1E53
ENCODING 7763
SWIDTH 480 0
DWIDTH 6 0
BBX 5 10 1 0
BITMAP
10
20
00
70
00
70
88
88
88
70
ENDCHAR
STARTCHAR U+1E54
ENCODING 7764
SWIDTH 480 0
DWIDTH 6 0
BBX 5 12 1 0
BITMAP
10
20
00
70
88
88
90
A0
80
80
80
80
ENDCHAR
STARTCHAR U+1E55
ENCODING 7765
SWIDTH 480 0
DWIDTH 6 0
BBX 5 11 1 -3
BITMAP
10
20
00
B0
C8
88
88
B0
80
80
80
ENDCHAR
STARTCHAR U+1E56
ENCODING 7766
SWIDTH 480 0
DWIDTH 6 0
BBX 5 11 1 0
BITMAP
20
00
70
88
88
90
A0
80
80
80
80
ENDCHAR
STARTCHAR U+1E57
ENCODING 7767
SWIDTH 480 0
DWIDTH 6 0
BBX 5 10 1 -3
BITMAP
20
00
B0
C8
88
88
B0
80
80
80
ENDCHAR
STARTCHAR U+1E58
ENCODING 7768
SWIDTH 480 0
DWIDTH 6 0
BBX 5 11 1 0
BITMAP
20
00
70
88
88
90
A0
90
90
90
88
ENDCHAR
STARTCHAR U+1E59
ENCODING 7769
SWIDTH 480 0
DWIDTH 6 0
BBX 5 7 1 0
BITMAP
20
00
D8
60
40
40
40
ENDCHAR
STARTCHAR U+1E5A
ENCODING 7770
SWIDTH 480 0
DWIDTH 6 0
BBX 5 11 1 -2
BITMAP
70
88
88
90
A0
90
90
90
88
00
20
ENDCHAR
STARTCHAR U+1E5B
ENCODING 7771
SWIDTH 480 0
DWIDTH 6 0
BBX 5 7 1 -2
BITMAP
D8
60
40
40
40
00
40
ENDCHAR
STARTCHAR U+1E5C
ENCODING 7772
SWIDTH 480 0
DWIDTH 6 0
BBX 5 13 1 -2
BITMAP
70
00
70
88
88
90
A0
90
90
90
88
00
20
ENDCHAR
STARTCHAR U+1E5D
ENCODING 7773
SWIDTH 480 0
DWIDTH 6 0
BBX 5 9 1 -2
BITMAP
70
00
D8
60
40
40
40
00
40
ENDCHAR
STARTCHAR U+1E5E
ENCODING 7774
SWIDTH 480 0
DWIDTH 6 0
BBX 5 11 1 -2
BITMAP
70
88
88
90
A0
90
90
90
88
00
70
ENDCHAR
STARTCHAR U+1E5F
ENCODING 7775
SWIDTH 480 0
DWIDTH 6 0
BBX 5 7 1 -2
BITMAP
D8
60
40
40
40
00
70
ENDCHAR
STARTCHAR U+1E60
ENCODING 7776
SWIDTH 480 0
DWIDTH 6 0
BBX 5 11 1 0
BITMAP
20
00
70
90
80
80
70
08
08
88
70
ENDCHAR
STARTCHAR U+1E61
ENCODING 7777
SWIDTH 480 0
DWIDTH 6 0
BBX 5 7 1 0
BITMAP
20
00
70
80
70
08
70
ENDCHAR
STARTCHAR U+1E62
ENCODING 7778
SWIDTH 480 0
DWIDTH 6 0
BBX 5 11 1 -2
BITMAP
70
90
80
80
70
08
08
88
70
00
20
ENDCHAR
STARTCHAR U+1E63
ENCODING 7779
SWIDTH 480 0
DWIDTH 6 0
BBX 5 7 1 -2
BITMAP
70
80
70
08
70
00
20
ENDCHAR
STARTCHAR U+1E64
ENCODING 7780
SWIDTH 480 0
DWIDTH 6 0
BBX 5 12 1 0
BITMAP
08
50
00
70
90
80
80
70
08
08
88
70
ENDCHAR
STARTCHAR U+1E65
ENCODING 7781
SWIDTH 480 0
DWIDTH 6 0
BBX 5 8 1 0
BITMAP
08
50
00
70
80
70
08
70
ENDCHAR
STARTCHAR U+1E66
ENCODING 7782
SWIDTH 480 0
DWIDTH 6 0
BBX 5 12 1 0
BITMAP
20
00
50
20
00
70
90
80
70
08
88
70
ENDCHAR
STARTCHAR U+1E67
ENCODING 7783
SWIDTH 480 0
DWIDTH 6 0
BBX 5 10 1 0
BITMAP
20
00
50
20
00
70
80
70
08
70
ENDCHAR
STARTCHAR U+1E68
ENCODING 7784
SWIDTH 480 0
DWIDTH 6 0
BBX 5 13 1 -2
BITMAP
20
00
70
90
80
80
70
08
08
88
70
00
20
ENDCHAR
STARTCHAR U+1E69
ENCODING 7785
SWIDTH 480 0
DWIDTH 6 0
BBX 5 9 1 -2
BITMAP
20
00
70
80
70
08
70
00
20
ENDCHAR
STARTCHAR U+1E6A
ENCODING 7786
SWIDTH 480 0
DWIDTH 6 0
BBX 5 11 1 0
BITMAP
20
00
F8
20
20
20
20
20
20
20
20
ENDCHAR
STARTCHAR U+1E6B
ENCODING 7787
SWIDTH 480 0
DWIDTH 6 0
BBX 5 8 1 0
BITMAP
40
00
40
F0
40
40
48
30
ENDCHAR
STARTCHAR U+1E6C
ENCODING 7788
SWIDTH 480 0
DWIDTH 6 0
BBX 5 11 1 -2
BITMAP
F8
20
20
20
20
20
20
20
20
00
20
ENDCHAR
STARTCHAR U+1E6D
ENCODING 7789
SWIDTH 480 0
DWIDTH 6 0
BBX 5 8 1 -2
BITMAP
40
F0
40
40
48
30
00
20
ENDCHAR
STARTCHAR U+1E6E
ENCODING 7790
SWIDTH 480 0
DWIDTH 6 0
BBX 5 11 1 -2
BITMAP
F8
20
20
20
20
20
20
20
20
00
70
ENDCHAR
STARTCHAR U+1E6F
ENCODING 7791
SWIDTH 480 0
DWIDTH 6 0
BBX 5 8 1 -2
BITMAP
40
F0
40
40
48
30
00
70
ENDCHAR
STARTCHAR U+1E70
ENCODING 7792
SWIDTH 480 0
DWIDTH 6 0
BBX 5 12 1 -3
BITMAP
F8
20
20
20
20
20
20
20
20
00
20
50
ENDCHAR
STARTCHAR U+1E71
ENCODING 7793
SWIDTH 480 0
DWIDTH 6 0
BBX 5 9 1 -3
BITMAP
40
F0
40
40
48
30
00
20
50
ENDCHAR
STARTCHAR U+1E72
ENCODING 7794
SWIDTH 480 0
DWIDTH 6 0
BBX 5 11 1 -2
BITMAP
88
88
88
88
88
88
88
90
60
00
50
ENDCHAR
STARTCHAR U+1E73
ENCODING 7795
SWIDTH 480 0
DWIDTH 6 0
BBX 5 7 1 -2
BITMAP
88
88
88
98
68
00
50
ENDCHAR
STARTCHAR U+1E74
ENCODING 7796
SWIDTH 480 0
DWIDTH 6 0
BBX 5 12 1 -3
BITMAP
88
88
88
88
88
88
88
90
60
00
68
58
ENDCHAR
STARTCHAR U+1E75
ENCODING 7797
SWIDTH 480 0
DWIDTH 6 0
BBX 5 8 1 -3
BITMAP
88
88
88
98
68
00
68
58
ENDCHAR
STARTCHAR U+1E76
ENCODING 7798
SWIDTH 480 0
DWIDTH 6 0
BBX 5 12 1 -3
BITMAP
88
88
88
88
88
88
88
90
60
00
20
50
ENDCHAR
STARTCHAR U+1E77
ENCODING 7799
SWIDTH 480 0
DWIDTH 6 0
BBX 5 8 1 -3
BITMAP
88
88
88
98
68
00
20
50
ENDCHAR
STARTCHAR U+1E78
ENCODING 7800
SWIDTH 480 0
DWIDTH 6 0
BBX 5 12 1 0
BITMAP
10
20
00
68
58
00
88
88
88
88
90
60
ENDCHAR
STARTCHAR U+1E79
ENCODING 7801
SWIDTH 480 0
DWIDTH 6 0
BBX 5 11 1 0
BITMAP
10
20
00
68
58
00
88
88
88
98
68
ENDCHAR
STARTCHAR U+1E7A
ENCODING 7802
SWIDTH 480 0
DWIDTH 6 0
BBX 5 12 1 0
BITMAP
50
00
70
00
88
88
88
88
88
88
90
60
ENDCHAR
STARTCHAR U+1E7B
ENCODING 7803
SWIDTH 480 0
DWIDTH 6 0
BBX 5 9 1 0
BITMAP
50
00
70
00
88
88
88
98
68
ENDCHAR
STARTCHAR U+1E7C
ENCODING 7804
SWIDTH 480 0
DWIDTH 6 0
BBX 5 12 1 0
BITMAP
68
58
00
88
50
50
50
50
50
50
20
20
ENDCHAR
STARTCHAR U+1E7D
ENCODING 7805
SWIDTH 480 0
DWIDTH 6 0
BBX 5 8 1 0
BITMAP
68
58
00
88
50
50
20
20
ENDCHAR
STARTCHAR U+1E7E
ENCODING 7806
SWIDTH 480 0
DWIDTH 6 0
BBX 5 11 1 -2
BITMAP
88
50
50
50
50
50
50
20
20
00
20
ENDCHAR
STARTCHAR U+1E7F
ENCODING 7807
SWIDTH 480 0
DWIDTH 6 0
BBX 5 7 1 -2
BITMAP
88
50
50
20
20
00
20
ENDCHAR
STARTCHAR U+1E80
ENCODING 7808
SWIDTH 480 0
DWIDTH 6 0
BBX 5 12 1 0
BITMAP
40
20
00
88
88
A8
A8
A8
A8
A8
50
50
ENDCHAR
STARTCHAR U+1E81
ENCODING 7809
SWIDTH 480 0
DWIDTH 6 0
BBX 5 8 1 0
BITMAP
40
20
00
A8
A8
A8
50
50
ENDCHAR
STARTCHAR U+1E82
ENCODING 7810
SWIDTH 480 0
DWIDTH 6 0
BBX 5 12 1 0
BITMAP
10
20
00
88
88
A8
A8
A8
A8
A8
50
50
ENDCHAR
STARTCHAR U+1E83
ENCODING 7811
SWIDTH 480 0
DWIDTH 6 0
BBX 5 8 1 0
BITMAP
10
20
00
A8
A8
A8
50
50
ENDCHAR
STARTCHAR U+1E84
ENCODING 7812
SWIDTH 480 0
DWIDTH 6 0
BBX 5 11 1 0
BITMAP
50
00
88
88
A8
A8
A8
A8
A8
50
50
ENDCHAR
STARTCHAR U+1E85
ENCODING 7813
SWIDTH 480 0
DWIDTH 6 0
BBX 5 7 1 0
BITMAP
50
00
A8
A8
A8
50
50
ENDCHAR
STARTCHAR U+1E86
ENCODING 7814
SWIDTH 480 0
DWIDTH 6 0
BBX 5 11 1 0
BITMAP
20
00
88
88
A8
A8
A8
A8
A8
50
50
ENDCHAR
STARTCHAR U+1E87
ENCODING 7815
SWIDTH 480 0
DWIDTH 6 0
BBX 5 7 1 0
BITMAP
20
00
A8
A8
A8
50
50
ENDCHAR
STARTCHAR U+1E88
ENCODING 7816
SWIDTH 480 0
DWIDTH 6 0
BBX 5 11 1 -2
BITMAP
88
88
A8
A8
A8
A8
A8
50
50
00
20
ENDCHAR
STARTCHAR U+1E89
ENCODING 7817
SWIDTH 480 0
DWIDTH 6 0
BBX 5 7 1 -2
BITMAP
A8
A8
A8
50
50
00
20
ENDCHAR
STARTCHAR U+1E8A
ENCODING 7818
SWIDTH 480 0
DWIDTH 6 0
BBX 5 11 1 0
BITMAP
20
00
88
50
50
50
20
50
50
50
88
ENDCHAR
STARTCHAR U+1E8B
ENCODING 7819
SWIDTH 480 0
DWIDTH 6 0
BBX 5 7 1 0
BITMAP
20
00
C8
30
20
60
98
ENDCHAR
STARTCHAR U+1E8C
ENCODING 7820
SWIDTH 480 0
DWIDTH 6 0
BBX 5 11 1 0
BITMAP
50
00
88
50
50
50
20
50
50
50
88
ENDCHAR
STARTCHAR U+1E8D
ENCODING 7821
SWIDTH 480 0
DWIDTH 6 0
BBX 5 7 1 0
BITMAP
50
00
C8
30
20
60
98
ENDCHAR
STARTCHAR U+1E8E
ENCODING 7822
SWIDTH 480 0
DWIDTH 6 0
BBX 5 14 1 -3
BITMAP
20
00
88
50
50
50
30
10
10
10
10
10
90
60
ENDCHAR
STARTCHAR U+1E8F
ENCODING 7823
SWIDTH 480 0
DWIDTH 6 0
BBX 5 10 1 -3
BITMAP
20
00
88
50
50
50
20
20
20
40
ENDCHAR
STARTCHAR U+1E90
ENCODING 7824
SWIDTH 480 0
DWIDTH 6 0
BBX 5 12 1 0
BITMAP
20
50
00
F8
90
10
20
20
20
40
48
F8
ENDCHAR
STARTCHAR U+1E91
ENCODING 7825
SWIDTH 480 0
DWIDTH 6 0
BBX 5 8 1 0
BITMAP
20
50
00
F8
10
20
40
F8
ENDCHAR
STARTCHAR U+1E92
ENCODING 7826
SWIDTH 480 0
DWIDTH 6 0
BBX 5 11 1 -2
BITMAP
F8
90
10
20
20
20
40
48
F8
00
20
ENDCHAR
STARTCHAR U+1E93
ENCODING 7827
SWIDTH 480 0
DWIDTH 6 0
BBX 5 7 1 -2
BITMAP
F8
10
20
40
F8
00
20
ENDCHAR
STARTCHAR U+1E94
ENCODING 7828
SWIDTH 480 0
DWIDTH 6 0
BBX 5 11 1 -2
BITMAP
F8
90
10
20
20
20
40
48
F8
00
70
ENDCHAR
STARTCHAR U+1E95
ENCODING 7829
SWIDTH 480 0
DWIDTH 6 0
BBX 5 7 1 -2
BITMAP
F8
10
20
40
F8
00
70
ENDCHAR
STARTCHAR U+1E96
ENCODING 7830
SWIDTH 480 0
DWIDTH 6 0
BBX 5 11 1 -2
BITMAP
80
80
80
80
B0
C8
88
88
88
00
70
ENDCHAR
STARTCHAR U+1E97
ENCODING 7831
SWIDTH 480 0
DWIDTH 6 0
BBX 5 8 1 0
BITMAP
A0
00
40
F0
40
40
48
30
ENDCHAR
STARTCHAR U+1E98
ENCODING 7832
SWIDTH 480 0
DWIDTH 6 0
BBX 5 9 1 0
BITMAP
20
50
20
00
A8
A8
A8
50
50
ENDCHAR
STARTCHAR U+1E99
ENCODING 7833
SWIDTH 480 0
DWIDTH 6 0
BBX 5 12 1 -3
BITMAP
20
50
20
00
88
50
50
50
20
20
20
40
ENDCHAR
STARTCHAR U+1E9A
ENCODING 7834
SWIDTH 480 0
DWIDTH 6 0
BBX 5 9 1 0
BITMAP
20
10
20
00
70
08
78
88
68
ENDCHAR
STARTCHAR U+1E9B
ENCODING 7835
SWIDTH 480 0
DWIDTH 6 0
BBX 4 11 2 0
BITMAP
40
00
60
90
80
80
80
80
80
80
80
ENDCHAR
STARTCHAR U+1E9C
ENCODING 7836
SWIDTH 480 0
DWIDTH 6 0
BBX 5 9 1 0
BITMAP
30
48
40
40
60
C0
40
40
40
ENDCHAR
STARTCHAR U+1E9D
ENCODING 7837
SWIDTH 480 0
DWIDTH 6 0
BBX 5 9 1 0
BITMAP
30
48
E0
40
40
40
40
40
40
ENDCHAR
STARTCHAR U+1E9E
ENCODING 7838
SWIDTH 480 0
DWIDTH 6 0
BBX 5 9 1 0
BITMAP
70
88
88
B0
88
88
88
88
B0
ENDCHAR
STARTCHAR U+1E9F
ENCODING 7839
SWIDTH 480 0
DWIDTH 6 0
BBX 5 8 1 0
BITMAP
30
40
20
50
88
88
88
70
ENDCHAR
STARTCHAR U+1EA0
ENCODING 7840
SWIDTH 480 0
DWIDTH 6 0
BBX 5 11 1 -2
BITMAP
08
18
28
48
F8
88
88
88
88
00
20
ENDCHAR
STARTCHAR U+1EA1
ENCODING 7841
SWIDTH 480 0
DWIDTH 6 0
BBX 5 7 1 -2
BITMAP
70
08
78
88
68
00
20
ENDCHAR
STARTCHAR U+1EA2
ENCODING 7842
SWIDTH 480 0
DWIDTH 6 0
BBX 5 12 1 0
BITMAP
30
08
10
00
08
18
28
48
F8
88
88
88
ENDCHAR
STARTCHAR U+1EA3
ENCODING 7843
SWIDTH 480 0
DWIDTH 6 0
BBX 5 9 1 0
BITMAP
60
10
20
00
70
08
78
88
68
ENDCHAR
STARTCHAR U+1EA4
ENCODING 7844
SWIDTH 480 0
DWIDTH 6 0
BBX 5 12 1 0
BITMAP
08
10
40
A0
08
18
28
48
F8
88
88
88
ENDCHAR
STARTCHAR U+1EA5
ENCODING 7845
SWIDTH 480 0
DWIDTH 6 0
BBX 5 10 1 0
BITMAP
08
10
40
A0
00
70
08
78
88
68
ENDCHAR
STARTCHAR U+1EA6
ENCODING 7846
SWIDTH 480 0
DWIDTH 6 0
BBX 5 12 1 0
BITMAP
80
40
10
28
00
08
18
28
48
F8
88
88
ENDCHAR
STARTCHAR U+1EA7
ENCODING 7847
SWIDTH 480 0
DWIDTH 6 0
BBX 5 10 1 0
BITMAP
80
40
10
28
00
70
08
78
88
68
ENDCHAR
STARTCHAR U+1EA8
ENCODING 7848
SWIDTH 480 0
DWIDTH 6 0
BBX 5 12 1 0
BITMAP
30
08
10
40
A0
08
18
28
48
F8
88
88
ENDCHAR
STARTCHAR U+1EA9
ENCODING 7849
SWIDTH 480 0
DWIDTH 6 0
BBX 5 11 1 0
BITMAP
30
08
10
40
A0
00
70
08
78
88
68
ENDCHAR
STARTCHAR U+1EAA
ENCODING 7850
SWIDTH 480 0
DWIDTH 6 0
BBX 5 12 1 0
BITMAP
68
58
00
10
28
00
08
18
28
48
F8
88
ENDCHAR
STARTCHAR U+1EAB
ENCODING 7851
SWIDTH 480 0
DWIDTH 6 0
BBX 5 11 1 0
BITMAP
68
58
00
20
50
00
70
08
78
88
68
ENDCHAR
STARTCHAR U+1EAC
ENCODING 7852
SWIDTH 480 0
DWIDTH 6 0
BBX 5 14 1 -2
BITMAP
10
28
00
08
18
28
48
F8
88
88
88
88
00
20
ENDCHAR
STARTCHAR U+1EAD
ENCODING 7853
SWIDTH 480 0
DWIDTH 6 0
BBX 5 10 1 -2
BITMAP
20
50
00
70
08
78
88
68
00
20
ENDCHAR
STARTCHAR U+1EAE
ENCODING 7854
SWIDTH 480 0
DWIDTH 6 0
BBX 5 12 1 0
BITMAP
08
10
00
28
38
00
08
18
28
48
F8
88
ENDCHAR
STARTCHAR U+1EAF
ENCODING 7855
SWIDTH 480 0
DWIDTH 6 0
BBX 5 11 1 0
BITMAP
10
20
00
50
70
00
70
08
78
88
68
ENDCHAR
STARTCHAR U+1EB0
ENCODING 7856
SWIDTH 480 0
DWIDTH 6 0
BBX 5 12 1 0
BITMAP
20
10
00
28
38
00
08
18
28
48
F8
88
ENDCHAR
STARTCHAR U+1EB1
ENCODING 7857
SWIDTH 480 0
DWIDTH 6 0
BBX 5 11 1 0
BITMAP
40
20
00
50
70
00
70
08
78
88
68
ENDCHAR
STARTCHAR U+1EB2
ENCODING 7858
SWIDTH 480 0
DWIDTH 6 0
BBX 5 12 1 0
BITMAP
30
08
10
00
28
38
00
18
28
48
F8
88
ENDCHAR
STARTCHAR U+1EB3
ENCODING 7859
SWIDTH 480 0
DWIDTH 6 0
BBX 5 12 1 0
BITMAP
60
10
20
00
50
70
00
70
08
78
88
68
ENDCHAR
STARTCHAR U+1EB4
ENCODING 7860
SWIDTH 480 0
DWIDTH 6 0
BBX 5 12 1 0
BITMAP
68
58
00
28
38
00
08
18
28
48
F8
88
ENDCHAR
STARTCHAR U+1EB5
ENCODING 7861
SWIDTH 480 0
DWIDTH 6 0
BBX 5 11 1 0
BITMAP
68
58
00
50
70
00
70
08
78
88
68
ENDCHAR
STARTCHAR U+1EB6
ENCODING 7862
SWIDTH 480 0
DWIDTH 6 0
BBX 5 14 1 -2
BITMAP
28
38
00
08
18
28
48
F8
88
88
88
88
00
20
ENDCHAR
STARTCHAR U+1EB7
ENCODING 7863
SWIDTH 480 0
DWIDTH 6 0
BBX 5 10 1 -2
BITMAP
50
70
00
70
08
78
88
68
00
20
ENDCHAR
STARTCHAR U+1EB8
ENCODING 7864
SWIDTH 480 0
DWIDTH 6 0
BBX 5 11 1 -2
BITMAP
70
90
80
80
60
80
80
88
70
00
20
ENDCHAR
STARTCHAR U+1EB9
ENCODING 7865
SWIDTH 480 0
DWIDTH 6 0
BBX 5 7 1 -2
BITMAP
70
88
B0
80
70
00
20
ENDCHAR
STARTCHAR U+1EBA
ENCODING 7866
SWIDTH 480 0
DWIDTH 6 0
BBX 5 12 1 0
BITMAP
60
10
20
00
70
90
80
60
80
80
88
70
ENDCHAR
STARTCHAR U+1EBB
ENCODING 7867
SWIDTH 480 0
DWIDTH 6 0
BBX 5 9 1 0
BITMAP
60
10
20
00
70
88
B0
80
70
ENDCHAR
STARTCHAR U+1EBC
ENCODING 7868
SWIDTH 480 0
DWIDTH 6 0
BBX 5 12 1 0
BITMAP
D0
B0
00
70
90
80
80
60
80
80
88
70
ENDCHAR
STARTCHAR U+1EBD
ENCODING 7869
SWIDTH 480 0
DWIDTH 6 0
BBX 5 8 1 0
BITMAP
68
58
00
70
88
B0
80
70
ENDCHAR
STARTCHAR U+1EBE
ENCODING 7870
SWIDTH 480 0
DWIDTH 6 0
BBX 5 12 1 0
BITMAP
08
10
40
A0
00
70
90
80
60
80
88
70
ENDCHAR
STARTCHAR U+1EBF
ENCODING 7871
SWIDTH 480 0
DWIDTH 6 0
BBX 5 10 1 0
BITMAP
08
10
40
A0
00
70
88
B0
80
70
ENDCHAR
STARTCHAR U+1EC0
ENCODING 7872
SWIDTH 480 0
DWIDTH 6 0
BBX 5 12 1 0
BITMAP
80
40
10
28
00
70
90
80
60
80
88
70
ENDCHAR
STARTCHAR U+1EC1
ENCODING 7873
SWIDTH 480 0
DWIDTH 6 0
BBX 5 10 1 0
BITMAP
80
40
10
28
00
70
88
B0
80
70
ENDCHAR
STARTCHAR U+1EC2
ENCODING 7874
SWIDTH 480 0
DWIDTH 6 0
BBX 5 12 1 0
BITMAP
30
08
10
40
A0
00
70
80
60
80
88
70
ENDCHAR
STARTCHAR U+1EC3
ENCODING 7875
SWIDTH 480 0
DWIDTH 6 0
BBX 5 11 1 0
BITMAP
30
08
10
40
A0
00
70
88
B0
80
70
ENDCHAR
STARTCHAR U+1EC4
ENCODING 7876
SWIDTH 480 0
DWIDTH 6 0
BBX 5 12 1 0
BITMAP
D0
B0
00
20
50
00
70
80
60
80
88
70
ENDCHAR
STARTCHAR U+1EC5
ENCODING 7877
SWIDTH 480 0
DWIDTH 6 0
BBX 5 11 1 0
BITMAP
68
58
00
20
50
00
70
88
B0
80
70
ENDCHAR
STARTCHAR U+1EC6
ENCODING 7878
SWIDTH 480 0
DWIDTH 6 0
BBX 5 14 1 -2
BITMAP
20
50
00
70
90
80
80
60
80
80
88
70
00
20
ENDCHAR
STARTCHAR U+1EC7
ENCODING 7879
SWIDTH 480 0
DWIDTH 6 0
BBX 5 10 1 -2
BITMAP
20
50
00
70
88
B0
80
70
00
20
ENDCHAR
STARTCHAR U+1EC8
ENCODING 7880
SWIDTH 480 0
DWIDTH 6 0
BBX 5 12 1 0
BITMAP
60
10
20
00
F8
20
20
20
20
20
20
F8
ENDCHAR
STARTCHAR U+1EC9
ENCODING 7881
SWIDTH 480 0
DWIDTH 6 0
BBX 5 9 1 0
BITMAP
60
10
20
00
20
E0
20
20
18
ENDCHAR
STARTCHAR U+1ECA
ENCODING 7882
SWIDTH 480 0
DWIDTH 6 0
BBX 5 11 1 -2
BITMAP
F8
20
20
20
20
20
20
20
F8
00
20
ENDCHAR
STARTCHAR U+1ECB
ENCODING 7883
SWIDTH 480 0
DWIDTH 6 0
BBX 5 9 1 -2
BITMAP
20
00
20
E0
20
20
18
00
20
ENDCHAR
STARTCHAR U+1ECC
ENCODING 7884
SWIDTH 480 0
DWIDTH 6 0
BBX 5 11 1 -2
BITMAP
70
88
88
88
88
88
88
90
60
00
20
ENDCHAR
STARTCHAR U+1ECD
ENCODING 7885
SWIDTH 480 0
DWIDTH 6 0
BBX 5 7 1 -2
BITMAP
70
88
88
88
70
00
20
ENDCHAR
STARTCHAR U+1ECE
ENCODING 7886
SWIDTH 480 0
DWIDTH 6 0
BBX 5 12 1 0
BITMAP
60
10
20
00
70
88
88
88
88
88
90
60
ENDCHAR
STARTCHAR U+1ECF
ENCODING 7887
SWIDTH 480 0
DWIDTH 6 0
BBX 5 9 1 0
BITMAP
60
10
20
00
70
88
88
88
70
ENDCHAR
STARTCHAR U+1ED0
ENCODING 7888
SWIDTH 480 0
DWIDTH 6 0
BBX 5 12 1 0
BITMAP
08
10
40
A0
00
70
88
88
88
88
90
60
ENDCHAR
STARTCHAR U+1ED1
ENCODING 7889
SWIDTH 480 0
DWIDTH 6 0
BBX 5 10 1 0
BITMAP
08
10
40
A0
00
70
88
88
88
70
ENDCHAR
STARTCHAR U+1ED2
ENCODING 7890
SWIDTH 480 0
DWIDTH 6 0
BBX 5 12 1 0
BITMAP
80
40
10
28
00
70
88
88
88
88
90
60
ENDCHAR
STARTCHAR U+1ED3
ENCODING 7891
SWIDTH 480 0
DWIDTH 6 0
BBX 5 10 1 0
BITMAP
80
40
10
28
00
70
88
88
88
70
ENDCHAR
STARTCHAR U+1ED4
ENCODING 7892
SWIDTH 480 0
DWIDTH 6 0
BBX 5 12 1 0
BITMAP
30
08
10
40
A0
00
70
88
88
88
90
60
ENDCHAR
STARTCHAR U+1ED5
ENCODING 7893
SWIDTH 480 0
DWIDTH 6 0
BBX 5 11 1 0
BITMAP
30
08
10
40
A0
00
70
88
88
88
70
ENDCHAR
STARTCHAR U+1ED6
ENCODING 7894
SWIDTH 480 0
DWIDTH 6 0
BBX 5 12 1 0
BITMAP
68
58
00
20
50
00
70
88
88
88
90
60
ENDCHAR
STARTCHAR U+1ED7
ENCODING 7895
SWIDTH 480 0
DWIDTH 6 0
BBX 5 11 1 0
BITMAP
68
58
00
20
50
00
70
88
88
88
70
ENDCHAR
STARTCHAR U+1ED8
ENCODING 7896
SWIDTH 480 0
DWIDTH 6 0
BBX 5 14 1 -2
BITMAP
20
50
00
70
88
88
88
88
88
88
90
60
00
20
ENDCHAR
STARTCHAR U+1ED9
ENCODING 7897
SWIDTH 480 0
DWIDTH 6 0
BBX 5 10 1 -2
BITMAP
20
50
00
70
88
88
88
70
00
20
ENDCHAR
STARTCHAR U+1EDA
ENCODING 7898
SWIDTH 480 0
DWIDTH 6 0
BBX 6 12 1 0
BITMAP
10
20
04
74
88
88
88
88
88
88
90
60
ENDCHAR
STARTCHAR U+1EDB
ENCODING 7899
SWIDTH 480 0
DWIDTH 6 0
BBX 6 8 1 0
BITMAP
10
20
04
74
88
88
88
70
ENDCHAR
STARTCHAR U+1EDC
ENCODING 7900
SWIDTH 480 0
DWIDTH 6 0
BBX 6 12 1 0
BITMAP
40
20
04
74
88
88
88
88
88
88
90
60
ENDCHAR
STARTCHAR U+1EDD
ENCODING 7901
SWIDTH 480 0
DWIDTH 6 0
BBX 6 8 1 0
BITMAP
40
20
04
74
88
88
88
70
ENDCHAR
STARTCHAR U+1EDE
ENCODING 7902
SWIDTH 480 0
DWIDTH 6 0
BBX 6 12 1 0
BITMAP
60
10
20
04
74
88
88
88
88
88
90
60
ENDCHAR
STARTCHAR U+1EDF
ENCODING 7903
SWIDTH 480 0
DWIDTH 6 0
BBX 6 9 1 0
BITMAP
60
10
20
04
74
88
88
88
70
ENDCHAR
STARTCHAR U+1EE0
ENCODING 7904
SWIDTH 480 0
DWIDTH 6 0
BBX 6 12 1 0
BITMAP
D0
B0
04
74
88
88
88
88
88
88
90
60
ENDCHAR
STARTCHAR U+1EE1
ENCODING 7905
SWIDTH 480 0
DWIDTH 6 0
BBX 6 8 1 0
BITMAP
D0
B0
04
74
88
88
88
70
ENDCHAR
STARTCHAR U+1EE2
ENCODING 7906
SWIDTH 480 0
DWIDTH 6 0
BBX 6 12 1 -2
BITMAP
04
74
88
88
88
88
88
88
90
60
00
20
ENDCHAR
STARTCHAR U+1EE3
ENCODING 7907
SWIDTH 480 0
DWIDTH 6 0
BBX 6 8 1 -2
BITMAP
04
74
88
88
88
70
00
20
ENDCHAR
STARTCHAR U+1EE4
ENCODING 7908
SWIDTH 480 0
DWIDTH 6 0
BBX 5 11 1 -2
BITMAP
88
88
88
88
88
88
88
90
60
00
20
ENDCHAR
STARTCHAR U+1EE5
ENCODING 7909
SWIDTH 480 0
DWIDTH 6 0
BBX 5 7 1 -2
BITMAP
88
88
88
98
68
00
20
ENDCHAR
STARTCHAR U+1EE6
ENCODING 7910
SWIDTH 480 0
DWIDTH 6 0
BBX 5 12 1 0
BITMAP
60
10
20
00
88
88
88
88
88
88
90
60
ENDCHAR
STARTCHAR U+1EE7
ENCODING 7911
SWIDTH 480 0
DWIDTH 6 0
BBX 5 9 1 0
BITMAP
60
10
20
00
88
88
88
98
68
ENDCHAR
STARTCHAR U+1EE8
ENCODING 7912
SWIDTH 480 0
DWIDTH 6 0
BBX 6 12 1 0
BITMAP
10
20
04
84
88
88
88
88
88
88
90
60
ENDCHAR
STARTCHAR U+1EE9
ENCODING 7913
SWIDTH 480 0
DWIDTH 6 0
BBX 6 8 1 0
BITMAP
10
20
04
84
88
88
98
68
ENDCHAR
STARTCHAR U+1EEA
ENCODING 7914
SWIDTH 480 0
DWIDTH 6 0
BBX 6 12 1 0
BITMAP
40
20
04
84
88
88
88
88
88
88
90
60
ENDCHAR
STARTCHAR U+1EEB
ENCODING 7915
SWIDTH 480 0
DWIDTH 6 0
BBX 6 8 1 0
BITMAP
40
20
04
84
88
88
98
68
ENDCHAR
STARTCHAR U+1EEC
ENCODING 7916
SWIDTH 480 0
DWIDTH 6 0
BBX 6 12 1 0
BITMAP
60
10
20
04
84
88
88
88
88
88
90
60
ENDCHAR
STARTCHAR U+1EED
ENCODING 7917
SWIDTH 480 0
DWIDTH 6 0
BBX 6 9 1 0
BITMAP
60
10
20
04
84
88
88
98
68
ENDCHAR
STARTCHAR U+1EEE
ENCODING 7918
SWIDTH 480 0
DWIDTH 6 0
BBX 6 12 1 0
BITMAP
D0
B0
04
84
88
88
88
88
88
88
90
60
ENDCHAR
STARTCHAR U+1EEF
ENCODING 7919
SWIDTH 480 0
DWIDTH 6 0
BBX 6 8 1 0
BITMAP
D0
B0
04
84
88
88
98
68
ENDCHAR
STARTCHAR U+1EF0
ENCODING 7920
SWIDTH 480 0
DWIDTH 6 0
BBX 6 12 1 -2
BITMAP
04
84
88
88
88
88
88
88
90
60
00
20
ENDCHAR
STARTCHAR U+1EF1
ENCODING 7921
SWIDTH 480 0
DWIDTH 6 0
BBX 6 8 1 -2
BITMAP
04
84
88
88
98
68
00
20
ENDCHAR
STARTCHAR U+1EF2
ENCODING 7922
SWIDTH 480 0
DWIDTH 6 0
BBX 5 15 1 -3
BITMAP
40
20
00
88
50
50
50
30
10
10
10
10
10
90
60
ENDCHAR
STARTCHAR U+1EF3
ENCODING 7923
SWIDTH 480 0
DWIDTH 6 0
BBX 5 11 1 -3
BITMAP
40
20
00
88
50
50
50
20
20
20
40
ENDCHAR
STARTCHAR U+1EF4
ENCODING 7924
SWIDTH 480 0
DWIDTH 6 0
BBX 5 12 1 -3
BITMAP
88
50
50
50
30
10
10
10
90
60
00
20
ENDCHAR
STARTCHAR U+1EF5
ENCODING 7925
SWIDTH 480 0
DWIDTH 6 0
BBX 5 8 1 -3
BITMAP
88
50
50
50
20
20
20
48
ENDCHAR
STARTCHAR U+1EF6
ENCODING 7926
SWIDTH 480 0
DWIDTH 6 0
BBX 5 15 1 -3
BITMAP
60
10
20
00
88
50
50
30
10
10
10
10
10
90
60
ENDCHAR
STARTCHAR U+1EF7
ENCODING 7927
SWIDTH 480 0
DWIDTH 6 0
BBX 5 12 1 -3
BITMAP
60
10
20
00
88
50
50
50
20
20
20
40
ENDCHAR
STARTCHAR U+1EF8
ENCODING 7928
SWIDTH 480 0
DWIDTH 6 0
BBX 5 15 1 -3
BITMAP
D0
B0
00
88
50
50
50
30
10
10
10
10
10
90
60
ENDCHAR
STARTCHAR U+1EF9
ENCODING 7929
SWIDTH 480 0
DWIDTH 6 0
BBX 5 11 1 -3
BITMAP
68
58
00
88
50
50
50
20
20
20
40
ENDCHAR
STARTCHAR U+1EFA
ENCODING 7930
SWIDTH 480 0
DWIDTH 6 0
BBX 5 9 1 0
BITMAP
A0
A0
A0
A0
A0
A0
A0
A0
B8
ENDCHAR
STARTCHAR U+1EFB
ENCODING 7931
SWIDTH 480 0
DWIDTH 6 0
BBX 5 9 1 0
BITMAP
50
F8
50
50
50
50
50
50
50
ENDCHAR
STARTCHAR U+1EFC
ENCODING 7932
SWIDTH 480 0
DWIDTH 6 0
BBX 5 9 1 0
BITMAP
20
40
40
80
90
88
88
88
70
ENDCHAR
STARTCHAR U+1EFD
ENCODING 7933
SWIDTH 480 0
DWIDTH 6 0
BBX 5 7 1 0
BITMAP
20
40
90
88
88
88
70
ENDCHAR
STARTCHAR U+1EFE
ENCODING 7934
SWIDTH 480 0
DWIDTH 6 0
BBX 5 12 1 -3
BITMAP
88
50
50
50
30
10
10
10
10
70
90
60
ENDCHAR
STARTCHAR U+1EFF
ENCODING 7935
SWIDTH 480 0
DWIDTH 6 0
BBX 6 8 0 -3
BITMAP
44
28
28
28
10
70
90
60
ENDCHAR
STARTCHAR U+1F00
ENCODING 7936
SWIDTH 480 0
DWIDTH 6 0
BBX 5 9 1 0
BITMAP
10
10
20
00
68
90
90
90
68
ENDCHAR
STARTCHAR U+1F01
ENCODING 7937
SWIDTH 480 0
DWIDTH 6 0
BBX 5 9 1 0
BITMAP
40
40
20
00
68
90
90
90
68
ENDCHAR
STARTCHAR U+1F02
ENCODING 7938
SWIDTH 480 0
DWIDTH 6 0
BBX 5 9 1 0
BITMAP
40
50
88
00
68
90
90
90
68
ENDCHAR
STARTCHAR U+1F03
ENCODING 7939
SWIDTH 480 0
DWIDTH 6 0
BBX 5 9 1 0
BITMAP
80
90
48
00
68
90
90
90
68
ENDCHAR
STARTCHAR U+1F04
ENCODING 7940
SWIDTH 480 0
DWIDTH 6 0
BBX 5 9 1 0
BITMAP
40
48
90
00
68
90
90
90
68
ENDCHAR
STARTCHAR U+1F05
ENCODING 7941
SWIDTH 480 0
DWIDTH 6 0
BBX 5 9 1 0
BITMAP
80
88
50
00
68
90
90
90
68
ENDCHAR
STARTCHAR U+1F06
ENCODING 7942
SWIDTH 480 0
DWIDTH 6 0
BBX 5 10 1 0
BITMAP
D0
B0
20
40
00
68
90
90
90
68
ENDCHAR
STARTCHAR U+1F07
ENCODING 7943
SWIDTH 480 0
DWIDTH 6 0
BBX 5 10 1 0
BITMAP
D0
B0
80
40
00
68
90
90
90
68
ENDCHAR
STARTCHAR U+1F08
ENCODING 7944
SWIDTH 480 0
DWIDTH 6 0
BBX 6 11 0 0
BITMAP
40
40
90
10
10
28
28
38
44
44
44
ENDCHAR
STARTCHAR U+1F09
ENCODING 7945
SWIDTH 480 0
DWIDTH 6 0
BBX 6 11 0 0
BITMAP
80
80
50
10
10
28
28
38
44
44
44
ENDCHAR
STARTCHAR U+1F0A
ENCODING 7946
SWIDTH 480 0
DWIDTH 6 0
BBX 6 12 0 0
BITMAP
10
48
40
90
10
10
28
28
38
44
44
44
ENDCHAR
STARTCHAR U+1F0B
ENCODING 7947
SWIDTH 480 0
DWIDTH 6 0
BBX 6 12 0 0
BITMAP
20
90
80
50
10
10
28
28
38
44
44
44
ENDCHAR
STARTCHAR U+1F0C
ENCODING 7948
SWIDTH 480 0
DWIDTH 6 0
BBX 6 12 0 0
BITMAP
08
50
40
90
10
10
28
28
38
44
44
44
ENDCHAR
STARTCHAR U+1F0D
ENCODING 7949
SWIDTH 480 0
DWIDTH 6 0
BBX 6 12 0 0
BITMAP
08
90
80
50
10
10
28
28
38
44
44
44
ENDCHAR
STARTCHAR U+1F0E
ENCODING 7950
SWIDTH 480 0
DWIDTH 6 0
BBX 6 12 0 0
BITMAP
68
58
40
90
10
10
28
28
38
44
44
44
ENDCHAR
STARTCHAR U+1F0F
ENCODING 7951
SWIDTH 480 0
DWIDTH 6 0
BBX 6 12 0 0
BITMAP
D0
B0
80
50
10
10
28
28
38
44
44
44
ENDCHAR
STARTCHAR U+1F10
ENCODING 7952
SWIDTH 480 0
DWIDTH 6 0
BBX 5 9 1 0
BITMAP
10
10
20
00
70
80
60
88
70
ENDCHAR
STARTCHAR U+1F11
ENCODING 7953
SWIDTH 480 0
DWIDTH 6 0
BBX 5 9 1 0
BITMAP
40
40
20
00
70
80
60
88
70
ENDCHAR
STARTCHAR U+1F12
ENCODING 7954
SWIDTH 480 0
DWIDTH 6 0
BBX 5 9 1 0
BITMAP
40
50
88
00
70
80
60
88
70
ENDCHAR
STARTCHAR U+1F13
ENCODING 7955
SWIDTH 480 0
DWIDTH 6 0
BBX 5 9 1 0
BITMAP
80
90
48
00
70
80
60
88
70
ENDCHAR
STARTCHAR U+1F14
ENCODING 7956
SWIDTH 480 0
DWIDTH 6 0
BBX 5 9 1 0
BITMAP
40
48
90
00
70
80
60
88
70
ENDCHAR
STARTCHAR U+1F15
ENCODING 7957
SWIDTH 480 0
DWIDTH 6 0
BBX 5 9 1 0
BITMAP
80
88
50
00
70
80
60
88
70
ENDCHAR
STARTCHAR U+1F18
ENCODING 7960
SWIDTH 480 0
DWIDTH 6 0
BBX 6 11 0 0
BITMAP
40
40
9C
04
40
40
78
40
40
44
7C
ENDCHAR
STARTCHAR U+1F19
ENCODING 7961
SWIDTH 480 0
DWIDTH 6 0
BBX 6 11 0 0
BITMAP
80
80
5C
04
40
40
78
40
40
44
7C
ENDCHAR
STARTCHAR U+1F1A
ENCODING 7962
SWIDTH 480 0
DWIDTH 6 0
BBX 6 12 0 0
BITMAP
10
48
40
9C
04
40
40
78
40
40
44
7C
ENDCHAR
STARTCHAR U+1F1B
ENCODING 7963
SWIDTH 480 0
DWIDTH 6 0
BBX 6 12 0 0
BITMAP
20
90
80
5C
04
40
40
78
40
40
44
7C
ENDCHAR
STARTCHAR U+1F1C
ENCODING 7964
SWIDTH 480 0
DWIDTH 6 0
BBX 6 12 0 0
BITMAP
08
50
40
9C
04
40
40
78
40
40
44
7C
ENDCHAR
STARTCHAR U+1F1D
ENCODING 7965
SWIDTH 480 0
DWIDTH 6 0
BBX 6 12 0 0
BITMAP
10
A0
80
5C
04
40
40
78
40
40
44
7C
ENDCHAR
STARTCHAR U+1F20
ENCODING 7968
SWIDTH 480 0
DWIDTH 6 0
BBX 5 12 1 -3
BITMAP
10
10
20
00
B0
C8
88
88
88
08
08
08
ENDCHAR
STARTCHAR U+1F21
ENCODING 7969
SWIDTH 480 0
DWIDTH 6 0
BBX 5 12 1 -3
BITMAP
40
40
20
00
B0
C8
88
88
88
08
08
08
ENDCHAR
STARTCHAR U+1F22
ENCODING 7970
SWIDTH 480 0
DWIDTH 6 0
BBX 5 12 1 -3
BITMAP
40
50
88
00
B0
C8
88
88
88
08
08
08
ENDCHAR
STARTCHAR U+1F23
ENCODING 7971
SWIDTH 480 0
DWIDTH 6 0
BBX 5 12 1 -3
BITMAP
80
90
48
00
B0
C8
88
88
88
08
08
08
ENDCHAR
STARTCHAR U+1F24
ENCODING 7972
SWIDTH 480 0
DWIDTH 6 0
BBX 5 12 1 -3
BITMAP
40
48
90
00
B0
C8
88
88
88
08
08
08
ENDCHAR
STARTCHAR U+1F25
ENCODING 7973
SWIDTH 480 0
DWIDTH 6 0
BBX 5 12 1 -3
BITMAP
80
88
50
00
B0
C8
88
88
88
08
08
08
ENDCHAR
STARTCHAR U+1F26
ENCODING 7974
SWIDTH 480 0
DWIDTH 6 0
BBX 5 13 1 -3
BITMAP
68
58
10
20
00
B0
C8
88
88
88
08
08
08
ENDCHAR
STARTCHAR U+1F27
ENCODING 7975
SWIDTH 480 0
DWIDTH 6 0
BBX 5 13 1 -3
BITMAP
68
58
40
20
00
B0
C8
88
88
88
08
08
08
ENDCHAR
STARTCHAR U+1F28
ENCODING 7976
SWIDTH 480 0
DWIDTH 6 0
BBX 6 11 0 0
BITMAP
40
40
84
04
44
44
7C
44
44
44
44
ENDCHAR
STARTCHAR U+1F29
ENCODING 7977
SWIDTH 480 0
DWIDTH 6 0
BBX 6 11 0 0
BITMAP
80
80
44
04
44
44
7C
44
44
44
44
ENDCHAR
STARTCHAR U+1F2A
ENCODING 7978
SWIDTH 480 0
DWIDTH 6 0
BBX 6 12 0 0
BITMAP
10
48
40
84
04
44
44
7C
44
44
44
44
ENDCHAR
STARTCHAR U+1F2B
ENCODING 7979
SWIDTH 480 0
DWIDTH 6 0
BBX 6 12 0 0
BITMAP
20
90
80
44
04
44
44
7C
44
44
44
44
ENDCHAR
STARTCHAR U+1F2C
ENCODING 7980
SWIDTH 480 0
DWIDTH 6 0
BBX 6 12 0 0
BITMAP
08
50
40
84
04
44
44
7C
44
44
44
44
ENDCHAR
STARTCHAR U+1F2D
ENCODING 7981
SWIDTH 480 0
DWIDTH 6 0
BBX 6 12 0 0
BITMAP
10
A0
80
44
04
44
44
7C
44
44
44
44
ENDCHAR
STARTCHAR U+1F2E
ENCODING 7982
SWIDTH 480 0
DWIDTH 6 0
BBX 6 12 0 0
BITMAP
68
58
40
84
04
44
44
7C
44
44
44
44
ENDCHAR
STARTCHAR U+1F2F
ENCODING 7983
SWIDTH 480 0
DWIDTH 6 0
BBX 6 12 0 0
BITMAP
D0
B0
80
44
04
44
44
7C
44
44
44
44
ENDCHAR
STARTCHAR U+1F30
ENCODING 7984
SWIDTH 480 0
DWIDTH 6 0
BBX 4 9 2 0
BITMAP
20
20
40
00
40
C0
40
50
20
ENDCHAR
STARTCHAR U+1F31
ENCODING 7985
SWIDTH 480 0
DWIDTH 6 0
BBX 4 9 2 0
BITMAP
80
80
40
00
40
C0
40
50
20
ENDCHAR
STARTCHAR U+1F32
ENCODING 7986
SWIDTH 480 0
DWIDTH 6 0
BBX 5 9 1 0
BITMAP
40
50
88
00
20
60
20
28
10
ENDCHAR
STARTCHAR U+1F33
ENCODING 7987
SWIDTH 480 0
DWIDTH 6 0
BBX 5 9 1 0
BITMAP
80
90
48
00
20
60
20
28
10
ENDCHAR
STARTCHAR U+1F34
ENCODING 7988
SWIDTH 480 0
DWIDTH 6 0
BBX 5 9 1 0
BITMAP
40
48
90
00
20
60
20
28
10
ENDCHAR
STARTCHAR U+1F35
ENCODING 7989
SWIDTH 480 0
DWIDTH 6 0
BBX 5 9 1 0
BITMAP
80
88
50
00
20
60
20
28
10
ENDCHAR
STARTCHAR U+1F36
ENCODING 7990
SWIDTH 480 0
DWIDTH 6 0
BBX 4 10 2 0
BITMAP
D0
B0
20
40
00
40
C0
40
50
20
ENDCHAR
STARTCHAR U+1F37
ENCODING 7991
SWIDTH 480 0
DWIDTH 6 0
BBX 4 10 2 0
BITMAP
D0
B0
80
40
00
40
C0
40
50
20
ENDCHAR
STARTCHAR U+1F38
ENCODING 7992
SWIDTH 480 0
DWIDTH 6 0
BBX 6 11 0 0
BITMAP
40
40
9C
10
10
10
10
10
10
10
7C
ENDCHAR
STARTCHAR U+1F39
ENCODING 7993
SWIDTH 480 0
DWIDTH 6 0
BBX 6 11 0 0
BITMAP
80
80
5C
10
10
10
10
10
10
10
7C
ENDCHAR
STARTCHAR U+1F3A
ENCODING 7994
SWIDTH 480 0
DWIDTH 6 0
BBX 6 12 0 0
BITMAP
10
48
40
9C
10
10
10
10
10
10
10
7C
ENDCHAR
STARTCHAR U+1F3B
ENCODING 7995
SWIDTH 480 0
DWIDTH 6 0
BBX 6 12 0 0
BITMAP
20
90
80
5C
10
10
10
10
10
10
10
7C
ENDCHAR
STARTCHAR U+1F3C
ENCODING 7996
SWIDTH 480 0
DWIDTH 6 0
BBX 6 12 0 0
BITMAP
08
50
40
9C
10
10
10
10
10
10
10
7C
ENDCHAR
STARTCHAR U+1F3D
ENCODING 7997
SWIDTH 480 0
DWIDTH 6 0
BBX 6 12 0 0
BITMAP
10
A0
80
5C
10
10
10
10
10
10
10
7C
ENDCHAR
STARTCHAR U+1F3E
ENCODING 7998
SWIDTH 480 0
DWIDTH 6 0
BBX 6 12 0 0
BITMAP
68
58
40
9C
10
10
10
10
10
10
10
7C
ENDCHAR
STARTCHAR U+1F3F
ENCODING 7999
SWIDTH 480 0
DWIDTH 6 0
BBX 6 12 0 0
BITMAP
D0
B0
80
5C
10
10
10
10
10
10
10
7C
ENDCHAR
STARTCHAR U+1F40
ENCODING 8000
SWIDTH 480 0
DWIDTH 6 0
BBX 5 9 1 0
BITMAP
10
10
20
00
70
88
88
88
70
ENDCHAR
STARTCHAR U+1F41
ENCODING 8001
SWIDTH 480 0
DWIDTH 6 0
BBX 5 9 1 0
BITMAP
40
40
20
00
70
88
88
88
70
ENDCHAR
STARTCHAR U+1F42
ENCODING 8002
SWIDTH 480 0
DWIDTH 6 0
BBX 5 9 1 0
BITMAP
40
50
88
00
70
88
88
88
70
ENDCHAR
STARTCHAR U+1F43
ENCODING 8003
SWIDTH 480 0
DWIDTH 6 0
BBX 5 9 1 0
BITMAP
80
90
48
00
70
88
88
88
70
ENDCHAR
STARTCHAR U+1F44
ENCODING 8004
SWIDTH 480 0
DWIDTH 6 0
BBX 5 9 1 0
BITMAP
40
48
90
00
70
88
88
88
70
ENDCHAR
STARTCHAR U+1F45
ENCODING 8005
SWIDTH 480 0
DWIDTH 6 0
BBX 5 9 1 0
BITMAP
80
88
50
00
70
88
88
88
70
ENDCHAR
STARTCHAR U+1F48
ENCODING 8008
SWIDTH 480 0
DWIDTH 6 0
BBX 6 11 0 0
BITMAP
40
40
98
04
44
44
44
44
44
44
38
ENDCHAR
STARTCHAR U+1F49
ENCODING 8009
SWIDTH 480 0
DWIDTH 6 0
BBX 6 11 0 0
BITMAP
80
80
58
04
44
44
44
44
44
44
38
ENDCHAR
STARTCHAR U+1F4A
ENCODING 8010
SWIDTH 480 0
DWIDTH 6 0
BBX 6 12 0 0
BITMAP
10
48
40
98
04
44
44
44
44
44
44
38
ENDCHAR
STARTCHAR U+1F4B
ENCODING 8011
SWIDTH 480 0
DWIDTH 6 0
BBX 6 12 0 0
BITMAP
20
90
80
58
04
44
44
44
44
44
44
38
ENDCHAR
STARTCHAR U+1F4C
ENCODING 8012
SWIDTH 480 0
DWIDTH 6 0
BBX 6 12 0 0
BITMAP
08
50
40
98
04
44
44
44
44
44
44
38
ENDCHAR
STARTCHAR U+1F4D
ENCODING 8013
SWIDTH 480 0
DWIDTH 6 0
BBX 6 12 0 0
BITMAP
10
A0
80
58
04
44
44
44
44
44
44
38
ENDCHAR
STARTCHAR U+1F50
ENCODING 8016
SWIDTH 480 0
DWIDTH 6 0
BBX 5 9 1 0
BITMAP
10
10
20
00
90
88
88
90
60
ENDCHAR
STARTCHAR U+1F51
ENCODING 8017
SWIDTH 480 0
DWIDTH 6 0
BBX 5 9 1 0
BITMAP
40
40
20
00
90
88
88
90
60
ENDCHAR
STARTCHAR U+1F52
ENCODING 8018
SWIDTH 480 0
DWIDTH 6 0
BBX 5 9 1 0
BITMAP
40
50
88
00
90
88
88
90
60
ENDCHAR
STARTCHAR U+1F53
ENCODING 8019
SWIDTH 480 0
DWIDTH 6 0
BBX 5 9 1 0
BITMAP
80
90
48
00
90
88
88
90
60
ENDCHAR
STARTCHAR U+1F54
ENCODING 8020
SWIDTH 480 0
DWIDTH 6 0
BBX 5 9 1 0
BITMAP
40
48
90
00
90
88
88
90
60
ENDCHAR
STARTCHAR U+1F55
ENCODING 8021
SWIDTH 480 0
DWIDTH 6 0
BBX 5 9 1 0
BITMAP
80
88
50
00
90
88
88
90
60
ENDCHAR
STARTCHAR U+1F56
ENCODING 8022
SWIDTH 480 0
DWIDTH 6 0
BBX 5 10 1 0
BITMAP
D0
B0
20
40
00
90
88
88
90
60
ENDCHAR
STARTCHAR U+1F57
ENCODING 8023
SWIDTH 480 0
DWIDTH 6 0
BBX 5 10 1 0
BITMAP
D0
B0
80
40
00
90
88
88
90
60
ENDCHAR
STARTCHAR U+1F59
ENCODING 8025
SWIDTH 480 0
DWIDTH 6 0
BBX 6 11 0 0
BITMAP
80
80
44
04
28
28
10
10
10
10
10
ENDCHAR
STARTCHAR U+1F5B
ENCODING 8027
SWIDTH 480 0
DWIDTH 6 0
BBX 6 12 0 0
BITMAP
20
90
80
44
04
28
28
10
10
10
10
10
ENDCHAR
STARTCHAR U+1F5D
ENCODING 8029
SWIDTH 480 0
DWIDTH 6 0
BBX 6 12 0 0
BITMAP
10
A0
80
44
04
28
28
10
10
10
10
10
ENDCHAR
STARTCHAR U+1F5F
ENCODING 8031
SWIDTH 480 0
DWIDTH 6 0
BBX 6 12 0 0
BITMAP
D0
B0
80
44
04
28
28
10
10
10
10
10
ENDCHAR
STARTCHAR U+1F60
ENCODING 8032
SWIDTH 480 0
DWIDTH 6 0
BBX 5 9 1 0
BITMAP
10
10
20
00
50
88
A8
A8
50
ENDCHAR
STARTCHAR U+1F61
ENCODING 8033
SWIDTH 480 0
DWIDTH 6 0
BBX 5 9 1 0
BITMAP
40
40
20
00
50
88
A8
A8
50
ENDCHAR
STARTCHAR U+1F62
ENCODING 8034
SWIDTH 480 0
DWIDTH 6 0
BBX 5 9 1 0
BITMAP
40
50
88
00
50
88
A8
A8
50
ENDCHAR
STARTCHAR U+1F63
ENCODING 8035
SWIDTH 480 0
DWIDTH 6 0
BBX 5 9 1 0
BITMAP
80
90
48
00
50
88
A8
A8
50
ENDCHAR
STARTCHAR U+1F64
ENCODING 8036
SWIDTH 480 0
DWIDTH 6 0
BBX 5 9 1 0
BITMAP
40
48
90
00
50
88
A8
A8
50
ENDCHAR
STARTCHAR U+1F65
ENCODING 8037
SWIDTH 480 0
DWIDTH 6 0
BBX 5 9 1 0
BITMAP
80
88
50
00
50
88
A8
A8
50
ENDCHAR
STARTCHAR U+1F66
ENCODING 8038
SWIDTH 480 0
DWIDTH 6 0
BBX 5 10 1 0
BITMAP
68
58
10
20
00
50
88
A8
A8
50
ENDCHAR
STARTCHAR U+1F67
ENCODING 8039
SWIDTH 480 0
DWIDTH 6 0
BBX 5 10 1 0
BITMAP
68
58
40
20
00
50
88
A8
A8
50
ENDCHAR
STARTCHAR U+1F68
ENCODING 8040
SWIDTH 480 0
DWIDTH 6 0
BBX 6 11 0 0
BITMAP
40
40
98
04
44
44
44
44
44
28
6C
ENDCHAR
STARTCHAR U+1F69
ENCODING 8041
SWIDTH 480 0
DWIDTH 6 0
BBX 6 11 0 0
BITMAP
80
80
58
04
44
44
44
44
44
28
6C
ENDCHAR
STARTCHAR U+1F6A
ENCODING 8042
SWIDTH 480 0
DWIDTH 6 0
BBX 6 12 0 0
BITMAP
10
48
40
98
04
44
44
44
44
44
28
6C
ENDCHAR
STARTCHAR U+1F6B
ENCODING 8043
SWIDTH 480 0
DWIDTH 6 0
BBX 6 12 0 0
BITMAP
20
90
80
58
04
44
44
44
44
44
28
6C
ENDCHAR
STARTCHAR U+1F6C
ENCODING 8044
SWIDTH 480 0
DWIDTH 6 0
BBX 6 12 0 0
BITMAP
08
50
40
98
04
44
44
44
44
44
28
6C
ENDCHAR
STARTCHAR U+1F6D
ENCODING 8045
SWIDTH 480 0
DWIDTH 6 0
BBX 6 12 0 0
BITMAP
10
A0
80
58
04
44
44
44
44
44
28
6C
ENDCHAR
STARTCHAR U+1F6E
ENCODING 8046
SWIDTH 480 0
DWIDTH 6 0
BBX 6 12 0 0
BITMAP
68
58
40
98
04
44
44
44
44
44
28
6C
ENDCHAR
STARTCHAR U+1F6F
ENCODING 8047
SWIDTH 480 0
DWIDTH 6 0
BBX 6 12 0 0
BITMAP
D0
B0
80
58
04
44
44
44
44
44
28
6C
ENDCHAR
STARTCHAR U+1F70
ENCODING 8048
SWIDTH 480 0
DWIDTH 6 0
BBX 5 8 1 0
BITMAP
40
20
00
68
90
90
90
68
ENDCHAR
STARTCHAR U+1F71
ENCODING 8049
SWIDTH 480 0
DWIDTH 6 0
BBX 5 8 1 0
BITMAP
10
20
00
68
90
90
90
68
ENDCHAR
STARTCHAR U+1F72
ENCODING 8050
SWIDTH 480 0
DWIDTH 6 0
BBX 5 8 1 0
BITMAP
40
20
00
70
80
60
88
70
ENDCHAR
STARTCHAR U+1F73
ENCODING 8051
SWIDTH 480 0
DWIDTH 6 0
BBX 5 8 1 0
BITMAP
10
20
00
70
80
60
88
70
ENDCHAR
STARTCHAR U+1F74
ENCODING 8052
SWIDTH 480 0
DWIDTH 6 0
BBX 5 11 1 -3
BITMAP
40
20
00
B0
C8
88
88
88
08
08
08
ENDCHAR
STARTCHAR U+1F75
ENCODING 8053
SWIDTH 480 0
DWIDTH 6 0
BBX 5 11 1 -3
BITMAP
10
20
00
B0
C8
88
88
88
08
08
08
ENDCHAR
STARTCHAR U+1F76
ENCODING 8054
SWIDTH 480 0
DWIDTH 6 0
BBX 4 8 2 0
BITMAP
80
40
00
40
C0
40
50
20
ENDCHAR
STARTCHAR U+1F77
ENCODING 8055
SWIDTH 480 0
DWIDTH 6 0
BBX 4 8 2 0
BITMAP
20
40
00
40
C0
40
50
20
ENDCHAR
STARTCHAR U+1F78
ENCODING 8056
SWIDTH 480 0
DWIDTH 6 0
BBX 5 8 1 0
BITMAP
40
20
00
70
88
88
88
70
ENDCHAR
STARTCHAR U+1F79
ENCODING 8057
SWIDTH 480 0
DWIDTH 6 0
BBX 5 8 1 0
BITMAP
10
20
00
70
88
88
88
70
ENDCHAR
STARTCHAR U+1F7A
ENCODING 8058
SWIDTH 480 0
DWIDTH 6 0
BBX 5 8 1 0
BITMAP
40
20
00
90
88
88
90
60
ENDCHAR
STARTCHAR U+1F7B
ENCODING 8059
SWIDTH 480 0
DWIDTH 6 0
BBX 5 8 1 0
BITMAP
10
20
00
90
88
88
90
60
ENDCHAR
STARTCHAR U+1F7C
ENCODING 8060
SWIDTH 480 0
DWIDTH 6 0
BBX 5 8 1 0
BITMAP
40
20
00
50
88
A8
A8
50
ENDCHAR
STARTCHAR U+1F7D
ENCODING 8061
SWIDTH 480 0
DWIDTH 6 0
BBX 5 8 1 0
BITMAP
10
20
00
50
88
A8
A8
50
ENDCHAR
STARTCHAR U+1F80
ENCODING 8064
SWIDTH 480 0
DWIDTH 6 0
BBX 5 12 1 -3
BITMAP
10
10
20
00
68
90
90
90
68
00
20
30
ENDCHAR
STARTCHAR U+1F81
ENCODING 8065
SWIDTH 480 0
DWIDTH 6 0
BBX 5 12 1 -3
BITMAP
40
40
20
00
68
90
90
90
68
00
20
30
ENDCHAR
STARTCHAR U+1F82
ENCODING 8066
SWIDTH 480 0
DWIDTH 6 0
BBX 5 12 1 -3
BITMAP
40
50
88
00
68
90
90
90
68
00
20
30
ENDCHAR
STARTCHAR U+1F83
ENCODING 8067
SWIDTH 480 0
DWIDTH 6 0
BBX 5 12 1 -3
BITMAP
80
90
48
00
68
90
90
90
68
00
20
30
ENDCHAR
STARTCHAR U+1F84
ENCODING 8068
SWIDTH 480 0
DWIDTH 6 0
BBX 5 12 1 -3
BITMAP
40
48
90
00
68
90
90
90
68
00
20
30
ENDCHAR
STARTCHAR U+1F85
ENCODING 8069
SWIDTH 480 0
DWIDTH 6 0
BBX 5 12 1 -3
BITMAP
80
88
50
00
68
90
90
90
68
00
20
30
ENDCHAR
STARTCHAR U+1F86
ENCODING 8070
SWIDTH 480 0
DWIDTH 6 0
BBX 5 13 1 -3
BITMAP
D0
B0
20
40
00
68
90
90
90
68
00
20
30
ENDCHAR
STARTCHAR U+1F87
ENCODING 8071
SWIDTH 480 0
DWIDTH 6 0
BBX 5 13 1 -3
BITMAP
D0
B0
80
40
00
68
90
90
90
68
00
20
30
ENDCHAR
STARTCHAR U+1F88
ENCODING 8072
SWIDTH 480 0
DWIDTH 6 0
BBX 6 14 0 -3
BITMAP
40
40
90
10
10
28
28
38
44
44
44
00
10
18
ENDCHAR
STARTCHAR U+1F89
ENCODING 8073
SWIDTH 480 0
DWIDTH 6 0
BBX 6 14 0 -3
BITMAP
80
80
50
10
10
28
28
38
44
44
44
00
10
18
ENDCHAR
STARTCHAR U+1F8A
ENCODING 8074
SWIDTH 480 0
DWIDTH 6 0
BBX 6 15 0 -3
BITMAP
10
48
40
90
10
10
28
28
38
44
44
44
00
10
18
ENDCHAR
STARTCHAR U+1F8B
ENCODING 8075
SWIDTH 480 0
DWIDTH 6 0
BBX 6 15 0 -3
BITMAP
20
90
80
50
10
10
28
28
38
44
44
44
00
10
18
ENDCHAR
STARTCHAR U+1F8C
ENCODING 8076
SWIDTH 480 0
DWIDTH 6 0
BBX 6 15 0 -3
BITMAP
08
50
40
90
10
10
28
28
38
44
44
44
00
10
18
ENDCHAR
STARTCHAR U+1F8D
ENCODING 8077
SWIDTH 480 0
DWIDTH 6 0
BBX 6 15 0 -3
BITMAP
08
90
80
50
10
10
28
28
38
44
44
44
00
10
18
ENDCHAR
STARTCHAR U+1F8E
ENCODING 8078
SWIDTH 480 0
DWIDTH 6 0
BBX 6 15 0 -3
BITMAP
68
58
40
90
10
10
28
28
38
44
44
44
00
10
18
ENDCHAR
STARTCHAR U+1F8F
ENCODING 8079
SWIDTH 480 0
DWIDTH 6 0
BBX 6 15 0 -3
BITMAP
D0
B0
80
50
10
10
28
28
38
44
44
44
00
10
18
ENDCHAR
STARTCHAR U+1F90
ENCODING 8080
SWIDTH 480 0
DWIDTH 6 0
BBX 5 12 1 -3
BITMAP
10
10
20
00
B0
C8
88
88
88
08
88
C8
ENDCHAR
STARTCHAR U+1F91
ENCODING 8081
SWIDTH 480 0
DWIDTH 6 0
BBX 5 12 1 -3
BITMAP
40
40
20
00
B0
C8
88
88
88
08
88
C8
ENDCHAR
STARTCHAR U+1F92
ENCODING 8082
SWIDTH 480 0
DWIDTH 6 0
BBX 5 12 1 -3
BITMAP
40
50
88
00
B0
C8
88
88
88
08
88
C8
ENDCHAR
STARTCHAR U+1F93
ENCODING 8083
SWIDTH 480 0
DWIDTH 6 0
BBX 5 12 1 -3
BITMAP
80
90
48
00
B0
C8
88
88
88
08
88
C8
ENDCHAR
STARTCHAR U+1F94
ENCODING 8084
SWIDTH 480 0
DWIDTH 6 0
BBX 5 12 1 -3
BITMAP
40
48
90
00
B0
C8
88
88
88
08
88
C8
ENDCHAR
STARTCHAR U+1F95
ENCODING 8085
SWIDTH 480 0
DWIDTH 6 0
BBX 5 12 1 -3
BITMAP
80
88
50
00
B0
C8
88
88
88
08
88
C8
ENDCHAR
STARTCHAR U+1F96
ENCODING 8086
SWIDTH 480 0
DWIDTH 6 0
BBX 5 13 1 -3
BITMAP
68
58
10
20
00
B0
C8
88
88
88
08
88
C8
ENDCHAR
STARTCHAR U+1F97
ENCODING 8087
SWIDTH 480 0
DWIDTH 6 0
BBX 5 13 1 -3
BITMAP
68
58
40
20
00
B0
C8
88
88
88
08
88
C8
ENDCHAR
STARTCHAR U+1F98
ENCODING 8088
SWIDTH 480 0
DWIDTH 6 0
BBX 6 14 0 -3
BITMAP
40
40
84
04
44
44
7C
44
44
44
44
00
10
18
ENDCHAR
STARTCHAR U+1F99
ENCODING 8089
SWIDTH 480 0
DWIDTH 6 0
BBX 6 14 0 -3
BITMAP
80
80
44
04
44
44
7C
44
44
44
44
00
10
18
ENDCHAR
STARTCHAR U+1F9A
ENCODING 8090
SWIDTH 480 0
DWIDTH 6 0
BBX 6 15 0 -3
BITMAP
10
48
40
84
04
44
44
7C
44
44
44
44
00
10
18
ENDCHAR
STARTCHAR U+1F9B
ENCODING 8091
SWIDTH 480 0
DWIDTH 6 0
BBX 6 15 0 -3
BITMAP
20
90
80
44
04
44
44
7C
44
44
44
44
00
10
18
ENDCHAR
STARTCHAR U+1F9C
ENCODING 8092
SWIDTH 480 0
DWIDTH 6 0
BBX 6 15 0 -3
BITMAP
08
50
40
84
04
44
44
7C
44
44
44
44
00
10
18
ENDCHAR
STARTCHAR U+1F9D
ENCODING 8093
SWIDTH 480 0
DWIDTH 6 0
BBX 6 15 0 -3
BITMAP
10
A0
80
44
04
44
44
7C
44
44
44
44
00
10
18
ENDCHAR
STARTCHAR U+1F9E
ENCODING 8094
SWIDTH 480 0
DWIDTH 6 0
BBX 6 15 0 -3
BITMAP
68
58
40
84
04
44
44
7C
44
44
44
44
00
10
18
ENDCHAR
STARTCHAR U+1F9F
ENCODING 8095
SWIDTH 480 0
DWIDTH 6 0
BBX 6 15 0 -3
BITMAP
D0
B0
80
44
04
44
44
7C
44
44
44
44
00
10
18
ENDCHAR
STARTCHAR U+1FA0
ENCODING 8096
SWIDTH 480 0
DWIDTH 6 0
BBX 5 12 1 -3
BITMAP
10
10
20
00
50
88
A8
A8
50
00
20
30
ENDCHAR
STARTCHAR U+1FA1
ENCODING 8097
SWIDTH 480 0
DWIDTH 6 0
BBX 5 12 1 -3
BITMAP
40
40
20
00
50
88
A8
A8
50
00
20
30
ENDCHAR
STARTCHAR U+1FA2
ENCODING 8098
SWIDTH 480 0
DWIDTH 6 0
BBX 5 12 1 -3
BITMAP
40
50
88
00
50
88
A8
A8
50
00
20
30
ENDCHAR
STARTCHAR U+1FA3
ENCODING 8099
SWIDTH 480 0
DWIDTH 6 0
BBX 5 12 1 -3
BITMAP
80
90
48
00
50
88
A8
A8
50
00
20
30
ENDCHAR
STARTCHAR U+1FA4
ENCODING 8100
SWIDTH 480 0
DWIDTH 6 0
BBX 5 12 1 -3
BITMAP
40
48
90
00
50
88
A8
A8
50
00
20
30
ENDCHAR
STARTCHAR U+1FA5
ENCODING 8101
SWIDTH 480 0
DWIDTH 6 0
BBX 5 12 1 -3
BITMAP
80
88
50
00
50
88
A8
A8
50
00
20
30
ENDCHAR
STARTCHAR U+1FA6
ENCODING 8102
SWIDTH 480 0
DWIDTH 6 0
BBX 5 13 1 -3
BITMAP
68
58
10
20
00
50
88
A8
A8
50
00
20
30
ENDCHAR
STARTCHAR U+1FA7
ENCODING 8103
SWIDTH 480 0
DWIDTH 6 0
BBX 5 13 1 -3
BITMAP
68
58
40
20
00
50
88
A8
A8
50
00
20
30
ENDCHAR
STARTCHAR U+1FA8
ENCODING 8104
SWIDTH 480 0
DWIDTH 6 0
BBX 6 14 0 -3
BITMAP
40
40
98
04
44
44
44
44
44
28
6C
00
10
18
ENDCHAR
STARTCHAR U+1FA9
ENCODING 8105
SWIDTH 480 0
DWIDTH 6 0
BBX 6 14 0 -3
BITMAP
80
80
58
04
44
44
44
44
44
28
6C
00
10
18
ENDCHAR
STARTCHAR U+1FAA
ENCODING 8106
SWIDTH 480 0
DWIDTH 6 0
BBX 6 15 0 -3
BITMAP
10
48
40
98
04
44
44
44
44
44
28
6C
00
10
18
ENDCHAR
STARTCHAR U+1FAB
ENCODING 8107
SWIDTH 480 0
DWIDTH 6 0
BBX 6 15 0 -3
BITMAP
20
90
80
58
04
44
44
44
44
44
28
6C
00
10
18
ENDCHAR
STARTCHAR U+1FAC
ENCODING 8108
SWIDTH 480 0
DWIDTH 6 0
BBX 6 15 0 -3
BITMAP
08
50
40
98
04
44
44
44
44
44
28
6C
00
10
18
ENDCHAR
STARTCHAR U+1FAD
ENCODING 8109
SWIDTH 480 0
DWIDTH 6 0
BBX 6 15 0 -3
BITMAP
10
A0
80
58
04
44
44
44
44
44
28
6C
00
10
18
ENDCHAR
STARTCHAR U+1FAE
ENCODING 8110
SWIDTH 480 0
DWIDTH 6 0
BBX 6 15 0 -3
BITMAP
68
58
40
98
04
44
44
44
44
44
28
6C
00
10
18
ENDCHAR
STARTCHAR U+1FAF
ENCODING 8111
SWIDTH 480 0
DWIDTH 6 0
BBX 6 15 0 -3
BITMAP
D0
B0
80
58
04
44
44
44
44
44
28
6C
00
10
18
ENDCHAR
STARTCHAR U+1FB0
ENCODING 8112
SWIDTH 480 0
DWIDTH 6 0
BBX 5 8 1 0
BITMAP
50
70
00
68
90
90
90
68
ENDCHAR
STARTCHAR U+1FB1
ENCODING 8113
SWIDTH 480 0
DWIDTH 6 0
BBX 5 7 1 0
BITMAP
70
00
68
90
90
90
68
ENDCHAR
STARTCHAR U+1FB2
ENCODING 8114
SWIDTH 480 0
DWIDTH 6 0
BBX 5 11 1 -3
BITMAP
40
20
00
68
90
90
90
68
00
20
30
ENDCHAR
STARTCHAR U+1FB3
ENCODING 8115
SWIDTH 480 0
DWIDTH 6 0
BBX 5 8 1 -3
BITMAP
68
90
90
90
68
00
20
30
ENDCHAR
STARTCHAR U+1FB4
ENCODING 8116
SWIDTH 480 0
DWIDTH 6 0
BBX 5 11 1 -3
BITMAP
10
20
00
68
90
90
90
68
00
20
30
ENDCHAR
STARTCHAR U+1FB6
ENCODING 8118
SWIDTH 480 0
DWIDTH 6 0
BBX 5 8 1 0
BITMAP
D0
B0
00
68
90
90
90
68
ENDCHAR
STARTCHAR U+1FB7
ENCODING 8119
SWIDTH 480 0
DWIDTH 6 0
BBX 5 11 1 -3
BITMAP
D0
B0
00
68
90
90
90
68
00
20
30
ENDCHAR
STARTCHAR U+1FB8
ENCODING 8120
SWIDTH 480 0
DWIDTH 6 0
BBX 5 12 1 0
BITMAP
50
70
00
20
20
20
50
50
70
88
88
88
ENDCHAR
STARTCHAR U+1FB9
ENCODING 8121
SWIDTH 480 0
DWIDTH 6 0
BBX 5 11 1 0
BITMAP
70
00
20
20
20
50
50
70
88
88
88
ENDCHAR
STARTCHAR U+1FBA
ENCODING 8122
SWIDTH 480 0
DWIDTH 6 0
BBX 6 11 0 0
BITMAP
80
40
10
10
10
28
28
38
44
44
44
ENDCHAR
STARTCHAR U+1FBB
ENCODING 8123
SWIDTH 480 0
DWIDTH 6 0
BBX 5 11 1 0
BITMAP
40
80
20
20
20
50
50
70
88
88
88
ENDCHAR
STARTCHAR U+1FBC
ENCODING 8124
SWIDTH 480 0
DWIDTH 6 0
BBX 5 12 1 -3
BITMAP
20
20
20
50
50
70
88
88
88
00
20
30
ENDCHAR
STARTCHAR U+1FBD
ENCODING 8125
SWIDTH 480 0
DWIDTH 6 0
BBX 2 3 3 6
BITMAP
40
40
80
ENDCHAR
STARTCHAR U+1FBE
ENCODING 8126
SWIDTH 480 0
DWIDTH 6 0
BBX 2 2 3 -2
BITMAP
80
C0
ENDCHAR
STARTCHAR U+1FBF
ENCODING 8127
SWIDTH 480 0
DWIDTH 6 0
BBX 2 3 3 6
BITMAP
40
40
80
ENDCHAR
STARTCHAR U+1FC0
ENCODING 8128
SWIDTH 480 0
DWIDTH 6 0
BBX 4 2 1 7
BITMAP
D0
B0
ENDCHAR
STARTCHAR U+1FC1
ENCODING 8129
SWIDTH 480 0
DWIDTH 6 0
BBX 4 4 1 6
BITMAP
D0
B0
00
50
ENDCHAR
STARTCHAR U+1FC2
ENCODING 8130
SWIDTH 480 0
DWIDTH 6 0
BBX 5 11 1 -3
BITMAP
40
20
00
B0
C8
88
88
88
08
88
C8
ENDCHAR
STARTCHAR U+1FC3
ENCODING 8131
SWIDTH 480 0
DWIDTH 6 0
BBX 5 8 1 -3
BITMAP
B0
C8
88
88
88
08
88
C8
ENDCHAR
STARTCHAR U+1FC4
ENCODING 8132
SWIDTH 480 0
DWIDTH 6 0
BBX 5 11 1 -3
BITMAP
10
20
00
B0
C8
88
88
88
08
88
C8
ENDCHAR
STARTCHAR U+1FC6
ENCODING 8134
SWIDTH 480 0
DWIDTH 6 0
BBX 5 11 1 -3
BITMAP
68
58
00
B0
C8
88
88
88
08
08
08
ENDCHAR
STARTCHAR U+1FC7
ENCODING 8135
SWIDTH 480 0
DWIDTH 6 0
BBX 5 11 1 -3
BITMAP
68
58
00
B0
C8
88
88
88
08
88
C8
ENDCHAR
STARTCHAR U+1FC8
ENCODING 8136
SWIDTH 480 0
DWIDTH 6 0
BBX 6 11 0 0
BITMAP
80
40
1C
44
40
40
78
40
40
44
7C
ENDCHAR
STARTCHAR U+1FC9
ENCODING 8137
SWIDTH 480 0
DWIDTH 6 0
BBX 6 11 0 0
BITMAP
40
80
3C
44
40
40
78
40
40
44
7C
ENDCHAR
STARTCHAR U+1FCA
ENCODING 8138
SWIDTH 480 0
DWIDTH 6 0
BBX 6 10 0 0
BITMAP
80
44
04
44
44
7C
44
44
44
44
ENDCHAR
STARTCHAR U+1FCB
ENCODING 8139
SWIDTH 480 0
DWIDTH 6 0
BBX 6 10 0 0
BITMAP
40
84
04
44
44
7C
44
44
44
44
ENDCHAR
STARTCHAR U+1FCC
ENCODING 8140
SWIDTH 480 0
DWIDTH 6 0
BBX 5 12 1 -3
BITMAP
88
88
88
88
F8
88
88
88
88
00
20
30
ENDCHAR
STARTCHAR U+1FCD
ENCODING 8141
SWIDTH 480 0
DWIDTH 6 0
BBX 5 3 1 6
BITMAP
40
50
88
ENDCHAR
STARTCHAR U+1FCE
ENCODING 8142
SWIDTH 480 0
DWIDTH 6 0
BBX 5 3 1 6
BITMAP
40
48
90
ENDCHAR
STARTCHAR U+1FCF
ENCODING 8143
SWIDTH 480 0
DWIDTH 6 0
BBX 4 4 1 6
BITMAP
D0
B0
20
40
ENDCHAR
STARTCHAR U+1FD0
ENCODING 8144
SWIDTH 480 0
DWIDTH 6 0
BBX 4 8 2 0
BITMAP
A0
E0
00
40
C0
40
50
20
ENDCHAR
STARTCHAR U+1FD1
ENCODING 8145
SWIDTH 480 0
DWIDTH 6 0
BBX 4 7 2 0
BITMAP
E0
00
40
C0
40
50
20
ENDCHAR
STARTCHAR U+1FD2
ENCODING 8146
SWIDTH 480 0
DWIDTH 6 0
BBX 4 10 2 0
BITMAP
80
40
00
A0
00
40
C0
40
50
20
ENDCHAR
STARTCHAR U+1FD3
ENCODING 8147
SWIDTH 480 0
DWIDTH 6 0
BBX 4 10 2 0
BITMAP
20
40
00
A0
00
40
C0
40
50
20
ENDCHAR
STARTCHAR U+1FD6
ENCODING 8150
SWIDTH 480 0
DWIDTH 6 0
BBX 4 8 2 0
BITMAP
D0
B0
00
40
C0
40
50
20
ENDCHAR
STARTCHAR U+1FD7
ENCODING 8151
SWIDTH 480 0
DWIDTH 6 0
BBX 4 10 2 0
BITMAP
D0
B0
00
A0
00
40
C0
40
50
20
ENDCHAR
STARTCHAR U+1FD8
ENCODING 8152
SWIDTH 480 0
DWIDTH 6 0
BBX 5 12 1 0
BITMAP
50
70
00
F8
20
20
20
20
20
20
20
F8
ENDCHAR
STARTCHAR U+1FD9
ENCODING 8153
SWIDTH 480 0
DWIDTH 6 0
BBX 5 11 1 0
BITMAP
70
00
F8
20
20
20
20
20
20
20
F8
ENDCHAR
STARTCHAR U+1FDA
ENCODING 8154
SWIDTH 480 0
DWIDTH 6 0
BBX 6 11 0 0
BITMAP
80
40
1C
10
10
10
10
10
10
10
7C
ENDCHAR
STARTCHAR U+1FDB
ENCODING 8155
SWIDTH 480 0
DWIDTH 6 0
BBX 6 11 0 0
BITMAP
40
80
3C
10
10
10
10
10
10
10
7C
ENDCHAR
STARTCHAR U+1FDD
ENCODING 8157
SWIDTH 480 0
DWIDTH 6 0
BBX 5 3 1 6
BITMAP
80
90
48
ENDCHAR
STARTCHAR U+1FDE
ENCODING 8158
SWIDTH 480 0
DWIDTH 6 0
BBX 5 3 1 6
BITMAP
80
88
50
ENDCHAR
STARTCHAR U+1FDF
ENCODING 8159
SWIDTH 480 0
DWIDTH 6 0
BBX 4 4 1 6
BITMAP
D0
B0
80
40
ENDCHAR
STARTCHAR U+1FE0
ENCODING 8160
SWIDTH 480 0
DWIDTH 6 0
BBX 5 8 1 0
BITMAP
50
70
00
90
88
88
90
60
ENDCHAR
STARTCHAR U+1FE1
ENCODING 8161
SWIDTH 480 0
DWIDTH 6 0
BBX 5 7 1 0
BITMAP
70
00
90
88
88
90
60
ENDCHAR
STARTCHAR U+1FE2
ENCODING 8162
SWIDTH 480 0
DWIDTH 6 0
BBX 5 10 1 0
BITMAP
40
20
00
50
00
90
88
88
90
60
ENDCHAR
STARTCHAR U+1FE3
ENCODING 8163
SWIDTH 480 0
DWIDTH 6 0
BBX 5 10 1 0
BITMAP
10
20
00
50
00
90
88
88
90
60
ENDCHAR
STARTCHAR U+1FE4
ENCODING 8164
SWIDTH 480 0
DWIDTH 6 0
BBX 5 12 1 -3
BITMAP
10
10
20
00
70
88
88
88
B0
80
80
80
ENDCHAR
STARTCHAR U+1FE5
ENCODING 8165
SWIDTH 480 0
DWIDTH 6 0
BBX 5 11 1 -3
BITMAP
40
20
00
70
88
88
88
B0
80
80
80
ENDCHAR
STARTCHAR U+1FE6
ENCODING 8166
SWIDTH 480 0
DWIDTH 6 0
BBX 5 8 1 0
BITMAP
D0
B0
00
90
88
88
90
60
ENDCHAR
STARTCHAR U+1FE7
ENCODING 8167
SWIDTH 480 0
DWIDTH 6 0
BBX 5 10 1 0
BITMAP
D0
B0
00
50
00
90
88
88
90
60
ENDCHAR
STARTCHAR U+1FE8
ENCODING 8168
SWIDTH 480 0
DWIDTH 6 0
BBX 5 12 1 0
BITMAP
50
70
00
88
88
50
50
20
20
20
20
20
ENDCHAR
STARTCHAR U+1FE9
ENCODING 8169
SWIDTH 480 0
DWIDTH 6 0
BBX 5 11 1 0
BITMAP
70
00
88
88
50
50
20
20
20
20
20
ENDCHAR
STARTCHAR U+1FEA
ENCODING 8170
SWIDTH 480 0
DWIDTH 6 0
BBX 6 11 0 0
BITMAP
80
40
04
44
28
28
10
10
10
10
10
ENDCHAR
STARTCHAR U+1FEB
ENCODING 8171
SWIDTH 480 0
DWIDTH 6 0
BBX 6 11 0 0
BITMAP
40
80
04
44
28
28
10
10
10
10
10
ENDCHAR
STARTCHAR U+1FEC
ENCODING 8172
SWIDTH 480 0
DWIDTH 6 0
BBX 6 11 0 0
BITMAP
80
80
58
04
44
44
78
40
40
40
40
ENDCHAR
STARTCHAR U+1FED
ENCODING 8173
SWIDTH 480 0
DWIDTH 6 0
BBX 3 4 2 7
BITMAP
80
40
00
A0
ENDCHAR
STARTCHAR U+1FEE
ENCODING 8174
SWIDTH 480 0
DWIDTH 6 0
BBX 3 4 2 7
BITMAP
20
40
00
A0
ENDCHAR
STARTCHAR U+1FEF
ENCODING 8175
SWIDTH 480 0
DWIDTH 6 0
BBX 2 2 2 7
BITMAP
80
40
ENDCHAR
STARTCHAR U+1FF2
ENCODING 8178
SWIDTH 480 0
DWIDTH 6 0
BBX 5 11 1 -3
BITMAP
40
20
00
50
88
A8
A8
50
00
20
30
ENDCHAR
STARTCHAR U+1FF3
ENCODING 8179
SWIDTH 480 0
DWIDTH 6 0
BBX 5 8 1 -3
BITMAP
50
88
A8
A8
50
00
20
30
ENDCHAR
STARTCHAR U+1FF4
ENCODING 8180
SWIDTH 480 0
DWIDTH 6 0
BBX 5 11 1 -3
BITMAP
10
20
00
50
88
A8
A8
50
00
20
30
ENDCHAR
STARTCHAR U+1FF6
ENCODING 8182
SWIDTH 480 0
DWIDTH 6 0
BBX 5 8 1 0
BITMAP
68
58
00
50
88
A8
A8
50
ENDCHAR
STARTCHAR U+1FF7
ENCODING 8183
SWIDTH 480 0
DWIDTH 6 0
BBX 5 11 1 -3
BITMAP
68
58
00
50
88
A8
A8
50
00
20
30
ENDCHAR
ENDFONT
